<?xml version="1.0" encoding="UTF-8"?>
<svg version="1.1" xmlns="http://www.w3.org/2000/svg" width="496" height="503">
<path d="M0 0 C4.47294965 1.50736765 8.81776237 1.77200769 13.50390625 1.82421875 C14.49068359 1.83904297 15.47746094 1.85386719 16.49414062 1.86914062 C18.54087333 1.89383137 20.5879343 1.89911562 22.63476562 1.88476562 C28.72729999 2.01591607 32.57064621 2.68364009 36.93676758 7.12475586 C38.58741219 9.32460454 38.9485646 10.65851137 38.7578125 13.40625 C38.69980469 14.34597656 38.64179688 15.28570312 38.58203125 16.25390625 C37.91028529 21.43511208 37.09592013 26.59737987 36.11376953 31.72924805 C35.15709477 37.03188058 34.52604186 42.4763381 36.1328125 47.71875 C38.8495017 49.99440375 38.8495017 49.99440375 41.3828125 49.46875 C42.2903125 49.22125 43.1978125 48.97375 44.1328125 48.71875 C45.9890625 48.285625 45.9890625 48.285625 47.8828125 47.84375 C48.9553125 47.4725 50.0278125 47.10125 51.1328125 46.71875 C51.4628125 45.72875 51.7928125 44.73875 52.1328125 43.71875 C54.35116749 41.95335755 56.55297689 40.32228058 58.8828125 38.71875 C59.50414062 38.28046875 60.12546875 37.8421875 60.765625 37.390625 C71.26360787 30.03760746 71.26360787 30.03760746 77.21875 30.31640625 C82.66987429 31.46225482 85.63166415 37.69996897 88.5078125 42.046875 C89.43967815 43.57907718 90.34380136 45.13080944 91.16113281 46.72705078 C94.28823986 52.75641469 98.11472263 57.28891185 102.8828125 62.09375 C104.23600148 63.47242276 105.58516267 64.85506386 106.9296875 66.2421875 C107.81672363 67.1381665 107.81672363 67.1381665 108.72167969 68.05224609 C111.42758798 71.24783952 111.42828836 74.67676743 111.33203125 78.734375 C111.01613982 81.88090142 110.21946238 83.31594104 108.1328125 85.71875 C106.0534574 87.23019521 103.91325885 88.60794414 101.7421875 89.984375 C94.93515098 94.50881245 87.63988496 99.79717444 83.1328125 106.71875 C82.72256659 108.91185088 82.72256659 108.91185088 84.1328125 110.71875 C89.84729357 115.89527814 96.72449877 115.89897758 104.1328125 116.71875 C119.42058753 118.41043002 119.42058753 118.41043002 124.1328125 122.71875 C127.33697896 129.12708292 124.64800169 138.19608389 123.1953125 144.84375 C121.83743992 151.4096212 120.82384252 157.76635295 120.5703125 164.46875 C119.96414624 178.01105529 119.96414624 178.01105529 115.34375 182.4296875 C109.97754731 185.55839225 102.70393656 183.92822122 96.8828125 182.71875 C89.53830133 181.23501037 78.75439841 179.53669574 72.1328125 183.71875 C72.57708081 189.27210392 73.82243169 192.2758705 77.1328125 196.71875 C78.25875541 198.36393842 79.38367091 200.00983023 80.5078125 201.65625 C83.12492537 205.40142877 85.87819056 208.88283789 88.96875 212.24609375 C91.71037497 215.71452534 91.4232347 219.50762811 91.1328125 223.71875 C89.20201181 227.68521916 87.11019551 229.75710367 83.4453125 232.15625 C80.2273997 234.30930922 77.07525358 236.48090924 74.0078125 238.84375 C71.40098662 240.82915072 68.75480442 242.59555485 65.9453125 244.28125 C62.5066604 246.37521519 59.94977208 248.82956069 57.1328125 251.71875 C52.7188486 255.79747613 49.38221835 257.2746981 43.34375 257.1875 C37.52000122 255.95278294 34.9540462 252.46283606 31.8203125 247.65625 C31.04321822 246.49028056 30.26322245 245.32624015 29.48046875 244.1640625 C29.09133301 243.5855957 28.70219727 243.00712891 28.30126953 242.41113281 C23.04103478 234.75159768 23.04103478 234.75159768 16.1328125 228.71875 C13.00759417 228.55175768 13.00759417 228.55175768 10.1328125 228.71875 C7.10847389 235.86244637 5.39799147 243.41880341 4.671875 251.13671875 C4.56456055 252.26158691 4.56456055 252.26158691 4.45507812 253.40917969 C4.32657027 254.8730241 4.2175015 256.33874625 4.13085938 257.80566406 C3.64752323 263.42245492 1.98683378 265.85883573 -1.8671875 269.71875 C-9.25612876 273.41322063 -20.42494473 269.63580549 -28.2421875 268.28125 C-36.38020017 266.88507949 -44.46014634 265.50775843 -52.71118164 264.97558594 C-55.71000791 264.61834834 -57.59893922 263.69432108 -59.8671875 261.71875 C-62.61928966 258.18033293 -62.0925054 253.99349374 -61.8671875 249.71875 C-61.33956152 245.53165787 -60.5923885 241.38135725 -59.84570312 237.22851562 C-58.92111221 231.6422663 -58.46545173 226.2733461 -59.8671875 220.71875 C-61.74151255 218.16968374 -61.74151255 218.16968374 -63.8671875 216.71875 C-69.30896508 219.29699025 -74.2931021 221.74651794 -78.8671875 225.71875 C-80.86032791 227.26061334 -82.87320951 228.76893154 -84.90625 230.2578125 C-86.54315039 231.4773359 -88.12011543 232.77677803 -89.6796875 234.09375 C-94.48574647 236.54389771 -98.61903122 237.15470387 -103.8671875 235.71875 C-109.63742874 231.27386104 -113.5921873 224.94604483 -117.48046875 218.86328125 C-121.55170312 212.5672033 -126.37929677 206.80091159 -131.1328125 201.015625 C-134.26607701 196.8661666 -135.67803359 193.3769746 -135.56640625 188.15625 C-133.44878394 180.77414766 -124.17339385 176.12145284 -118.04296875 172.1796875 C-113.13617805 168.88500218 -108.76442829 165.77492681 -106.3671875 160.28125 C-106.2021875 159.435625 -106.0371875 158.59 -105.8671875 157.71875 C-114.22892795 150.79045077 -126.36217549 150.35327255 -136.77441406 148.80834961 C-144.36319663 147.63500707 -144.36319663 147.63500707 -146.8671875 145.71875 C-151.03135268 138.0479194 -147.66195387 128.47796247 -146.02685547 120.42138672 C-144.67176005 113.38905073 -144.10768687 106.30642158 -143.60180664 99.16870117 C-142.93764439 90.47983176 -142.93764439 90.47983176 -140.8671875 86.71875 C-135.9835268 82.75902511 -130.9793256 83.70753619 -125.0859375 84.296875 C-123.06232759 84.56210542 -121.04388598 84.87567764 -119.0390625 85.2578125 C-114.88136518 85.86200989 -110.81218776 85.86404839 -106.6171875 85.84375 C-105.8025 85.84761719 -104.9878125 85.85148437 -104.1484375 85.85546875 C-99.87300307 85.96778864 -99.87300307 85.96778864 -95.8671875 84.71875 C-95.37389562 78.79177336 -96.4749589 76.0231242 -99.9921875 71.28125 C-100.40380127 70.71631836 -100.81541504 70.15138672 -101.23950195 69.56933594 C-102.43203624 67.94012194 -103.64906016 66.32891833 -104.8671875 64.71875 C-105.71990234 63.57986328 -105.71990234 63.57986328 -106.58984375 62.41796875 C-107.54330879 61.1492246 -108.50893103 59.88949667 -109.48828125 58.640625 C-110.8671875 56.71875 -110.8671875 56.71875 -112.21484375 54.234375 C-114.63564971 49.63082817 -114.63564971 49.63082817 -118.90625 47.08203125 C-121.6353457 47.02270308 -124.1634673 47.33350489 -126.8671875 47.71875 C-128.66929687 47.86957031 -128.66929687 47.86957031 -130.5078125 48.0234375 C-143.03951079 49.14949676 -154.33169649 52.76364218 -165.8671875 57.71875 C-167.36958984 58.18667969 -167.36958984 58.18667969 -168.90234375 58.6640625 C-172.37929424 59.90092236 -175.19304118 61.61395102 -178.3046875 63.59375 C-181.73956419 65.76564746 -185.15711213 67.92520626 -188.7421875 69.84375 C-191.99028345 71.79260757 -194.6151021 73.98455663 -197.38671875 76.546875 C-198.8671875 77.71875 -198.8671875 77.71875 -200.8671875 77.71875 C-201.0734375 78.255 -201.2796875 78.79125 -201.4921875 79.34375 C-203.39969176 82.63853009 -205.91538134 85.31238628 -208.8671875 87.71875 C-209.5271875 87.71875 -210.1871875 87.71875 -210.8671875 87.71875 C-211.0528125 88.37875 -211.2384375 89.03875 -211.4296875 89.71875 C-212.7684017 92.51258834 -213.91991464 93.99070265 -215.9921875 96.21875 C-229.39010477 111.08683211 -237.42904815 131.35013597 -242.5546875 150.40625 C-242.76955811 151.20264893 -242.98442871 151.99904785 -243.20581055 152.81958008 C-247.77467011 170.39169527 -247.01578135 189.14387276 -242.8671875 206.71875 C-242.70621582 207.43450195 -242.54524414 208.15025391 -242.37939453 208.88769531 C-238.52376269 225.68062015 -231.75479627 241.27199195 -220.8671875 254.71875 C-220.00673828 255.86150391 -220.00673828 255.86150391 -219.12890625 257.02734375 C-210.07927176 269.0311118 -199.85967436 278.30115074 -187.8046875 287.21875 C-172.30544683 298.80302703 -162.65710516 310.39474248 -158.8671875 329.71875 C-158.59919817 332.64702774 -158.56685204 335.55682247 -158.55859375 338.49609375 C-158.53343953 340.16081088 -158.50804142 341.82552434 -158.48242188 343.49023438 C-158.45372923 346.07477912 -158.42966563 348.65926047 -158.41088867 351.24389648 C-158.38905937 353.76578054 -158.34962328 356.28695913 -158.30859375 358.80859375 C-158.30842003 359.94807716 -158.30842003 359.94807716 -158.3082428 361.11058044 C-158.20618251 366.72890469 -156.99082486 371.52137904 -154.8671875 376.71875 C-154.60736588 377.444608 -154.34754425 378.170466 -154.07984924 378.9183197 C-152.99500776 380.92262083 -152.99500776 380.92262083 -150.67807007 381.45570374 C-147.40564031 381.76194222 -144.18037206 381.8850269 -140.89306641 381.92749023 C-140.21107681 381.93727402 -139.52908722 381.9470578 -138.82643127 381.95713806 C-136.58222361 381.98691468 -134.33807451 382.00842388 -132.09375 382.02734375 C-131.32376049 382.03391558 -130.55377098 382.0404874 -129.76044846 382.04725838 C-125.68699733 382.07976913 -121.61357151 382.10424382 -117.54003906 382.1237793 C-114.17799812 382.14160491 -110.81679394 382.17645532 -107.45507812 382.22631836 C-103.38378768 382.28661902 -99.31327377 382.31726656 -95.24155807 382.32695198 C-93.69540728 382.33548731 -92.14927621 382.35425826 -90.60338211 382.3836956 C-80.99593226 382.85851096 -80.99593226 382.85851096 -72.55224609 378.99243164 C-71.05836537 377.37965574 -71.05836537 377.37965574 -69.8671875 375.71875 C-68.91960571 374.58083008 -68.91960571 374.58083008 -67.95288086 373.41992188 C-66.35502202 369.44449795 -66.46540886 365.74580467 -66.49609375 361.5 C-66.47869256 359.66145665 -66.46110841 357.82291502 -66.44335938 355.984375 C-66.43335402 353.11259477 -66.42967419 350.24093744 -66.43139648 347.36914062 C-66.40644712 328.14149793 -63.66563901 312.60698158 -49.8046875 298.09375 C-45.64376068 294.14488143 -41.29631296 290.5598066 -36.6796875 287.15625 C-36.1220874 286.73843262 -35.5644873 286.32061523 -34.98999023 285.89013672 C-30.12628621 282.45852729 -25.01760476 280.37631334 -18.9921875 281.03125 C-16.02720688 283.38579344 -15.7126091 285.71911752 -14.93359375 289.33203125 C-14.84410784 292.54826024 -15.17218148 293.93019172 -16.8671875 296.71875 C-19.591384 298.98512425 -22.53798838 300.89212045 -25.4921875 302.84375 C-33.01813531 308.01783912 -38.21239166 312.7668071 -42.8671875 320.71875 C-43.5271875 321.70875 -44.1871875 322.69875 -44.8671875 323.71875 C-48.31713488 333.74801576 -47.24879851 345.39283982 -47.32348633 355.85107422 C-47.52022825 378.99743715 -47.52022825 378.99743715 -54.3046875 388.09375 C-54.88089844 388.88523437 -55.45710938 389.67671875 -56.05078125 390.4921875 C-57.8671875 392.71875 -57.8671875 392.71875 -60.02734375 394.8203125 C-63.67619704 398.58537131 -63.04874668 403.15970493 -63.11328125 408.0859375 C-63.14626814 409.79427502 -63.17947883 411.50260824 -63.21289062 413.2109375 C-63.2599005 415.88733411 -63.30424148 418.56371986 -63.34399414 421.24023438 C-63.83057272 452.49780919 -63.83057272 452.49780919 -73.5703125 462.4609375 C-87.87080708 475.40868259 -107.64911361 473.12964769 -125.8046875 472.53125 C-127.12412354 472.50442139 -127.12412354 472.50442139 -128.47021484 472.47705078 C-137.45519514 472.07607388 -146.69272174 468.45680797 -152.8671875 461.71875 C-158.90524446 451.88500927 -160.97509002 443.31697949 -161.1484375 431.90234375 C-161.16684692 430.96826187 -161.18525635 430.03417999 -161.20422363 429.0717926 C-161.28251016 425.0939521 -161.35057532 421.11595256 -161.41943359 417.13793945 C-161.4713094 414.22599344 -161.52849043 411.31418433 -161.5859375 408.40234375 C-161.60630066 407.05842812 -161.60630066 407.05842812 -161.6270752 405.68736267 C-161.70866475 401.58215464 -161.84768281 397.72298883 -162.8671875 393.71875 C-163.46402344 393.63496094 -164.06085938 393.55117188 -164.67578125 393.46484375 C-167.53470922 392.49148325 -168.27976357 391.28473458 -169.9296875 388.78125 C-170.41566406 388.07097656 -170.90164062 387.36070312 -171.40234375 386.62890625 C-175.48405729 378.51990202 -176.35481253 370.57099156 -176.5546875 361.59375 C-176.58884766 360.541875 -176.62300781 359.49 -176.65820312 358.40625 C-176.73973382 355.84385687 -176.80918478 353.28176503 -176.8671875 350.71875 C-179.58423806 352.85325036 -182.10751258 354.95907508 -184.5546875 357.40625 C-187.6226969 360.4742594 -188.3951745 360.65881184 -192.8046875 361.21875 C-199.33771726 361.14546281 -203.75005899 357.42080666 -208.8671875 353.71875 C-210.76283835 352.40598645 -212.65866137 351.09347147 -214.5546875 349.78125 C-215.99390059 348.76283327 -217.43207684 347.7429396 -218.8671875 346.71875 C-218.97675781 347.60175781 -219.08632812 348.48476563 -219.19921875 349.39453125 C-222.00415378 370.62538094 -222.00415378 370.62538094 -227.8671875 375.71875 C-231.04633467 377.30832359 -234.48703132 376.92408722 -237.98046875 376.95703125 C-238.78703415 376.965103 -239.59359955 376.97317474 -240.42460632 376.98149109 C-242.13355357 376.99533143 -243.84252846 377.00605382 -245.55151367 377.01391602 C-248.1592278 377.03111506 -250.76566937 377.07499794 -253.37304688 377.11914062 C-255.03384485 377.12926897 -256.6946536 377.13778463 -258.35546875 377.14453125 C-259.5213427 377.17079338 -259.5213427 377.17079338 -260.71076965 377.19758606 C-264.41949119 377.18280257 -266.63544204 376.86149079 -269.82055664 374.8996582 C-272.5588753 371.98168128 -273.10713391 369.47682295 -273.9921875 365.59375 C-274.3112031 364.25620043 -274.63152123 362.91896087 -274.953125 361.58203125 C-275.25476563 360.30714844 -275.55640625 359.03226562 -275.8671875 357.71875 C-276.82147728 354.37057944 -277.84295926 351.04596372 -278.8671875 347.71875 C-279.60038208 348.20287354 -279.60038208 348.20287354 -280.34838867 348.69677734 C-282.58080309 350.16707799 -284.81767538 351.63045507 -287.0546875 353.09375 C-287.82361328 353.60164063 -288.59253906 354.10953125 -289.38476562 354.6328125 C-300.0691309 361.60287053 -300.0691309 361.60287053 -306.6171875 360.5859375 C-313.77782417 357.82610878 -319.19533782 350.59193245 -323.8671875 344.71875 C-324.6509375 343.935 -325.4346875 343.15125 -326.2421875 342.34375 C-330.60885417 337.97708333 -330.60885417 337.97708333 -332.6796875 335.78125 C-333.28425781 335.15347656 -333.88882813 334.52570313 -334.51171875 333.87890625 C-336.4184882 330.84016415 -336.40946024 329.2712769 -335.8671875 325.71875 C-334.53375603 322.85961116 -332.86149983 320.28006813 -331.1171875 317.65625 C-330.45203125 316.61500977 -330.45203125 316.61500977 -329.7734375 315.55273438 C-327.32913451 311.76765931 -324.75755328 308.18313703 -321.8671875 304.71875 C-325.20125622 303.52122848 -328.49628425 302.54145993 -331.9609375 301.82421875 C-332.68152344 301.67275391 -333.40210938 301.52128906 -334.14453125 301.36523438 C-335.6240238 301.05971526 -337.10587364 300.76539333 -338.58984375 300.48242188 C-343.93606249 299.32997222 -346.99544147 297.62037061 -350.8671875 293.71875 C-352.05644742 290.15097023 -352.04815332 286.87929511 -352.0703125 283.1640625 C-352.07601257 282.42550018 -352.08171265 281.68693787 -352.08758545 280.92599487 C-352.09702395 279.36425199 -352.10356487 277.8024893 -352.10742188 276.24072266 C-352.11712396 273.85934474 -352.14815528 271.47883156 -352.1796875 269.09765625 C-352.18621844 267.57813011 -352.19146856 266.05859781 -352.1953125 264.5390625 C-352.2076593 263.83057159 -352.2200061 263.12208069 -352.23272705 262.39212036 C-352.21291494 257.96477803 -351.48612436 255.28710808 -348.8671875 251.71875 C-348.47917969 251.16574219 -348.09117187 250.61273438 -347.69140625 250.04296875 C-344.70245194 247.87325673 -341.22543074 247.31478913 -337.6796875 246.53125 C-336.94943359 246.35400391 -336.21917969 246.17675781 -335.46679688 245.99414062 C-330.49522731 244.85362998 -325.96463633 244.55133662 -320.8671875 244.71875 C-321.54265625 243.70554687 -322.218125 242.69234375 -322.9140625 241.6484375 C-328.2890625 233.5859375 -328.2890625 233.5859375 -329.60131836 231.60229492 C-330.75702385 229.88266757 -331.96021196 228.19519639 -333.16796875 226.51171875 C-334.86967624 223.71465932 -335.3909139 222.36962064 -335.3046875 219.15625 C-335.30339844 218.43308594 -335.30210937 217.70992187 -335.30078125 216.96484375 C-334.28576881 211.70689642 -330.56651602 208.1618411 -326.90234375 204.48828125 C-326.4277623 204.01178635 -325.95318085 203.53529144 -325.46421814 203.0443573 C-324.46566168 202.0444471 -323.46460413 201.04702895 -322.46118164 200.05200195 C-320.93072989 198.53228508 -319.41127349 197.00215857 -317.89257812 195.47070312 C-316.91730747 194.49675374 -315.94141676 193.52342477 -314.96484375 192.55078125 C-314.08320557 191.67139893 -313.20156738 190.7920166 -312.29321289 189.88598633 C-308.74737991 186.71839456 -306.96277083 185.73731921 -302.1796875 185.65625 C-297.54654432 186.37430171 -294.82421866 188.83203133 -291.3203125 191.796875 C-287.1845891 195.03696404 -282.53385629 197.3374405 -277.8671875 199.71875 C-277.73256104 198.82736328 -277.73256104 198.82736328 -277.59521484 197.91796875 C-277.16789998 195.18059934 -276.70534316 192.45027433 -276.2421875 189.71875 C-276.10167969 188.78417969 -275.96117187 187.84960938 -275.81640625 186.88671875 C-274.67333733 180.34836451 -272.72277081 175.39135233 -267.8671875 170.71875 C-266.54162404 170.03676485 -265.20942591 169.36730091 -263.8671875 168.71875 C-263.0469041 166.93022612 -263.0469041 166.93022612 -262.8046875 164.71875 C-262.64871094 163.80867187 -262.49273437 162.89859375 -262.33203125 161.9609375 C-262.00182841 159.65784204 -261.70586895 157.34972232 -261.43359375 155.0390625 C-257.93101208 127.79930187 -244.99524843 95.47655172 -223.8671875 76.71875 C-223.2071875 76.71875 -222.5471875 76.71875 -221.8671875 76.71875 C-221.6609375 76.1825 -221.4546875 75.64625 -221.2421875 75.09375 C-219.33468324 71.79896991 -216.81899366 69.12511372 -213.8671875 66.71875 C-213.2071875 66.71875 -212.5471875 66.71875 -211.8671875 66.71875 C-211.61227539 66.1196582 -211.35736328 65.52056641 -211.09472656 64.90332031 C-209.72666618 62.46867347 -208.47833866 61.39209256 -206.2265625 59.765625 C-205.49228027 59.23251709 -204.75799805 58.69940918 -204.00146484 58.15014648 C-203.21465332 57.59528564 -202.4278418 57.0404248 -201.6171875 56.46875 C-200.81104004 55.89390869 -200.00489258 55.31906738 -199.17431641 54.72680664 C-192.31674318 49.90238667 -185.29324754 45.61246274 -177.8671875 41.71875 C-176.9385791 41.22701294 -176.9385791 41.22701294 -175.99121094 40.7253418 C-171.23895837 38.26705911 -166.445355 36.33251106 -161.3671875 34.65625 C-160.59109131 34.39948486 -159.81499512 34.14271973 -159.01538086 33.87817383 C-145.77976819 29.64207826 -132.15903523 27.73933977 -118.2734375 27.61328125 C-117.14035156 27.59845703 -116.00726563 27.58363281 -114.83984375 27.56835938 C-112.5248659 27.54362114 -110.20959697 27.5384117 -107.89453125 27.55273438 C-97.11409726 27.35037128 -89.6045848 23.43786644 -81.4296875 16.53125 C-80.64722656 15.87769531 -79.86476563 15.22414063 -79.05859375 14.55078125 C-77.64805024 13.37155682 -76.23786513 12.19190349 -74.828125 11.01171875 C-72.23395651 9.3012212 -69.88543857 9.17981199 -66.8203125 9.3046875 C-63.43929391 10.02146344 -61.9750339 12.09818421 -59.8671875 14.71875 C-59.11953125 15.59789063 -58.371875 16.47703125 -57.6015625 17.3828125 C-55.60606903 19.77121823 -53.73100927 22.22173781 -51.89453125 24.734375 C-51.38728516 25.42789063 -50.88003906 26.12140625 -50.35742188 26.8359375 C-49.31347162 28.26989182 -48.27447909 29.70746734 -47.24023438 31.1484375 C-46.73427734 31.83679687 -46.22832031 32.52515625 -45.70703125 33.234375 C-45.25706787 33.85602539 -44.80710449 34.47767578 -44.34350586 35.11816406 C-42.64942333 36.95484424 -41.18338507 37.80493434 -38.8671875 38.71875 C-36.26070245 38.88085219 -36.26070245 38.88085219 -33.8671875 37.71875 C-31.07613147 33.12791981 -30.07153928 28.74398362 -29.2421875 23.53125 C-29.11521484 22.78456055 -28.98824219 22.03787109 -28.85742188 21.26855469 C-28.15511875 17.00509672 -27.6606557 12.78273257 -27.3671875 8.46875 C-27.05520719 4.51499955 -26.61929398 1.76572503 -23.8671875 -1.28125 C-16.36524642 -5.05826895 -7.51814275 -2.94829128 0 0 Z M-9.8671875 15.71875 C-9.96741211 16.36312012 -10.06763672 17.00749023 -10.17089844 17.67138672 C-10.64090455 20.64755919 -11.12893624 23.62051843 -11.6171875 26.59375 C-11.77445312 27.60695313 -11.93171875 28.62015625 -12.09375 29.6640625 C-13.5880716 38.62999211 -15.3959454 47.84848835 -22.8671875 53.71875 C-29.9625045 58.01162671 -37.82125258 57.7503853 -45.8671875 56.71875 C-56.55173733 53.40285522 -63.81390387 40.33179985 -69.8671875 31.71875 C-77.64010595 35.27677605 -84.38981171 41.21298058 -90.8671875 46.71875 C-91.8571875 47.37875 -92.8471875 48.03875 -93.8671875 48.71875 C-93.43148437 49.26402344 -92.99578125 49.80929688 -92.546875 50.37109375 C-88.37174303 55.65778683 -84.49622556 61.04444483 -80.8671875 66.71875 C-80.46242188 67.30269531 -80.05765625 67.88664062 -79.640625 68.48828125 C-75.93064005 74.18671137 -75.08424073 79.97399801 -76.4609375 86.55859375 C-78.47779098 92.89603421 -81.33319736 97.88351766 -86.8671875 101.71875 C-91.87324843 104.27567346 -95.70169069 105.10580369 -101.3046875 105.03125 C-102.32272461 105.01868164 -102.32272461 105.01868164 -103.36132812 105.00585938 C-110.94317667 104.83180408 -118.36567678 103.79039439 -125.8671875 102.71875 C-127.1871875 112.28875 -128.5071875 121.85875 -129.8671875 131.71875 C-121.34417307 133.19801429 -121.34417307 133.19801429 -112.81640625 134.64941406 C-97.2098705 137.44831074 -97.2098705 137.44831074 -91.9921875 144.03125 C-87.77605101 150.74583775 -86.99138088 157.9487733 -87.8671875 165.71875 C-91.25149499 177.79944254 -104.08961974 185.20037149 -113.8671875 191.71875 C-113.53480761 194.71016903 -112.86148186 195.72437413 -110.6796875 197.875 C-107.40066282 201.19045829 -104.76504078 204.74978248 -102.0546875 208.53125 C-101.30155273 209.57055664 -101.30155273 209.57055664 -100.53320312 210.63085938 C-99.3071887 212.32392691 -98.0866226 214.02093756 -96.8671875 215.71875 C-91.00051825 211.92343448 -91.00051825 211.92343448 -85.4296875 207.71875 C-76.72355543 200.92372009 -69.02545214 197.34890345 -57.8671875 198.71875 C-50.98600585 201.10035949 -46.1519931 204.44723015 -42.671875 210.88671875 C-37.94184931 221.65556365 -41.18111066 236.39794839 -42.8671875 247.71875 C-38.78467868 248.39053263 -34.70105633 249.05528942 -30.6171875 249.71875 C-29.45832031 249.90953125 -28.29945313 250.1003125 -27.10546875 250.296875 C-25.99042969 250.47734375 -24.87539063 250.6578125 -23.7265625 250.84375 C-22.18693848 251.09511719 -22.18693848 251.09511719 -20.61621094 251.3515625 C-17.66862903 251.80701291 -17.66862903 251.80701291 -13.8671875 251.71875 C-13.73666992 250.97826416 -13.60615234 250.23777832 -13.47167969 249.47485352 C-12.86539903 246.07474454 -12.24143478 242.67810435 -11.6171875 239.28125 C-11.41222656 238.11658203 -11.20726562 236.95191406 -10.99609375 235.75195312 C-7.91794573 219.19524786 -7.91794573 219.19524786 -2.2109375 214.5625 C-1.2725 214.1190625 -0.3340625 213.675625 0.6328125 213.21875 C1.57125 212.7546875 2.5096875 212.290625 3.4765625 211.8125 C10.40269522 208.960563 16.42991208 208.83515087 23.3828125 211.59375 C24.97633143 212.27886164 26.56057851 212.98611035 28.1328125 213.71875 C29.20789063 214.15574219 29.20789063 214.15574219 30.3046875 214.6015625 C32.61104449 216.01100288 33.03985965 217.27515623 34.1328125 219.71875 C35.22667429 221.20058248 36.35415726 222.65797819 37.5078125 224.09375 C39.60981218 226.73651308 41.59704618 229.353218 43.3828125 232.21875 C44.95254722 234.98968764 44.95254722 234.98968764 48.1328125 235.71875 C50.4950499 234.10690568 52.63223158 232.48022825 54.8203125 230.65625 C56.07631355 229.63739259 57.33282149 228.61915972 58.58984375 227.6015625 C59.49984131 226.8576123 59.49984131 226.8576123 60.42822266 226.09863281 C63.58953655 223.53951707 66.86397404 221.13769046 70.1328125 218.71875 C68.92625 217.171875 68.92625 217.171875 67.6953125 215.59375 C64.75861897 211.67582235 62.04477275 207.63808975 59.3828125 203.53125 C58.99424072 202.93747559 58.60566895 202.34370117 58.20532227 201.73193359 C53.47677036 194.3663245 52.01328235 188.45330204 53.1328125 179.71875 C54.44046273 176.4326104 56.1808513 173.65260683 58.1328125 170.71875 C58.42542969 170.01105469 58.71804688 169.30335938 59.01953125 168.57421875 C60.51505224 166.08168377 61.8135541 165.81436856 64.5703125 165.03125 C65.35277344 164.80050781 66.13523437 164.56976563 66.94140625 164.33203125 C67.66457031 164.12964844 68.38773438 163.92726562 69.1328125 163.71875 C70.1228125 163.38875 71.1128125 163.05875 72.1328125 162.71875 C79.64539733 162.20598627 86.8307107 162.96224113 94.22265625 164.28125 C96.92130221 164.68695248 99.41161436 164.75084839 102.1328125 164.71875 C102.83503482 160.82542179 103.51698978 156.92880728 104.1953125 153.03125 C104.39447266 151.92845703 104.59363281 150.82566406 104.79882812 149.68945312 C104.98251953 148.62275391 105.16621094 147.55605469 105.35546875 146.45703125 C105.52828369 145.47774658 105.70109863 144.49846191 105.87915039 143.48950195 C106.13913879 140.64964791 105.83714771 138.46807093 105.1328125 135.71875 C104.41738281 135.58823242 103.70195312 135.45771484 102.96484375 135.32324219 C99.68505384 134.717563 96.40905565 134.09331809 93.1328125 133.46875 C92.00746094 133.26378906 90.88210938 133.05882812 89.72265625 132.84765625 C80.30826522 131.03084395 72.92069486 129.02613955 67.3203125 120.79296875 C63.69859662 114.4668795 63.26179994 107.81250901 64.7578125 100.78125 C68.07156478 93.40061993 71.7881587 88.41338734 78.7421875 84.203125 C82.77773202 81.69739474 86.42595078 78.68073407 90.1328125 75.71875 C88.84421462 72.02605159 87.36407659 69.56543169 84.6953125 66.71875 C82.08990609 63.85011697 80.07766113 61.078034 78.1328125 57.71875 C76.52093581 55.6659344 74.83594232 53.69806303 73.1328125 51.71875 C72.51792969 52.12867188 71.90304687 52.53859375 71.26953125 52.9609375 C66.20117188 56.33984375 66.20117188 56.33984375 61.1328125 59.71875 C61.1328125 60.37875 61.1328125 61.03875 61.1328125 61.71875 C60.5759375 61.986875 60.0190625 62.255 59.4453125 62.53125 C57.06312739 63.71357339 57.06312739 63.71357339 54.6328125 65.28125 C48.01699466 69.08534526 37.98757668 68.9889371 30.69921875 67.08203125 C28.8828125 66.28125 28.8828125 66.28125 26.1328125 64.71875 C25.1428125 64.38875 24.1528125 64.05875 23.1328125 63.71875 C22.40377164 62.07840807 21.74626007 60.40573082 21.1328125 58.71875 C20.13866657 57.04858484 19.13924 55.38154327 18.1328125 53.71875 C15.4173379 45.57232621 17.32611873 36.21752489 18.6953125 27.9453125 C19.11857279 24.82376786 19.20883259 21.86408134 19.1328125 18.71875 C18.57408447 18.66340088 18.01535645 18.60805176 17.43969727 18.55102539 C14.85818129 18.29497865 12.27674686 18.0381182 9.6953125 17.78125 C8.81681641 17.69423828 7.93832031 17.60722656 7.03320312 17.51757812 C1.395091 16.9558474 -4.23693411 16.35451615 -9.8671875 15.71875 Z M-304.8671875 206.71875 C-306.24807983 208.34623024 -307.56932357 210.02431653 -308.8671875 211.71875 C-309.94349157 212.99554208 -311.02703487 214.26626157 -312.1171875 215.53125 C-312.63796875 216.13582031 -313.15875 216.74039063 -313.6953125 217.36328125 C-314.08203125 217.81058594 -314.46875 218.25789062 -314.8671875 218.71875 C-313.88580582 221.58111323 -312.90688182 223.66971098 -310.9921875 226.03515625 C-306.04711935 232.28012283 -301.83927556 239.66001243 -302.47265625 247.8203125 C-303.05683921 250.63133149 -304.07919259 252.48375637 -305.8671875 254.71875 C-306.3828125 255.42 -306.8984375 256.12125 -307.4296875 256.84375 C-311.80353121 260.20824516 -317.29490442 261.11610082 -322.6015625 262.359375 C-327.04025013 263.48874522 -329.31116434 264.09491914 -332.4296875 267.59375 C-334.27438317 271.60395798 -335.35209028 274.02159027 -334.1171875 278.34375 C-332.8083513 280.83053878 -332.10166112 282.03261346 -329.8671875 283.71875 C-326.55510679 284.46640617 -323.29460472 284.98597565 -319.93554688 285.44726562 C-313.19255756 286.5132761 -308.38225248 289.5347865 -303.8671875 294.71875 C-301.92054972 300.55866334 -302.43753768 305.9638086 -304.7421875 311.5703125 C-306.582579 315.08494905 -308.88877837 318.23823187 -311.24609375 321.421875 C-312.69044771 323.46833314 -313.82095267 325.4493053 -314.8671875 327.71875 C-313.32093723 329.56824547 -311.75773644 331.39671902 -310.1796875 333.21875 C-309.74462891 333.74339844 -309.30957031 334.26804687 -308.86132812 334.80859375 C-306.80329318 337.15627806 -305.44771575 338.60031147 -302.33984375 339.234375 C-299.41687911 338.62484683 -297.4995397 337.5869134 -294.9921875 335.96875 C-294.115625 335.42476562 -293.2390625 334.88078125 -292.3359375 334.3203125 C-290.89861102 333.38786969 -289.473901 332.43413477 -288.0859375 331.4296875 C-282.7905112 327.82152939 -277.01556839 327.68691354 -270.8671875 328.71875 C-268.32507727 330.12886489 -266.89877263 331.58023933 -264.8671875 333.71875 C-264.2071875 333.71875 -263.5471875 333.71875 -262.8671875 333.71875 C-261.04775264 339.30701422 -260.27687989 344.79363306 -259.625 350.6328125 C-258.7388441 354.24138548 -257.4512039 356.0775229 -254.8671875 358.71875 C-252.19074793 359.61089652 -250.61334372 359.85415211 -247.8671875 359.84375 C-247.1865625 359.84632813 -246.5059375 359.84890625 -245.8046875 359.8515625 C-243.64843969 359.78506126 -243.64843969 359.78506126 -240.8671875 358.71875 C-238.62425012 355.21976768 -237.64624804 351.94161726 -236.9296875 347.90625 C-235.66846098 340.99556255 -233.52567396 334.24553917 -227.8671875 329.71875 C-223.50499919 327.53765584 -218.57060832 327.9838405 -213.8671875 328.71875 C-208.87305983 330.93597047 -204.43130258 333.72942039 -199.8671875 336.71875 C-198.24357864 337.72100708 -196.61886273 338.72147738 -194.9921875 339.71875 C-193.9609375 340.37875 -192.9296875 341.03875 -191.8671875 341.71875 C-188.95546961 338.04894796 -188.95546961 338.04894796 -187.8671875 333.71875 C-187.2896875 333.5125 -186.7121875 333.30625 -186.1171875 333.09375 C-182.96135572 331.16518613 -181.63404595 328.93695647 -179.8671875 325.71875 C-179.16926885 322.22915677 -179.77400186 320.89766642 -181.4296875 317.71875 C-183.84898235 314.74115633 -186.05626905 313.0246291 -189.20703125 310.9375 C-191.54172219 309.22356218 -193.07209282 306.97709492 -194.8671875 304.71875 C-196.84203955 303.3484445 -198.84105467 302.01202628 -200.8671875 300.71875 C-202.7421875 298.96875 -202.7421875 298.96875 -203.8671875 297.71875 C-207.81765715 299.29893786 -210.11203341 301.89546604 -212.9921875 304.96875 C-217.79208368 309.94125768 -222.70267704 313.52719494 -228.8671875 316.71875 C-229.8778125 317.29625 -230.8884375 317.87375 -231.9296875 318.46875 C-242.91472003 323.14323193 -253.7073848 322.55750277 -264.8671875 318.71875 C-278.06583521 313.10230417 -287.22579419 305.17046658 -292.75 291.8125 C-297.56947073 278.46627337 -297.21627222 264.60933453 -291.3046875 251.65625 C-285.828995 241.35295421 -278.18387343 235.71202599 -267.8671875 230.71875 C-265.63799167 229.59380779 -263.40882459 228.4688086 -261.1796875 227.34375 C-259.4265625 226.4775 -257.6734375 225.61125 -255.8671875 224.71875 C-257.1871875 218.77875 -258.5071875 212.83875 -259.8671875 206.71875 C-262.76941391 210.23452645 -262.76941391 210.23452645 -263.6796875 212.71875 C-265.55271913 215.87332958 -267.61224975 217.06169078 -270.8671875 218.71875 C-280.79463488 221.08052176 -290.43827042 214.26989909 -298.5546875 209.34375 C-299.34230469 208.84101563 -300.12992188 208.33828125 -300.94140625 207.8203125 C-302.78676718 206.55324396 -302.78676718 206.55324396 -304.8671875 206.71875 Z M-269.7421875 251.84375 C-275.5119829 258.19363255 -279.09317625 264.13019214 -279.3671875 272.84375 C-278.89612639 282.30120771 -275.42906252 288.90074232 -268.8671875 295.71875 C-259.73063339 303.23883685 -252.71314128 304.85729199 -240.8671875 303.71875 C-233.52483765 301.35940825 -225.87333419 296.46594443 -221.8671875 289.71875 C-220.77102654 287.40680807 -220.77102654 287.40680807 -220.8671875 284.71875 C-222.92125873 280.37359932 -225.35717095 276.95626909 -228.51171875 273.31640625 C-233.7919985 267.09267593 -238.47975494 260.3944536 -242.2421875 253.15625 C-244.56447579 248.91305658 -246.85511217 246.4225399 -250.8671875 243.71875 C-258.14541041 243.71875 -264.53071161 246.90334081 -269.7421875 251.84375 Z M-141.8671875 401.71875 C-141.8671875 405.67875 -141.8671875 409.63875 -141.8671875 413.71875 C-122.0671875 413.71875 -102.2671875 413.71875 -81.8671875 413.71875 C-81.8671875 409.75875 -81.8671875 405.79875 -81.8671875 401.71875 C-101.6671875 401.71875 -121.4671875 401.71875 -141.8671875 401.71875 Z M-142.8671875 432.71875 C-142.8671875 439.88042917 -142.33214099 444.37345597 -138.1171875 450.09375 C-133.0612686 453.74524699 -127.11347476 454.02764921 -121.0625 454.01953125 C-119.97737625 454.02595894 -119.97737625 454.02595894 -118.87033081 454.03251648 C-117.34927409 454.03822441 -115.82819008 454.03878634 -114.30712891 454.03442383 C-112.00505017 454.03126763 -109.70426382 454.05475258 -107.40234375 454.08007812 C-99.76527216 454.11369837 -92.92005217 453.99716951 -85.8671875 450.71875 C-82.92836874 446.67787421 -82.22635252 442.657269 -81.8671875 437.71875 C-82.3621875 435.24375 -82.3621875 435.24375 -82.8671875 432.71875 C-102.6671875 432.71875 -122.4671875 432.71875 -142.8671875 432.71875 Z " fill="#696969" transform="translate(366.8671875,21.28125)"/>
<path d="M0 0 C1.02351563 0.43570313 2.04703125 0.87140625 3.1015625 1.3203125 C17.51971173 8.00011328 27.20218825 18.03741254 34.375 32.0625 C34.87604248 33.03509766 34.87604248 33.03509766 35.38720703 34.02734375 C41.85270813 47.28444946 42.43624094 65.17103142 38.375 79.25 C35.12928303 87.89385676 30.94948104 95.50204662 24.61328125 102.24609375 C22.92248948 104.01107981 22.92248948 104.01107981 21.41796875 106.22265625 C20.95003906 106.80917969 20.48210937 107.39570313 20 108 C19.34 108 18.68 108 18 108 C18 108.66 18 109.32 18 110 C2.09800351 122.42734765 -16.78171936 125.63169949 -36.46875 123.37011719 C-44.82327993 122.06565099 -51.78443886 118.2275472 -59 114 C-59.83402344 113.55269531 -60.66804688 113.10539062 -61.52734375 112.64453125 C-66.75853656 109.70261284 -70.29239099 105.66099418 -74 101 C-74.65226562 100.24589844 -75.30453125 99.49179688 -75.9765625 98.71484375 C-78.37652065 95.49482268 -79.981259 92.21000491 -81.625 88.5625 C-81.9240625 87.91990234 -82.223125 87.27730469 -82.53125 86.61523438 C-88.7803834 72.99710074 -90.44282168 56.63344096 -86.1640625 42.09765625 C-81.94437325 30.86875163 -76.75505688 21.36628881 -68 13 C-67.38769531 12.36835937 -66.77539062 11.73671875 -66.14453125 11.0859375 C-49.40137097 -5.12172725 -21.08451704 -9.10082371 0 0 Z M-58 28 C-59.39499354 29.95749094 -60.73508132 31.95604342 -62 34 C-62.68255859 34.94746094 -62.68255859 34.94746094 -63.37890625 35.9140625 C-69.47008437 44.71913186 -71.15115329 55.48264493 -70 66 C-67.80902588 77.73736138 -63.02698985 87.07386257 -54 95 C-53.48566406 95.47953125 -52.97132813 95.9590625 -52.44140625 96.453125 C-43.66284006 103.92906524 -31.81298324 106.92612028 -20.46875 106.40234375 C-7.65705842 104.91630295 2.98735861 100.26234585 11.38916016 90.36328125 C19.67190934 79.63468135 23.53163874 67.58277431 22 54 C20.40721896 46.42816399 18.30821336 39.46232003 14 33 C13.34 33 12.68 33 12 33 C11.690625 31.9171875 11.690625 31.9171875 11.375 30.8125 C7.41990754 22.72253815 -3.65927693 17.5437877 -11.82714844 14.60205078 C-28.71549786 9.92264969 -45.59981165 16.47066457 -58 28 Z " fill="#F28123" transform="translate(379,95)"/>
<path d="M0 0 C1.95703125 2.14453125 1.95703125 2.14453125 3.8125 4.8125 C4.43769531 5.68519531 5.06289062 6.55789062 5.70703125 7.45703125 C7 10 7 10 7.078125 11.99609375 C5.38797819 15.13756228 2.68561461 17.07135581 -0.0625 19.25 C-1.2534245 20.22658415 -2.44222924 21.20575898 -3.62890625 22.1875 C-4.20785645 22.66574219 -4.78680664 23.14398438 -5.38330078 23.63671875 C-10.12351467 27.63390304 -14.34538605 31.8994018 -17.875 37 C-18.926875 38.485 -18.926875 38.485 -20 40 C-20.66 40 -21.32 40 -22 40 C-22.37125 41.258125 -22.7425 42.51625 -23.125 43.8125 C-24.34827469 47.54682136 -25.92020304 50.6884828 -27.9375 54.0546875 C-31.21518023 59.98026014 -32.68565785 65.68375672 -33.875 72.3125 C-34.08060547 73.41263428 -34.28621094 74.51276855 -34.49804688 75.64624023 C-36.9516658 89.44784667 -35.99811367 101.4113274 -33 115 C-32.67515625 116.63001953 -32.67515625 116.63001953 -32.34375 118.29296875 C-30.74227564 125.66165733 -27.86808011 131.56268041 -24 138 C-23.30390625 139.26650391 -23.30390625 139.26650391 -22.59375 140.55859375 C-15.32726646 153.49697138 -4.4506947 163.19508691 8 171 C8.82886719 171.52851563 9.65773437 172.05703125 10.51171875 172.6015625 C14.83583065 175.29006087 18.82376024 177.31913435 23.66015625 178.9609375 C33.13334279 183.16772818 42.65254477 189.86732298 49 198 C49.78117187 198.71929687 50.56234375 199.43859375 51.3671875 200.1796875 C54.42251399 203.45260401 56.2029821 206.68171958 58.125 210.6875 C58.47046875 211.40083496 58.8159375 212.11416992 59.171875 212.84912109 C64.14219503 223.31382639 65.34433277 231.29268573 65 243 C60.38 243 55.76 243 51 243 C48.01797378 236.61985087 45.09003584 230.2968007 42.5 223.75 C39.20467298 215.79067978 35.66349924 209.25749958 28 205 C26.515 204.01 26.515 204.01 25 203 C25 202.34 25 201.68 25 201 C23.73929688 200.62101562 23.73929688 200.62101562 22.453125 200.234375 C18.6875666 198.88831566 15.24977065 197.15949792 11.75 195.25 C10.75939575 194.71330688 10.75939575 194.71330688 9.7487793 194.16577148 C-1.98102762 187.77250479 -13.89968052 180.96228052 -23 171 C-23 170.34 -23 169.68 -23 169 C-23.60457031 168.72800781 -24.20914063 168.45601562 -24.83203125 168.17578125 C-28.38978014 166.24626338 -30.56261285 163.14536435 -33 160 C-33.69480469 159.12601563 -34.38960937 158.25203125 -35.10546875 157.3515625 C-53.78544345 132.33775816 -56.78741571 99.83390407 -53.25 69.625 C-50.96423468 55.7381929 -44.94060883 41.6747195 -37 30 C-36.34 30 -35.68 30 -35 30 C-34.814375 29.34 -34.62875 28.68 -34.4375 28 C-32.71590819 24.40711275 -30.45949981 21.90915823 -27.7890625 18.98046875 C-26.30807435 17.34103427 -24.92129877 15.61704971 -23.5625 13.875 C-20.91722895 10.90713492 -18.20676705 8.75791789 -14.9921875 6.453125 C-13.1432318 5.10447496 -11.41685232 3.68455126 -9.6875 2.1875 C-6.30335308 -0.56703819 -4.08825433 -1.72096039 0 0 Z " fill="#EE662A" transform="translate(198,108)"/>
<path d="M0 0 C4.15118202 1.48641582 7.60984486 3.55627149 11.3125 5.9375 C16.38925597 9.16512865 16.38925597 9.16512865 21.9375 11.4375 C32.0012781 14.7060775 42.59977982 22.7997179 49 31 C50.17175781 32.07894531 50.17175781 32.07894531 51.3671875 33.1796875 C54.42251399 36.45260401 56.2029821 39.68171958 58.125 43.6875 C58.47046875 44.40083496 58.8159375 45.11416992 59.171875 45.84912109 C64.14219503 56.31382639 65.34433277 64.29268573 65 76 C60.38 76 55.76 76 51 76 C48.01797378 69.61985087 45.09003584 63.2968007 42.5 56.75 C39.20467298 48.79067978 35.66349924 42.25749958 28 38 C27.01 37.34 26.02 36.68 25 36 C25 35.34 25 34.68 25 34 C23.73929688 33.62101562 23.73929688 33.62101562 22.453125 33.234375 C18.68749684 31.88829073 15.25004125 30.15907245 11.75 28.25 C11.09322266 27.89510498 10.43644531 27.54020996 9.75976562 27.17456055 C1.85891915 22.87687924 -5.76201997 18.34981133 -13 13 C-11 12 -11 12 -8 12 C-8 10.68 -8 9.36 -8 8 C-7.34 8 -6.68 8 -6 8 C-6.33 7.01 -6.66 6.02 -7 5 C-5.824375 4.87625 -5.824375 4.87625 -4.625 4.75 C-1.85250896 4.27193661 -1.85250896 4.27193661 -0.6875 1.9375 C-0.460625 1.298125 -0.23375 0.65875 0 0 Z " fill="#F07726" transform="translate(198,275)"/>
<path d="M0 0 C2.875 1.5625 2.875 1.5625 6 4 C7.55826953 5.08940967 9.12123664 6.17211482 10.6875 7.25 C15.25448755 10.45442305 19.76483341 13.73227603 24.26953125 17.0234375 C26.88952372 18.92002719 29.53190804 20.77869257 32.1875 22.625 C33.79252575 23.74877401 35.39672367 24.87373151 37 26 C37.76957031 26.53753906 38.53914063 27.07507813 39.33203125 27.62890625 C40.40517578 28.40041016 40.40517578 28.40041016 41.5 29.1875 C42.1290625 29.63480469 42.758125 30.08210938 43.40625 30.54296875 C46.35600406 33.23968018 46.96060501 35.55877612 47.3125 39.5 C46.97583704 43.27062513 46.60123577 44.36490867 44 47 C39.4079233 48.22706312 34.80115304 48.00888309 30.62890625 45.671875 C28.33996204 43.86030418 26.17762873 41.94335121 24 40 C22.51776665 38.9128521 21.01674967 37.85094918 19.5 36.8125 C18.68402344 36.24660156 17.86804688 35.68070313 17.02734375 35.09765625 C16.02832031 34.40542969 15.02929688 33.71320313 14 33 C11.01649353 30.92282138 8.03862638 28.83773512 5.0625 26.75 C4.31613281 26.23026611 3.56976563 25.71053223 2.80078125 25.17504883 C2.094375 24.67900146 1.38796875 24.1829541 0.66015625 23.671875 C0.02730713 23.2294043 -0.60554199 22.78693359 -1.25756836 22.33105469 C-3 21 -3 21 -4.56860352 19.42285156 C-6.05393151 17.81934534 -6.05393151 17.81934534 -8.5625 16.5625 C-11.27908251 14.82110096 -12.14204205 14.08864863 -13 11 C-12.86470518 7.21174497 -12.49240979 4.76815927 -10.4375 1.5625 C-6.99403504 -0.64484933 -3.91535939 -0.74177707 0 0 Z " fill="#6B6B6B" transform="translate(52,62)"/>
<path d="M0 0 C3 2.0625 3 2.0625 5 5 C5.53040487 8.7128341 5.2568097 11.19288379 4.125 14.75 C-1.02357762 20.20143513 -10.47651813 20.52893347 -17.53125 21.97265625 C-24.74105309 23.55366307 -31.83927797 25.64856213 -38.9375 27.66308594 C-40.0203125 27.96375977 -41.103125 28.26443359 -42.21875 28.57421875 C-43.18748047 28.84838623 -44.15621094 29.12255371 -45.15429688 29.4050293 C-48.22186737 30.04638734 -50.87497104 30.22906397 -54 30 C-56.69990662 28.20006226 -58.5418865 26.916227 -60 24 C-60.52859659 20.12362502 -60.2217718 18.36977934 -58.19140625 14.984375 C-54.34618042 10.61036283 -49.04632921 10.0936932 -43.5625 9 C-41.31434197 8.51130576 -39.06695723 8.01904221 -36.8203125 7.5234375 C-35.6849707 7.2769043 -34.54962891 7.03037109 -33.37988281 6.77636719 C-27.27319387 5.37364609 -21.26252243 3.61387227 -15.25805664 1.828125 C-9.98592849 0.32194727 -5.490499 -0.45102675 0 0 Z " fill="#6A6A6A" transform="translate(85,138)"/>
<path d="M0 0 C0.76441406 0.07605469 1.52882813 0.15210937 2.31640625 0.23046875 C4.95247059 0.95380869 5.82324859 1.60401691 7.4375 3.8125 C10.31148342 11.55746266 11.87066598 19.73949288 13.51171875 27.81640625 C14.82337961 33.80523501 16.66336242 39.67037884 18.45654297 45.52954102 C19.8040839 50.04869169 20.94875132 54.0432555 20.4375 58.8125 C18.37550913 62.52408357 17.15692301 63.59933763 13.0625 64.8125 C8.7467014 64.8125 6.86516383 64.46114932 3.4375 61.8125 C1.88143863 58.96423114 1.20136884 55.95284966 0.4375 52.8125 C-0.00335938 51.07226562 -0.00335938 51.07226562 -0.453125 49.296875 C-0.95590667 47.30525167 -1.45255253 45.31274497 -1.93530273 43.31616211 C-2.83631649 39.60467031 -3.80277508 35.92984925 -4.89453125 32.26953125 C-11.40955475 10.35366424 -11.40955475 10.35366424 -8.5625 1.8125 C-5.61497944 -0.17626662 -3.48582172 -0.40697411 0 0 Z " fill="#6B6B6B" transform="translate(115.5625,18.1875)"/>
<path d="M0 0 C7.42832378 0.31359678 10.98295206 4.83732206 15.9375 9.875 C17.22450919 10.9076004 18.53562017 11.91129988 19.875 12.875 C24.10224913 15.96021005 28.1542341 19.23354638 32.17578125 22.58203125 C33.96280851 24.06574413 35.7717623 25.52359924 37.60546875 26.94921875 C44.3709884 32.42401923 44.3709884 32.42401923 45.1875 37.0625 C44.92842682 41.01336593 44.42264169 42.8376046 41.9375 45.875 C38.72620258 47.48064871 35.42075944 47.35878603 31.9375 46.875 C28.4375 45 28.4375 45 25.9375 42.875 C25.9375 42.215 25.9375 41.555 25.9375 40.875 C24.9165625 40.5965625 24.9165625 40.5965625 23.875 40.3125 C20.42062802 38.62206265 18.4577338 36.4975602 15.828125 33.7421875 C13.35577263 31.30048413 10.65406725 29.31591205 7.84765625 27.27734375 C5.10217301 25.26174358 2.53557182 23.07771307 -0.0625 20.875 C-0.60132813 20.4521875 -1.14015625 20.029375 -1.6953125 19.59375 C-6.99611106 15.39408351 -6.99611106 15.39408351 -8.0625 11.875 C-8.41344199 8.57614526 -8.15158478 6.19022307 -7.25 3 C-4.64536446 0.46978262 -3.55853706 0.32167567 0 0 Z " fill="#6B6B6B" transform="translate(402.0625,354.125)"/>
<path d="M0 0 C1.29693535 -0.01925285 1.29693535 -0.01925285 2.62007141 -0.03889465 C3.55650986 -0.04628159 4.4929483 -0.05366852 5.45776367 -0.0612793 C6.41970139 -0.06935104 7.3816391 -0.07742279 8.37272644 -0.08573914 C10.41122635 -0.09958415 12.44974948 -0.11030443 14.48828125 -0.11816406 C17.60290579 -0.13537193 20.7164676 -0.17925381 23.83081055 -0.22338867 C25.81062044 -0.23351596 27.79043937 -0.24203195 29.77026367 -0.2487793 C30.70062943 -0.26628738 31.63099518 -0.28379547 32.58955383 -0.30183411 C36.79944988 -0.28774348 39.19127263 -0.19062557 42.87841797 1.98876953 C45.56905457 5.03182011 45.81323242 7.1540088 45.81323242 11.17700195 C44.62573242 14.05200195 44.62573242 14.05200195 42.81323242 16.17700195 C40.02080979 17.12047014 37.42427592 17.31106861 34.49121094 17.33813477 C33.64675919 17.34774231 32.80230743 17.35734985 31.93226624 17.36724854 C31.02802414 17.37149841 30.12378204 17.37574829 29.19213867 17.38012695 C28.2552269 17.38582703 27.31831512 17.3915271 26.35301208 17.3973999 C24.37353643 17.40683505 22.39404517 17.41337798 20.41455078 17.41723633 C17.39026529 17.42695525 14.36665578 17.45799807 11.3425293 17.48950195 C9.41740312 17.49603117 7.49227209 17.50128196 5.56713867 17.50512695 C4.66492081 17.51747375 3.76270294 17.52982056 2.83314514 17.5425415 C-2.47566427 17.52374468 -6.23891277 17.12485676 -10.18676758 13.17700195 C-10.77936017 5.94737232 -10.77936017 5.94737232 -8.31176758 2.73950195 C-5.31480513 0.5358531 -3.66173575 0.04729737 0 0 Z " fill="#6B6B6B" transform="translate(414.186767578125,309.822998046875)"/>
<path d="M0 0 C3.93752059 4.46885003 3.45113075 9.52395366 3.43359375 15.15625 C3.4388356 16.13613892 3.44407745 17.11602783 3.44947815 18.12561035 C3.45588941 20.19326837 3.45457297 22.26096291 3.44604492 24.32861328 C3.43752892 27.48926754 3.46631914 30.64811763 3.49804688 33.80859375 C3.49965889 35.82031196 3.49908135 37.83203336 3.49609375 39.84375 C3.51294472 41.25799255 3.51294472 41.25799255 3.53013611 42.70080566 C3.48484708 46.97056717 3.38538376 49.36684444 1.12524414 53.08007812 C-1.34617721 55.31273264 -2.69427772 55.83471389 -6 56 C-8.125 55.875 -8.125 55.875 -10 55 C-13.9110918 50.32312099 -13.43474753 45.37677726 -13.3984375 39.58984375 C-13.40130768 38.58538712 -13.40417786 37.58093048 -13.40713501 36.54603577 C-13.40917269 34.42708776 -13.4036636 32.30812081 -13.39111328 30.18920898 C-13.37503902 26.94537372 -13.3909811 23.70278126 -13.41015625 20.45898438 C-13.4081741 18.39843475 -13.404331 16.3378859 -13.3984375 14.27734375 C-13.40451019 13.30748032 -13.41058289 12.33761688 -13.4168396 11.33836365 C-13.40738312 10.43384964 -13.39792664 9.52933563 -13.38818359 8.59741211 C-13.38579681 7.80419052 -13.38341003 7.01096893 -13.38095093 6.19371033 C-12.89833986 3.41458893 -11.91704296 2.04604527 -10 0 C-6.17853346 -1.27382218 -3.89335307 -0.97333827 0 0 Z " fill="#6A6A6A" transform="translate(370,374)"/>
<path d="M0 0 C5.61 0 11.22 0 17 0 C17 8.25 17 16.5 17 25 C11.39 25 5.78 25 0 25 C0 16.75 0 8.5 0 0 Z " fill="#F07B22" transform="translate(246,365)"/>
<path d="M0 0 C1.95703125 2.14453125 1.95703125 2.14453125 3.8125 4.8125 C4.75029297 6.12154297 4.75029297 6.12154297 5.70703125 7.45703125 C7 10 7 10 6.75585938 11.99072266 C5.46949789 15.41021717 2.45933253 17.33239369 -0.3125 19.5625 C-0.89451172 20.04396484 -1.47652344 20.52542969 -2.07617188 21.02148438 C-4.99516455 23.42477732 -7.95027736 25.76353673 -11 28 C-11.33 26.35 -11.66 24.7 -12 23 C-10.68 22.67 -9.36 22.34 -8 22 C-8 21.34 -8 20.68 -8 20 C-7.34 20 -6.68 20 -6 20 C-6.12375 18.700625 -6.2475 17.40125 -6.375 16.0625 C-6.44460937 15.33160156 -6.51421875 14.60070312 -6.5859375 13.84765625 C-6.72257812 13.23792969 -6.85921875 12.62820312 -7 12 C-7.66 11.67 -8.32 11.34 -9 11 C-9 10.01 -9 9.02 -9 8 C-13.07148503 8.7768427 -13.07148503 8.7768427 -17 10 C-18.28436734 11.9837767 -18.28436734 11.9837767 -19 14 C-21.125 14.75 -21.125 14.75 -23 15 C-21.61449172 11.7129523 -20.15931671 10.09789406 -17.25 8.0625 C-14.63251307 6.19083058 -12.11868309 4.29574398 -9.6875 2.1875 C-6.30335308 -0.56703819 -4.08825433 -1.72096039 0 0 Z " fill="#EF7426" transform="translate(198,108)"/>
<path d="M0 0 C5.61 0 11.22 0 17 0 C17 0.33 17 0.66 17 1 C12.545 1.495 12.545 1.495 8 2 C8.33 8.6 8.66 15.2 9 22 C8.01 22.33 7.02 22.66 6 23 C5.67 22.01 5.34 21.02 5 20 C4.67 21.32 4.34 22.64 4 24 C8.29 24 12.58 24 17 24 C17 24.33 17 24.66 17 25 C11.39 25 5.78 25 0 25 C0 16.75 0 8.5 0 0 Z " fill="#E67527" transform="translate(246,365)"/>
<path d="M0 0 C1.07021121 3.64022546 0.72344899 4.64884919 -1 8 C-1.2165625 9.794375 -1.2165625 9.794375 -1.4375 11.625 C-1.623125 12.73875 -1.80875 13.8525 -2 15 C-2.99 15.66 -3.98 16.32 -5 17 C-5.40729228 19.32156597 -5.74438677 21.6568787 -6 24 C-6.33 24.33 -6.66 24.66 -7 25 C-7.25490479 28.49240979 -7.18524447 31.99941035 -7.1875 35.5 C-7.19974609 36.469375 -7.21199219 37.43875 -7.22460938 38.4375 C-7.23704734 44.60673086 -6.56056236 50.02915273 -5 56 C-5.99 56.495 -5.99 56.495 -7 57 C-12.74529973 41.29618073 -11.10693555 23.80848866 -4.28540039 8.82861328 C-2.89799379 5.86440255 -1.46045106 2.92890459 0 0 Z " fill="#E4A268" transform="translate(301,119)"/>
<path d="M0 0 C2.94897721 2.74559948 5.26205705 5.34117274 7 9 C6.40696338 13.7021394 3.18353235 15.7497313 -0.3125 18.5625 C-0.89451172 19.04396484 -1.47652344 19.52542969 -2.07617188 20.02148438 C-4.99516455 22.42477732 -7.95027736 24.76353673 -11 27 C-11.33 25.35 -11.66 23.7 -12 22 C-10.68 21.67 -9.36 21.34 -8 21 C-8 20.34 -8 19.68 -8 19 C-6.35 18.67 -4.7 18.34 -3 18 C-3 17.01 -3 16.02 -3 15 C-2.01 14.67 -1.02 14.34 0 14 C0.33 13.34 0.66 12.68 1 12 C2.32 12 3.64 12 5 12 C4.690625 11.4225 4.38125 10.845 4.0625 10.25 C3.07416636 8.15705816 2.4831387 6.25464725 2 4 C1.34 4 0.68 4 0 4 C0 2.68 0 1.36 0 0 Z " fill="#E09664" transform="translate(198,109)"/>
<path d="M0 0 C0.66 0.33 1.32 0.66 2 1 C1.67 1.33 1.34 1.66 1 2 C1.66 2.33 2.32 2.66 3 3 C2.40912433 7.37086109 0.76637405 10.45622097 -1.4375 14.25 C-4.38513585 19.55936867 -6.08740595 24.01743903 -7 30 C-7.33 30 -7.66 30 -8 30 C-7.98839844 29.41992188 -7.97679687 28.83984375 -7.96484375 28.2421875 C-7.91237826 23.7001754 -8.08248937 19.47286431 -9 15 C-8.01 15 -7.02 15 -6 15 C-4.63823419 13.01924973 -3.30406884 11.01920337 -2 9 C-1.34 9 -0.68 9 0 9 C-0.37125 8.071875 -0.7425 7.14375 -1.125 6.1875 C-1.41375 5.135625 -1.7025 4.08375 -2 3 C-1.34 2.01 -0.68 1.02 0 0 Z " fill="#E37843" transform="translate(172,147)"/>
<path d="M0 0 C0.66 0 1.32 0 2 0 C4.3667542 7.39610686 4.14898921 14.25256083 4 22 C-0.62 22 -5.24 22 -10 22 C-10.33 21.01 -10.66 20.02 -11 19 C-6.71 19.33 -2.42 19.66 2 20 C1.85780436 17.79142945 1.71108153 15.58315013 1.5625 13.375 C1.44068359 11.53035156 1.44068359 11.53035156 1.31640625 9.6484375 C1.03336056 6.38467612 0.58961047 3.22056141 0 0 Z " fill="#E19962" transform="translate(259,329)"/>
<path d="M0 0 C-0.33 1.65 -0.66 3.3 -1 5 C-1.7425 5.103125 -2.485 5.20625 -3.25 5.3125 C-7.47508481 6.3687712 -9.37663848 7.96905595 -11.625 11.6875 C-12.07875 12.450625 -12.5325 13.21375 -13 14 C-13.66 14 -14.32 14 -15 14 C-15.66 15.32 -16.32 16.64 -17 18 C-17.66 18 -18.32 18 -19 18 C-19 18.66 -19 19.32 -19 20 C-19.99 19.67 -20.98 19.34 -22 19 C-5.48490946 0 -5.48490946 0 0 0 Z " fill="#E28C45" transform="translate(324,99)"/>
<path d="M0 0 C0.99 0.33 1.98 0.66 3 1 C6.39504516 9.93432936 6.44083824 21.12482201 3 30 C2.34 29.67 1.68 29.34 1 29 C1.165 28.0925 1.33 27.185 1.5 26.25 C2.74560969 17.31410439 2.16399058 8.73324769 0 0 Z " fill="#DC8942" transform="translate(398,139)"/>
<path d="M0 0 C2.18020049 3.27030074 2.25608928 4.25149778 2.265625 8.04296875 C2.26820313 9.03490234 2.27078125 10.02683594 2.2734375 11.04882812 C2.26570313 12.08458984 2.25796875 13.12035156 2.25 14.1875 C2.25773437 15.20392578 2.26546875 16.22035156 2.2734375 17.26757812 C2.25812947 23.19561083 1.71381459 28.32128895 0 34 C-0.66 33.34 -1.32 32.68 -2 32 C-1.72167806 30.65410781 -1.37366092 29.32259835 -1 28 C-0.8527204 25.8305592 -0.7527453 23.65770947 -0.68359375 21.484375 C-0.64169922 20.23398438 -0.59980469 18.98359375 -0.55664062 17.6953125 C-0.51732422 16.39335937 -0.47800781 15.09140625 -0.4375 13.75 C-0.39431641 12.43257812 -0.35113281 11.11515625 -0.30664062 9.7578125 C-0.20058083 6.50531212 -0.09851976 3.25273608 0 0 Z " fill="#DB9251" transform="translate(417,141)"/>
<path d="M0 0 C5.75 -0.125 5.75 -0.125 8 1 C8 1.66 8 2.32 8 3 C8.99 2.67 9.98 2.34 11 2 C14 4 14 4 15 6 C14.34 6 13.68 6 13 6 C13 6.66 13 7.32 13 8 C14.32 8 15.64 8 17 8 C17.66 9.32 18.32 10.64 19 12 C11.97123188 9.44408432 5.93140385 5.47881515 0 1 C0 0.67 0 0.34 0 0 Z " fill="#E97C44" transform="translate(185,287)"/>
<path d="M0 0 C0.33 0 0.66 0 1 0 C1.30560559 5.80650617 1.12497347 9.88640706 -2 15 C-4.84553663 17.2855108 -7.83510413 19.1886445 -11 21 C-11.66 20.67 -12.32 20.34 -13 20 C-12.38125 19.773125 -11.7625 19.54625 -11.125 19.3125 C-8.34183213 17.59348455 -8.17975113 16.01250104 -7 13 C-5.51866175 10.66993744 -3.93630707 8.43581706 -2.33984375 6.18359375 C-1.0466808 4.07607746 -0.44348312 2.41451918 0 0 Z " fill="#EB974D" transform="translate(398,169)"/>
<path d="M0 0 C2.97 0 5.94 0 9 0 C9 2.31 9 4.62 9 7 C6.69 7 4.38 7 2 7 C2 5.68 2 4.36 2 3 C1.34 3 0.68 3 0 3 C0 2.01 0 1.02 0 0 Z " fill="#F47B1F" transform="translate(252,342)"/>
<path d="M0 0 C0.99 0 1.98 0 3 0 C2.86722656 0.54785156 2.73445313 1.09570312 2.59765625 1.66015625 C0.86953605 9.41777614 0.40125756 17.08044291 0 25 C-0.66 25 -1.32 25 -2 25 C-2.20705918 16.3725342 -2.21462689 8.40371809 0 0 Z " fill="#DA8239" transform="translate(309,139)"/>
<path d="M0 0 C1.32 0.66 2.64 1.32 4 2 C-0.98669664 5.9549663 -4.98817099 6.13288539 -11.1875 6.0625 C-11.93708984 6.05798828 -12.68667969 6.05347656 -13.45898438 6.04882812 C-15.30602383 6.03706354 -17.15302213 6.01912865 -19 6 C-19.33 5.34 -19.66 4.68 -20 4 C-10.1 3.505 -10.1 3.505 0 3 C0 2.01 0 1.02 0 0 Z " fill="#7C7C7C" transform="translate(276,121)"/>
<path d="M0 0 C0.66 0.66 1.32 1.32 2 2 C1.34 2 0.68 2 0 2 C0.34786708 3.97536745 0.34786708 3.97536745 1 6 C1.66 6.33 2.32 6.66 3 7 C2.34 7.66 1.68 8.32 1 9 C0.67386719 8.18144531 0.34773438 7.36289063 0.01171875 6.51953125 C-1.86473798 3.57052426 -1.86473798 3.57052426 -5.79296875 3.51171875 C-7.25860885 3.54487803 -8.72384139 3.60441021 -10.1875 3.6875 C-11.31188477 3.72133789 -11.31188477 3.72133789 -12.45898438 3.75585938 C-14.3068447 3.81470843 -16.15367667 3.90439062 -18 4 C-18 3.34 -18 2.68 -18 2 C-14.17072018 1.09231886 -10.67888235 0.9225836 -6.75 1 C-4.83369809 1.03739126 -2.91608981 1.04702061 -1 1 C-0.67 0.67 -0.34 0.34 0 0 Z " fill="#878787" transform="translate(252,65)"/>
<path d="M0 0 C0.99 0.495 0.99 0.495 2 1 C2.26093344 3.32467975 2.4072445 5.66256152 2.5 8 C2.78450284 13.87250212 3.50275925 19.31048515 5 25 C4.34 25.33 3.68 25.66 3 26 C-0.16277318 17.35508665 -0.12311197 9.09660655 0 0 Z " fill="#DB9759" transform="translate(291,150)"/>
<path d="M0 0 C0.33 0.66 0.66 1.32 1 2 C0.06421005 4.35981813 -0.93347808 6.69631264 -2 9 C-2.66 9 -3.32 9 -4 9 C-3.67 12.63 -3.34 16.26 -3 20 C-3.99 19.67 -4.98 19.34 -6 19 C-7.4234403 16.15311939 -7.27456495 14.16512369 -7 11 C-5.46875 8.0078125 -5.46875 8.0078125 -3.5 5.125 C-2.8503125 4.15820312 -2.200625 3.19140625 -1.53125 2.1953125 C-1.0259375 1.47085937 -0.520625 0.74640625 0 0 Z " fill="#858585" transform="translate(38,336)"/>
<path d="M0 0 C1.98 0 3.96 0 6 0 C2.5634978 2.74920176 -1.16923229 4.86208192 -5 7 C-6.31328544 7.7486238 -7.62581777 8.49857071 -8.9375 9.25 C-9.948125 9.8275 -10.95875 10.405 -12 11 C-11.67 9.35 -11.34 7.7 -11 6 C-9.35 6 -7.7 6 -6 6 C-6.33 5.01 -6.66 4.02 -7 3 C-2.25 2 -2.25 2 0 2 C0 1.34 0 0.68 0 0 Z " fill="#E89755" transform="translate(334,111)"/>
<path d="M0 0 C2.31 0.33 4.62 0.66 7 1 C6.67 1.99 6.34 2.98 6 4 C5.34 4 4.68 4 4 4 C3.67 4.66 3.34 5.32 3 6 C3.66 6 4.32 6 5 6 C5.33 8.31 5.66 10.62 6 13 C2 8.25 2 8.25 2 6 C1.34 6 0.68 6 0 6 C-0.66 4.68 -1.32 3.36 -2 2 C-1.34 2 -0.68 2 0 2 C0 1.34 0 0.68 0 0 Z " fill="#EC8E41" transform="translate(391,122)"/>
<path d="M0 0 C0.66 0.33 1.32 0.66 2 1 C1.01 2.485 1.01 2.485 0 4 C0.30840599 6.15274948 0.30840599 6.15274948 1 8 C0.071875 7.979375 -0.85625 7.95875 -1.8125 7.9375 C-5.02286011 7.84230396 -5.02286011 7.84230396 -8 9 C-8.309375 9.66 -8.61875 10.32 -8.9375 11 C-10 13 -10 13 -12.125 13.75 C-13.053125 13.87375 -13.053125 13.87375 -14 14 C-12.60116798 10.65433992 -11.08768972 9.05711286 -8.125 7 C-5.14252753 4.86346517 -2.49889737 2.70713882 0 0 Z " fill="#E4834C" transform="translate(189,109)"/>
<path d="M0 0 C3.01828886 0.48292622 4.6960414 1.42535864 7.375 3.0625 C10.67962115 5.03956276 13.11241167 5.37927691 17 5 C17 4.34 17 3.68 17 3 C17.66 3 18.32 3 19 3 C19.33 3.99 19.66 4.98 20 6 C16.30121117 7.96498156 13.22347551 8.31915977 9.0703125 7.6875 C5.34509278 6.4504459 2.60966908 3.87063599 0 1 C0 0.67 0 0.34 0 0 Z " fill="#7D7D7D" transform="translate(51,374)"/>
<path d="M0 0 C4.28097424 2.1849263 6.35261624 4.49745664 8.875 8.5625 C9.49117187 9.53316406 10.10734375 10.50382812 10.7421875 11.50390625 C11.15726563 12.32761719 11.57234375 13.15132813 12 14 C11.67 14.66 11.34 15.32 11 16 C9 15 9 15 8 12 C7.01 11.67 6.02 11.34 5 11 C5 9.68 5 8.36 5 7 C4.01 7 3.02 7 2 7 C1.34 4.69 0.68 2.38 0 0 Z " fill="#E19757" transform="translate(244,304)"/>
<path d="M0 0 C0.66 0.33 1.32 0.66 2 1 C1.68949346 7.05487762 -1.29617835 11.39325665 -5 16 C-5.99 16.66 -6.98 17.32 -8 18 C-7.75 15.625 -7.75 15.625 -7 13 C-6.34 12.690625 -5.68 12.38125 -5 12.0625 C-4.34 11.711875 -3.68 11.36125 -3 11 C-2.31506627 8.14221967 -2.31506627 8.14221967 -2 5 C-1.37774395 3.31624835 -0.72455635 1.64232772 0 0 Z " fill="#888888" transform="translate(300,466)"/>
<path d="M0 0 C0.66 0.99 1.32 1.98 2 3 C2.99 3.33 3.98 3.66 5 4 C5.34342449 5.33076989 5.67619874 6.66431979 6 8 C6.99 8.66 7.98 9.32 9 10 C8.67 10.99 8.34 11.98 8 13 C8.66 13.33 9.32 13.66 10 14 C9.01 14 8.02 14 7 14 C3.37375787 10.13200839 0.73596254 5.51882337 -2 1 C-1.34 0.67 -0.68 0.34 0 0 Z " fill="#E2794E" transform="translate(162,259)"/>
<path d="M0 0 C2.475 0.495 2.475 0.495 5 1 C6.09658936 4.28976808 5.79953138 5.71303767 5 9 C5.66 9 6.32 9 7 9 C7 10.32 7 11.64 7 13 C7.66 13.33 8.32 13.66 9 14 C8.34 14.66 7.68 15.32 7 16 C0 3.93103448 0 3.93103448 0 0 Z " fill="#E37346" transform="translate(152,243)"/>
<path d="M0 0 C-6.15034169 8.44646925 -6.15034169 8.44646925 -10 12 C-10.42880585 7.62618037 -10.48534354 5.65174704 -7.8125 2.0625 C-4.6928028 -0.22527794 -3.7068691 -0.20559106 0 0 Z " fill="#E68C59" transform="translate(187,136)"/>
<path d="M0 0 C1 3 1 3 0.125 5.0625 C-3.09384806 7.99733205 -6.78590143 8.3285713 -11 9 C-5.03416856 1.33257403 -5.03416856 1.33257403 0 0 Z " fill="#EB6E28" transform="translate(179,121)"/>
<path d="M0 0 C0.45375 0.61875 0.9075 1.2375 1.375 1.875 C3.76652416 5.00237775 5.16559858 6.23311972 9 7 C9 8.32 9 9.64 9 11 C6.25 10.9375 6.25 10.9375 3 10 C1.04351977 7.75495336 0.20763526 5.80171381 -1 3 C-0.67 2.01 -0.34 1.02 0 0 Z " fill="#EA7D2A" transform="translate(245,338)"/>
<path d="M0 0 C7.38914175 1.25475992 13.00858003 4.5353918 19 9 C19.33 9.66 19.66 10.32 20 11 C17.5625 10.625 17.5625 10.625 15 10 C14.67 9.34 14.34 8.68 14 8 C12.02111039 7.27306096 10.02045442 6.60183749 8 6 C8 5.34 8 4.68 8 4 C7.4225 3.855625 6.845 3.71125 6.25 3.5625 C4.16666667 3.04166667 2.08333333 2.52083333 0 2 C0 1.34 0 0.68 0 0 Z " fill="#DF8554" transform="translate(214,285)"/>
<path d="M0 0 C-0.4452885 5.27315333 -1.08373163 10.01770224 -3 15 C-3.66 14.67 -4.32 14.34 -5 14 C-5.10815225 12.23050905 -5.18566083 10.45912513 -5.25 8.6875 C-5.29640625 7.70136719 -5.3428125 6.71523437 -5.390625 5.69921875 C-5 3 -5 3 -3.046875 1.14453125 C-1 0 -1 0 0 0 Z " fill="#777777" transform="translate(127,157)"/>
<path d="M0 0 C2.64 0 5.28 0 8 0 C10.32590854 3.63423209 10.16265833 6.77088331 10 11 C6.23616236 7.48708487 6.23616236 7.48708487 5 4.9375 C3.76103468 2.53700469 2.22269339 1.4817956 0 0 Z " fill="#E88C4D" transform="translate(228,314)"/>
<path d="M0 0 C3.28788824 3.11016455 5.83735988 6.01618925 8 10 C6.02 10.66 4.04 11.32 2 12 C1.67 10.35 1.34 8.7 1 7 C1.66 7 2.32 7 3 7 C3 6.34 3 5.68 3 5 C2.34 5 1.68 5 1 5 C0.67 3.35 0.34 1.7 0 0 Z " fill="#6F6F6F" transform="translate(312,44)"/>
<path d="M0 0 C0 3.29223784 -0.50518132 5.08510357 -2 8 C-3.875 9.1875 -3.875 9.1875 -6 10 C-6.7425 10.37125 -7.485 10.7425 -8.25 11.125 C-8.8275 11.41375 -9.405 11.7025 -10 12 C-10 12.66 -10 13.32 -10 14 C-10.66 14 -11.32 14 -12 14 C-10.41332422 10.09714233 -7.86649519 7.66479018 -4.875 4.75 C-3.96492188 3.85796875 -3.05484375 2.9659375 -2.1171875 2.046875 C-1.41851562 1.37140625 -0.71984375 0.6959375 0 0 Z " fill="#808080" transform="translate(45,221)"/>
<path d="M0 0 C1.32 0 2.64 0 4 0 C2.5682479 5.01113235 0.01554307 6.94469549 -4 10 C-4 8.35 -4 6.7 -4 5 C-3.34 5 -2.68 5 -2 5 C-1.7834375 4.0409375 -1.7834375 4.0409375 -1.5625 3.0625 C-1 1 -1 1 0 0 Z " fill="#E78B3F" transform="translate(405,189)"/>
<path d="M0 0 C0.66 0.33 1.32 0.66 2 1 C2.1799928 6.21979128 1.97094808 10.07262981 0 15 C-0.66 15 -1.32 15 -2 15 C-2.33 14.01 -2.66 13.02 -3 12 C-2.34 12 -1.68 12 -1 12 C-1.01160156 11.21753906 -1.02320313 10.43507813 -1.03515625 9.62890625 C-1.04417969 8.61699219 -1.05320313 7.60507812 -1.0625 6.5625 C-1.07410156 5.55316406 -1.08570313 4.54382813 -1.09765625 3.50390625 C-1 1 -1 1 0 0 Z M-5 12 C-4.34 12.66 -3.68 13.32 -3 14 C-3.99 14 -4.98 14 -6 14 C-5.67 13.34 -5.34 12.68 -5 12 Z " fill="#7D7D7D" transform="translate(63,318)"/>
<path d="M0 0 C2.95409701 1.37154504 5.44008376 2.98863724 8 5 C7.67 5.66 7.34 6.32 7 7 C6.38125 6.814375 5.7625 6.62875 5.125 6.4375 C2.95839822 5.76313824 2.95839822 5.76313824 1 7 C0.01 6.01 -0.98 5.02 -2 4 C-1.34 2.68 -0.68 1.36 0 0 Z " fill="#EC9253" transform="translate(235,296)"/>
<path d="M0 0 C0.66 0 1.32 0 2 0 C2 0.66 2 1.32 2 2 C3.65 1.34 5.3 0.68 7 0 C7.33 1.98 7.66 3.96 8 6 C9.98 6.66 11.96 7.32 14 8 C14 8.66 14 9.32 14 10 C9.33539866 8.39654329 4.88058403 6.05550658 1 3 C0.67 2.01 0.34 1.02 0 0 Z " fill="#E79C53" transform="translate(311,201)"/>
<path d="M0 0 C0.66 0.33 1.32 0.66 2 1 C1.67 1.33 1.34 1.66 1 2 C1.66 2.33 2.32 2.66 3 3 C2.42365861 7.75481646 0.44931479 10.97048212 -2 15 C-2.33 15 -2.66 15 -3 15 C-3 13.35 -3 11.7 -3 10 C-2.01 9.67 -1.02 9.34 0 9 C-0.37125 8.071875 -0.7425 7.14375 -1.125 6.1875 C-1.41375 5.135625 -1.7025 4.08375 -2 3 C-1.34 2.01 -0.68 1.02 0 0 Z " fill="#E98754" transform="translate(172,147)"/>
<path d="M0 0 C0.66 0.33 1.32 0.66 2 1 C-1.13725286 4.31652445 -4.08681731 6.69222559 -8 9 C-9.36984198 10.29579647 -10.7151049 11.61992749 -12 13 C-12.66 12.67 -13.32 12.34 -14 12 C-12.42301238 10.36884105 -10.83815634 8.74528667 -9.25 7.125 C-8.36828125 6.22007812 -7.4865625 5.31515625 -6.578125 4.3828125 C-4.38251545 2.35353701 -2.80635623 0.96392236 0 0 Z " fill="#8A8A8A" transform="translate(92,255)"/>
<path d="M0 0 C-2.05673453 1.01180498 -4.12065348 2.00901477 -6.1875 3 C-7.33605469 3.556875 -8.48460937 4.11375 -9.66796875 4.6875 C-12.79090519 5.91763675 -14.70286482 6.29804612 -18 6 C-15.41697495 2.69946799 -13.00758523 2.60984993 -9 2 C-8.67 1.34 -8.34 0.68 -8 0 C-4.71585695 -0.95067299 -3.30306592 -1.10102197 0 0 Z " fill="#E09C5D" transform="translate(387,211)"/>
<path d="M0 0 C5.94 1.98 11.88 3.96 18 6 C17.67 6.66 17.34 7.32 17 8 C11.60204011 6.84941444 6.29012667 5.57578241 1 4 C0.67 2.68 0.34 1.36 0 0 Z " fill="#E49855" transform="translate(330,194)"/>
<path d="M0 0 C1.55078125 1.20703125 1.55078125 1.20703125 3 3 C2.85546875 5.26171875 2.85546875 5.26171875 2.1875 7.6875 C1.97480469 8.49574219 1.76210937 9.30398437 1.54296875 10.13671875 C1.27419922 11.05904297 1.27419922 11.05904297 1 12 C0.34 11.67 -0.32 11.34 -1 11 C-1.4140625 8.71484375 -1.4140625 8.71484375 -1.625 5.9375 C-1.69976562 5.01839844 -1.77453125 4.09929687 -1.8515625 3.15234375 C-1.90054688 2.44207031 -1.94953125 1.73179687 -2 1 C-1.34 0.67 -0.68 0.34 0 0 Z " fill="#E07044" transform="translate(148,221)"/>
<path d="M0 0 C0.66 0 1.32 0 2 0 C1.51764925 2.73332093 0.91352117 5.24862665 0 7.875 C-1.07842962 11.24509256 -1.57909626 14.49246882 -2 18 C-2.33 18 -2.66 18 -3 18 C-3.55353075 5.33029613 -3.55353075 5.33029613 0 0 Z " fill="#999999" transform="translate(422,195)"/>
<path d="M0 0 C-2.64 2.64 -5.28 5.28 -8 8 C-8.66 7.01 -9.32 6.02 -10 5 C-9 3 -9 3 -6 2 C-6 1.34 -6 0.68 -6 0 C-4 -1 -4 -1 0 0 Z " fill="#E48754" transform="translate(196,128)"/>
<path d="M0 0 C7.26236302 1.30960645 13.3830748 3.75956186 20 7 C19.34 7.66 18.68 8.32 18 9 C17.28714844 8.66226563 16.57429688 8.32453125 15.83984375 7.9765625 C10.61343563 5.54273046 5.60415357 3.3699042 0 2 C0 1.34 0 0.68 0 0 Z " fill="#E19054" transform="translate(368,92)"/>
<path d="M0 0 C0.99 0.33 1.98 0.66 3 1 C2.06409496 2.1055189 1.12620142 3.20935453 0.1875 4.3125 C-0.33457031 4.92738281 -0.85664063 5.54226563 -1.39453125 6.17578125 C-2.87172469 7.85424679 -4.40039131 9.43882034 -6 11 C-6.33 10.01 -6.66 9.02 -7 8 C-6.07421875 6.2109375 -6.07421875 6.2109375 -4.6875 4.375 C-4.23761719 3.76398438 -3.78773438 3.15296875 -3.32421875 2.5234375 C-2 1 -2 1 0 0 Z " fill="#7A7A7A" transform="translate(328,332)"/>
<path d="M0 0 C3.89035092 4.42695105 6.80426867 8.93354251 7.1875 14.9375 C7.125625 15.618125 7.06375 16.29875 7 17 C6.34 17 5.68 17 5 17 C4.80664062 16.39671875 4.61328125 15.7934375 4.4140625 15.171875 C4.15367187 14.37265625 3.89328125 13.5734375 3.625 12.75 C3.36976563 11.96109375 3.11453125 11.1721875 2.8515625 10.359375 C2.06659478 8.00373091 2.06659478 8.00373091 0.8984375 5.953125 C0 4 0 4 0 0 Z " fill="#E39B5A" transform="translate(410,123)"/>
<path d="M0 0 C0.66 2.31 1.32 4.62 2 7 C3.65 7 5.3 7 7 7 C6.01 7.66 5.02 8.32 4 9 C-0.2742558 7.4169423 -2.26531794 4.49431596 -5 1 C-2 0 -2 0 0 0 Z " fill="#E68256" transform="translate(180,277)"/>
<path d="M0 0 C1.32 0.33 2.64 0.66 4 1 C2.35 4.3 0.7 7.6 -1 11 C-1.33 10.01 -1.66 9.02 -2 8 C-2.66 7.67 -3.32 7.34 -4 7 C-3.01 7 -2.02 7 -1 7 C-0.67 4.69 -0.34 2.38 0 0 Z " fill="#E7924D" transform="translate(412,176)"/>
<path d="M0 0 C0.33 0 0.66 0 1 0 C1.33 2.64 1.66 5.28 2 8 C1.360625 8.103125 0.72125 8.20625 0.0625 8.3125 C-0.9584375 8.6528125 -0.9584375 8.6528125 -2 9 C-2.33 9.99 -2.66 10.98 -3 12 C-3.66 12 -4.32 12 -5 12 C-4.54738642 10.56068883 -4.08767021 9.12361001 -3.625 7.6875 C-3.24214844 6.48673828 -3.24214844 6.48673828 -2.8515625 5.26171875 C-2 3 -2 3 0 0 Z " fill="#E37E54" transform="translate(158,143)"/>
<path d="M0 0 C1.60031344 3.20062687 0.03173691 5.72271806 -1 9 C-1.99 9 -2.98 9 -4 9 C-4.33 9.99 -4.66 10.98 -5 12 C-5.99 12.33 -6.98 12.66 -8 13 C-7.34 11.35 -6.68 9.7 -6 8 C-5.34 8 -4.68 8 -4 8 C-3.566875 6.8553125 -3.566875 6.8553125 -3.125 5.6875 C-2 3 -2 3 0 0 Z " fill="#E88C65" transform="translate(167,130)"/>
<path d="M0 0 C0.66 0 1.32 0 2 0 C4.3992233 4.64849515 4.19957409 8.91086074 4 14 C3.01 14 2.02 14 1 14 C1.01740234 13.11248047 1.01740234 13.11248047 1.03515625 12.20703125 C1.08322386 7.99768215 1.06006883 4.1077667 0 0 Z " fill="#838383" transform="translate(61,257)"/>
<path d="M0 0 C2.69082872 0.17635452 5.32851446 0.61835921 8 1 C4.80009492 3.74277578 1.99500618 5.6302836 -2 7 C-1.125 1.125 -1.125 1.125 0 0 Z " fill="#E99B4E" transform="translate(389,203)"/>
<path d="M0 0 C6.11090483 -0.09945415 11.97403427 -0.0712828 18 1 C18 1.66 18 2.32 18 3 C11.71739294 3.23268915 6.11980533 2.40454548 0 1 C0 0.67 0 0.34 0 0 Z " fill="#888888" transform="translate(461,138)"/>
<path d="M0 0 C0.78375 0.185625 1.5675 0.37125 2.375 0.5625 C4.97089775 1.25962266 4.97089775 1.25962266 7 0 C7.66 0.66 8.32 1.32 9 2 C8.34 2 7.68 2 7 2 C7 2.66 7 3.32 7 4 C8.32 4 9.64 4 11 4 C11.66 5.32 12.32 6.64 13 8 C2 4 2 4 0 0 Z " fill="#E68558" transform="translate(191,291)"/>
<path d="M0 0 C1.07021121 3.64022546 0.72344899 4.64884919 -1 8 C-1.38749213 10.32495277 -1.72982839 12.65851268 -2 15 C-2.99 14.67 -3.98 14.34 -5 14 C-4.46515599 8.65155992 -2.53309233 4.64203897 0 0 Z " fill="#E49451" transform="translate(301,119)"/>
<path d="M0 0 C1.65 0 3.3 0 5 0 C1.32442148 4.00972202 -2.18966896 6.45335415 -7 9 C-7 8.01 -7 7.02 -7 6 C-3.66666667 3 -3.66666667 3 -1 3 C-0.67 2.01 -0.34 1.02 0 0 Z " fill="#7D7D7D" transform="translate(345,317)"/>
<path d="M0 0 C0 2.64 0 5.28 0 8 C-1.32 8.33 -2.64 8.66 -4 9 C-4 8.01 -4 7.02 -4 6 C-4.66 5.67 -5.32 5.34 -6 5 C-1.125 0 -1.125 0 0 0 Z " fill="#747474" transform="translate(54,213)"/>
<path d="M0 0 C0.66 0.33 1.32 0.66 2 1 C2 4.63 2 8.26 2 12 C1.67 11.01 1.34 10.02 1 9 C0.01 9 -0.98 9 -2 9 C-2 7.35 -2 5.7 -2 4 C-1.34 4 -0.68 4 0 4 C0 2.68 0 1.36 0 0 Z " fill="#7A7A7A" transform="translate(278,175)"/>
<path d="M0 0 C-1 2 -1 2 -3.94140625 3.0703125 C-5.13636719 3.41835938 -6.33132812 3.76640625 -7.5625 4.125 C-8.76003906 4.47820312 -9.95757812 4.83140625 -11.19140625 5.1953125 C-12.58166016 5.59363281 -12.58166016 5.59363281 -14 6 C-13 3 -13 3 -11.328125 2.05078125 C-7.43666975 0.66829057 -4.19816517 -0.39357798 0 0 Z " fill="#7F7F7F" transform="translate(117,263)"/>
<path d="M0 0 C2.64990878 2.64990878 4.6267004 5.49652546 6 9 C5.25 11.4375 5.25 11.4375 4 13 C4 11.68 4 10.36 4 9 C2.35 8.67 0.7 8.34 -1 8 C-0.67 5.36 -0.34 2.72 0 0 Z " fill="#E7865B" transform="translate(169,238)"/>
<path d="M0 0 C0.97226335 2.59072612 1.11611108 3.69699083 0.109375 6.32421875 C-0.33921875 7.10410156 -0.7878125 7.88398438 -1.25 8.6875 C-1.68828125 9.47511719 -2.1265625 10.26273438 -2.578125 11.07421875 C-4 13 -4 13 -7 14 C-5.53967505 8.68972746 -3.01679014 4.53669968 0 0 Z " fill="#8E8E8E" transform="translate(125,122)"/>
<path d="M0 0 C0.33 0 0.66 0 1 0 C0.67 5.28 0.34 10.56 0 16 C-0.33 16 -0.66 16 -1 16 C-1.85330338 10.16524985 -2.48351814 5.55139349 0 0 Z " fill="#848484" transform="translate(240,122)"/>
<path d="M0 0 C-0.38597015 2.79828356 -0.80136573 3.8205884 -2.9375 5.75 C-5 7 -5 7 -7 7 C-6.6875 4.625 -6.6875 4.625 -6 2 C-3 0 -3 0 0 0 Z " fill="#F46E20" transform="translate(187,116)"/>
<path d="M0 0 C2.63382667 2.49634671 3.96659556 4.46920151 5 8 C4.625 10.3125 4.625 10.3125 4 12 C1.95780294 10.30820672 1.08206694 9.36272334 0.48828125 6.73828125 C0.43027344 5.93777344 0.37226563 5.13726562 0.3125 4.3125 C0.24675781 3.50425781 0.18101562 2.69601562 0.11328125 1.86328125 C0.07589844 1.24839844 0.03851563 0.63351562 0 0 Z " fill="#7E7E7E" transform="translate(200,331)"/>
<path d="M0 0 C0.33 0.66 0.66 1.32 1 2 C1.66 2 2.32 2 3 2 C3 2.99 3 3.98 3 5 C5.97 5.495 5.97 5.495 9 6 C9 6.66 9 7.32 9 8 C4.2482602 7.56802365 2.07999946 6.67230705 -1 3 C-0.67 2.01 -0.34 1.02 0 0 Z " fill="#838383" transform="translate(307,278)"/>
<path d="M0 0 C1.65 0 3.3 0 5 0 C5 0.66 5 1.32 5 2 C5.94875 1.95875 6.8975 1.9175 7.875 1.875 C11 2 11 2 13 4 C8.07872966 4.16682272 4.49656104 4.24828052 0 2 C0 1.34 0 0.68 0 0 Z " fill="#E0934C" transform="translate(331,213)"/>
<path d="M0 0 C1.3125 1.9375 1.3125 1.9375 2 4 C1.67 4.66 1.34 5.32 1 6 C-2.36591866 4.55746343 -4.51047079 2.66735273 -7 0 C-3.87438528 -1.04187157 -2.95319818 -1.23843794 0 0 Z " fill="#E7862F" transform="translate(390,118)"/>
<path d="M0 0 C0.33 0.99 0.66 1.98 1 3 C2.65 3.33 4.3 3.66 6 4 C6 4.66 6 5.32 6 6 C7.32 6.33 8.64 6.66 10 7 C6.59068103 8.13643966 5.99664544 7.86747764 2.8125 6.5625 C2.09707031 6.27503906 1.38164062 5.98757812 0.64453125 5.69140625 C-0.16951172 5.34916016 -0.16951172 5.34916016 -1 5 C-1 4.34 -1 3.68 -1 3 C-1.99 2.67 -2.98 2.34 -4 2 C-2.68 2 -1.36 2 0 2 C0 1.34 0 0.68 0 0 Z " fill="#E78D44" transform="translate(366,105)"/>
<path d="M0 0 C2.97 0.495 2.97 0.495 6 1 C6.33 3.64 6.66 6.28 7 9 C4.03595495 6.19195732 1.55500981 3.81684226 0 0 Z " fill="#7E7E7E" transform="translate(137,293)"/>
<path d="M0 0 C-2.42130331 2.42130331 -3.80111377 2.52840504 -7.125 3.125 C-8.49011719 3.37636719 -8.49011719 3.37636719 -9.8828125 3.6328125 C-10.58148438 3.75398437 -11.28015625 3.87515625 -12 4 C-12 3.01 -12 2.02 -12 1 C-8.0186217 -0.3271261 -4.14954773 -0.06915913 0 0 Z " fill="#848484" transform="translate(85,138)"/>
<path d="M0 0 C-0.33 1.65 -0.66 3.3 -1 5 C-1.721875 5.12375 -2.44375 5.2475 -3.1875 5.375 C-5.95721894 5.9904931 -8.3970354 6.88444374 -11 8 C-3.21621622 0 -3.21621622 0 0 0 Z " fill="#E79856" transform="translate(324,99)"/>
<path d="M0 0 C0.66 0 1.32 0 2 0 C2.67154933 1.28913487 3.33708859 2.58140204 4 3.875 C4.37125 4.59429687 4.7425 5.31359375 5.125 6.0546875 C6 8 6 8 6 10 C3.13367003 8.94901234 2.16993357 8.33137046 0.75 5.5625 C0 3 0 3 0 0 Z " fill="#828282" transform="translate(130,252)"/>
<path d="M0 0 C0.99 0 1.98 0 3 0 C5.27678571 8.03571429 5.27678571 8.03571429 4 12 C3.3291288 10.3767313 2.66342971 8.75132422 2 7.125 C1.62875 6.22007812 1.2575 5.31515625 0.875 4.3828125 C0 2 0 2 0 0 Z " fill="#868686" transform="translate(122,231)"/>
<path d="M0 0 C0 0.99 0 1.98 0 3 C-2.75 3.6875 -2.75 3.6875 -6 4 C-8.375 2.5625 -8.375 2.5625 -10 1 C-3.375 -1.125 -3.375 -1.125 0 0 Z " fill="#EC8937" transform="translate(335,210)"/>
<path d="M0 0 C0.99 0.495 0.99 0.495 2 1 C1.01 1.495 1.01 1.495 0 2 C0 1.34 0 0.68 0 0 Z M-1 2 C-0.67 2.66 -0.34 3.32 0 4 C1.65 3.67 3.3 3.34 5 3 C4.67 3.66 4.34 4.32 4 5 C1.71484375 5.4140625 1.71484375 5.4140625 -1.0625 5.625 C-1.98160156 5.69976562 -2.90070313 5.77453125 -3.84765625 5.8515625 C-4.55792969 5.90054688 -5.26820312 5.94953125 -6 6 C-5.67 5.01 -5.34 4.02 -5 3 C-4.01 3 -3.02 3 -2 3 C-1.67 2.67 -1.34 2.34 -1 2 Z " fill="#5F5F5F" transform="translate(70,153)"/>
<path d="M0 0 C0.66 0 1.32 0 2 0 C1.34 4.62 0.68 9.24 0 14 C-1.96811006 10.06377988 -2.24057392 9.3439424 -1.6875 5.3125 C-1.58824219 4.52488281 -1.48898438 3.73726562 -1.38671875 2.92578125 C-1 1 -1 1 0 0 Z " fill="#DF8258" transform="translate(162,179)"/>
<path d="M0 0 C0.66 0.33 1.32 0.66 2 1 C1.50769231 6.53846154 1.50769231 6.53846154 -1.0625 8.875 C-2.0215625 9.431875 -2.0215625 9.431875 -3 10 C-2.39009109 6.44219804 -1.4216319 3.3171411 0 0 Z " fill="#EA9B54" transform="translate(319,120)"/>
<path d="M0 0 C1.32 0.33 2.64 0.66 4 1 C3.67 3.31 3.34 5.62 3 8 C2.34 8 1.68 8 1 8 C0.67 5.36 0.34 2.72 0 0 Z " fill="#7C7C7C" transform="translate(90,371)"/>
<path d="M0 0 C0.66 0 1.32 0 2 0 C0.73882275 3.88862987 -0.45264167 5.89375599 -4 8 C-4.66 8 -5.32 8 -6 8 C-5.1875 6.0625 -5.1875 6.0625 -4 4 C-3.01 3.67 -2.02 3.34 -1 3 C-0.67 2.01 -0.34 1.02 0 0 Z " fill="#858585" transform="translate(102,232)"/>
<path d="M0 0 C4.95 0.99 4.95 0.99 10 2 C9.34 2.66 8.68 3.32 8 4 C4.375 3.625 4.375 3.625 1 3 C0.67 2.01 0.34 1.02 0 0 Z " fill="#767676" transform="translate(431,397)"/>
<path d="M0 0 C-1.20381448 2.49361571 -2.45428722 4.68143083 -4 7 C-6.125 7.6875 -6.125 7.6875 -8 8 C-6.48291727 4.46014029 -4.24676932 0 0 0 Z " fill="#606060" transform="translate(323,316)"/>
<path d="M0 0 C0.66 0.33 1.32 0.66 2 1 C-0.21368294 3.21368294 -1.93016625 4.86552921 -5.11328125 5.265625 C-7.07746787 5.25166986 -9.0402625 5.13286356 -11 5 C-7.41161963 3.13404221 -3.77010767 1.46615298 0 0 Z " fill="#DE8E51" transform="translate(377,195)"/>
<path d="M0 0 C1.32 0.66 2.64 1.32 4 2 C2.6875 4.5 2.6875 4.5 1 7 C0.01 7 -0.98 7 -2 7 C-1.34 4.69 -0.68 2.38 0 0 Z " fill="#717171" transform="translate(113,148)"/>
<path d="M0 0 C0.33 0 0.66 0 1 0 C1.3125 2.25 1.3125 2.25 1 5 C-1.5 7.3125 -1.5 7.3125 -4 9 C-4 4.98525763 -2.33218233 3.18024863 0 0 Z " fill="#7A7A7A" transform="translate(131,113)"/>
<path d="M0 0 C1.31896465 0.92838287 2.62998689 1.86805732 3.9375 2.8125 C4.66839844 3.33457031 5.39929688 3.85664062 6.15234375 4.39453125 C8 6 8 6 9 9 C8.01 9.495 8.01 9.495 7 10 C5.82739389 8.71372289 4.6620717 7.42080217 3.5 6.125 C2.8503125 5.40570313 2.200625 4.68640625 1.53125 3.9453125 C0 2 0 2 0 0 Z " fill="#E19458" transform="translate(393,103)"/>
<path d="M0 0 C-3.04117196 2.02744797 -5.48143999 3.06650449 -9 4 C-11.19140625 3.55078125 -11.19140625 3.55078125 -13 3 C-11.5903653 2.29819469 -10.17192359 1.61406042 -8.75 0.9375 C-7.96109375 0.55464844 -7.1721875 0.17179687 -6.359375 -0.22265625 C-3.74006478 -1.08564091 -2.55144824 -0.93045933 0 0 Z " fill="#E28E49" transform="translate(337,95)"/>
<path d="M0 0 C1.32 0 2.64 0 4 0 C4 0.66 4 1.32 4 2 C5.175625 2.185625 5.175625 2.185625 6.375 2.375 C9 3 9 3 11 5 C10.01 5.495 10.01 5.495 9 6 C6.8359375 5.00390625 6.8359375 5.00390625 4.375 3.5625 C3.55773437 3.08941406 2.74046875 2.61632812 1.8984375 2.12890625 C1.27195313 1.75636719 0.64546875 1.38382812 0 1 C0 0.67 0 0.34 0 0 Z " fill="#E49A71" transform="translate(204,299)"/>
<path d="M0 0 C2.125 0.375 2.125 0.375 4 1 C3.34 2.65 2.68 4.3 2 6 C1.34 5.67 0.68 5.34 0 5 C0 4.34 0 3.68 0 3 C-0.66 2.67 -1.32 2.34 -2 2 C-1.34 1.34 -0.68 0.68 0 0 Z " fill="#636363" transform="translate(63,209)"/>
<path d="M0 0 C0.66 1.32 1.32 2.64 2 4 C-0.31 4.33 -2.62 4.66 -5 5 C-4.67 3.68 -4.34 2.36 -4 1 C-2.68 0.67 -1.36 0.34 0 0 Z " fill="#E76E38" transform="translate(156,154)"/>
<path d="M0 0 C3.39417765 3.12621626 5.6062718 5.56541027 7 10 C5.2925002 8.71937515 3.62626404 7.38232443 2 6 C2 5.34 2 4.68 2 4 C1.34 4 0.68 4 0 4 C0 2.68 0 1.36 0 0 Z " fill="#E29E60" transform="translate(403,113)"/>
<path d="M0 0 C0.66 0.33 1.32 0.66 2 1 C0.29374499 3.78388975 -0.47626739 4.85384206 -3.6875 5.75 C-4.8321875 5.87375 -4.8321875 5.87375 -6 6 C-5 3 -5 3 -2.5625 1.25 C-1.716875 0.8375 -0.87125 0.425 0 0 Z " fill="#8B8B8B" transform="translate(73,355)"/>
<path d="M0 0 C-3.4019487 2.09350689 -6.05272412 2.17942163 -10 2 C-10 1.34 -10 0.68 -10 0 C-6.30458414 -0.95024979 -3.69541586 -0.95024979 0 0 Z " fill="#787878" transform="translate(35,269)"/>
<path d="M0 0 C0.33 0 0.66 0 1 0 C1.36717663 7.4659249 1.36717663 7.4659249 -0.375 10 C-2 11 -2 11 -4 11 C-3.71125 10.29875 -3.4225 9.5975 -3.125 8.875 C-1.97866412 5.94547497 -0.97374346 2.99078347 0 0 Z " fill="#E2955D" transform="translate(398,169)"/>
<path d="M0 0 C0 0.66 0 1.32 0 2 C-4.455 2.495 -4.455 2.495 -9 3 C-4.5 -1.5 -4.5 -1.5 0 0 Z " fill="#7F7F7F" transform="translate(52,162)"/>
<path d="M0 0 C0.99 0 1.98 0 3 0 C2.34 3.3 1.68 6.6 1 10 C-1.56687367 6.1496895 -0.83288724 4.41430237 0 0 Z " fill="#E7A569" transform="translate(309,139)"/>
<path d="M0 0 C0.99 0.33 1.98 0.66 3 1 C3.33 3.64 3.66 6.28 4 9 C3.01 9.495 3.01 9.495 2 10 C1.34 6.7 0.68 3.4 0 0 Z " fill="#E4A166" transform="translate(398,139)"/>
<path d="M0 0 C1.32 0.66 2.64 1.32 4 2 C2.515 4.475 2.515 4.475 1 7 C0.34 6.34 -0.32 5.68 -1 5 C-0.625 2.375 -0.625 2.375 0 0 Z " fill="#767676" transform="translate(142,121)"/>
<path d="M0 0 C1.32 0.33 2.64 0.66 4 1 C2.35 2.65 0.7 4.3 -1 6 C-1.99 5.67 -2.98 5.34 -4 5 C-2.68 3.35 -1.36 1.7 0 0 Z " fill="#888888" transform="translate(439,109)"/>
<path d="M0 0 C0 3.20395416 -0.74335022 5.09399739 -2 8 C-3.32 7.34 -4.64 6.68 -6 6 C-4.02 4.02 -2.04 2.04 0 0 Z " fill="#8C8C8C" transform="translate(45,221)"/>
<path d="M0 0 C2.5 1.3125 2.5 1.3125 5 3 C5 3.99 5 4.98 5 6 C3.68 5.67 2.36 5.34 1 5 C0.67 3.35 0.34 1.7 0 0 Z " fill="#E89856" transform="translate(324,189)"/>
<path d="M0 0 C1.32 0 2.64 0 4 0 C2.25 4.875 2.25 4.875 0 6 C-0.38218767 4.34385343 -0.71395102 2.67542976 -1 1 C-0.67 0.67 -0.34 0.34 0 0 Z " fill="#EC994F" transform="translate(405,189)"/>
<path d="M0 0 C2.64 0.33 5.28 0.66 8 1 C6.35 2.32 4.7 3.64 3 5 C2 4 1 3 0 2 C0 1.34 0 0.68 0 0 Z " fill="#606060" transform="translate(242,155)"/>
<path d="M0 0 C0.33 0.99 0.66 1.98 1 3 C-1 6 -1 6 -3.625 6.6875 C-4.800625 6.8421875 -4.800625 6.8421875 -6 7 C-4.02 4.69 -2.04 2.38 0 0 Z " fill="#E48659" transform="translate(174,123)"/>
<path d="M0 0 C1.65 0 3.3 0 5 0 C5 0.66 5 1.32 5 2 C6.32 2 7.64 2 9 2 C8.67 2.99 8.34 3.98 8 5 C5.04590299 3.62845496 2.55991624 2.01136276 0 0 Z " fill="#E79B56" transform="translate(375,113)"/>
<path d="M0 0 C-0.66 0 -1.32 0 -2 0 C-2 0.66 -2 1.32 -2 2 C-0.68 2.33 0.64 2.66 2 3 C-4.625 3.25 -4.625 3.25 -8 1 C-3.375 -1.125 -3.375 -1.125 0 0 Z " fill="#5A5A5A" transform="translate(375,36)"/>
<path d="M0 0 C-2.55991624 2.01136276 -5.04590299 3.62845496 -8 5 C-8.33 4.01 -8.66 3.02 -9 2 C-5.86501708 0.14223235 -3.62528568 -0.20140476 0 0 Z " fill="#787878" transform="translate(116,18)"/>
<path d="M0 0 C0.66 0 1.32 0 2 0 C3.625 2.5 3.625 2.5 5 5 C4.01 5.495 4.01 5.495 3 6 C1.68 5.01 0.36 4.02 -1 3 C-0.67 2.01 -0.34 1.02 0 0 Z " fill="#808080" transform="translate(410,378)"/>
<path d="M0 0 C1 2 1 2 0.3125 4.5625 C-0.120625 5.366875 -0.55375 6.17125 -1 7 C-2.32 7.33 -3.64 7.66 -5 8 C-3.35 5.36 -1.7 2.72 0 0 Z " fill="#909090" transform="translate(44,327)"/>
<path d="M0 0 C2.64 1.98 5.28 3.96 8 6 C5.37886292 6 3.49064888 5.68707555 1 5 C0.67 3.35 0.34 1.7 0 0 Z " fill="#E7A174" transform="translate(186,264)"/>
<path d="M0 0 C1.65 0 3.3 0 5 0 C4.67 1.32 4.34 2.64 4 4 C4.66 4.33 5.32 4.66 6 5 C3 5 3 5 1.3125 3.625 C0 2 0 2 0 0 Z " fill="#E5906B" transform="translate(166,268)"/>
<path d="M0 0 C0 0.66 0 1.32 0 2 C-3.63 1.67 -7.26 1.34 -11 1 C-11 0.67 -11 0.34 -11 0 C-7.01803543 -1.05404945 -4.01804691 -0.84098656 0 0 Z " fill="#888888" transform="translate(469,202)"/>
<path d="M0 0 C0.99 0.33 1.98 0.66 3 1 C3 1.66 3 2.32 3 3 C-0.3 3.33 -3.6 3.66 -7 4 C-5.68 3.34 -4.36 2.68 -3 2 C-2.01 1.34 -1.02 0.68 0 0 Z " fill="#A8A8A8" transform="translate(38,164)"/>
<path d="M0 0 C0 0.66 0 1.32 0 2 C-0.66 2 -1.32 2 -2 2 C-2.28875 2.639375 -2.5775 3.27875 -2.875 3.9375 C-4 6 -4 6 -6 7 C-5.6875 4.625 -5.6875 4.625 -5 2 C-2 0 -2 0 0 0 Z " fill="#878787" transform="translate(168,97)"/>
<path d="M0 0 C2.475 0.99 2.475 0.99 5 2 C5 2.99 5 3.98 5 5 C4.67 4.34 4.34 3.68 4 3 C3.67 3.66 3.34 4.32 3 5 C2.01 4.67 1.02 4.34 0 4 C0 2.68 0 1.36 0 0 Z " fill="#808080" transform="translate(73,78)"/>
<path d="M0 0 C3.63 0.66 7.26 1.32 11 2 C11 2.33 11 2.66 11 3 C9.54176788 3.0270043 8.08339325 3.04639787 6.625 3.0625 C5.81289063 3.07410156 5.00078125 3.08570313 4.1640625 3.09765625 C2 3 2 3 0 2 C0 1.34 0 0.68 0 0 Z " fill="#919191" transform="translate(363,21)"/>
<path d="M0 0 C1.32 0.33 2.64 0.66 4 1 C4 4.3 4 7.6 4 11 C3.67 11 3.34 11 3 11 C2.8046875 8.94921875 2.609375 6.8984375 2.4140625 4.84765625 C2.27742188 4.23792969 2.14078125 3.62820313 2 3 C1.34 2.67 0.68 2.34 0 2 C0 1.34 0 0.68 0 0 Z " fill="#5B5B5B" transform="translate(283,421)"/>
<path d="M0 0 C1.65 0.99 3.3 1.98 5 3 C4.01 3.495 4.01 3.495 3 4 C2.67 4.66 2.34 5.32 2 6 C1.34 5.67 0.68 5.34 0 5 C0 3.35 0 1.7 0 0 Z " fill="#848484" transform="translate(169,359)"/>
<path d="M0 0 C2.09749995 2.35968744 2.96905704 3.54616994 3.1875 6.75 C3.125625 7.4925 3.06375 8.235 3 9 C0.86928411 6.40608501 -0.53582673 4.36525621 -1 1 C-0.67 0.67 -0.34 0.34 0 0 Z " fill="#E79E5F" transform="translate(245,338)"/>
<path d="M0 0 C0.66 0.66 1.32 1.32 2 2 C1.625 5.125 1.625 5.125 1 8 C0.01 8 -0.98 8 -2 8 C-1.34 5.36 -0.68 2.72 0 0 Z " fill="#5B5B5B" transform="translate(350,308)"/>
<path d="M0 0 C2.91517292 1.07401108 4.77810176 1.77810176 7 4 C4.69 4 2.38 4 0 4 C0 2.68 0 1.36 0 0 Z " fill="#E68250" transform="translate(204,279)"/>
<path d="M0 0 C2.5 2.3125 2.5 2.3125 5 5 C5 5.99 5 6.98 5 8 C2.5 6.25 2.5 6.25 0 4 C0 2.68 0 1.36 0 0 Z " fill="#DC8054" transform="translate(178,254)"/>
<path d="M0 0 C0.99 0 1.98 0 3 0 C3 1.32 3 2.64 3 4 C3.66 4.33 4.32 4.66 5 5 C4.34 5.66 3.68 6.32 3 7 C0 3.375 0 3.375 0 0 Z " fill="#E58B70" transform="translate(156,252)"/>
<path d="M0 0 C0.99 0 1.98 0 3 0 C2.67 1.65 2.34 3.3 2 5 C1.01 5 0.02 5 -1 5 C-0.67 3.35 -0.34 1.7 0 0 Z " fill="#EA812A" transform="translate(407,184)"/>
<path d="M0 0 C0.66 0 1.32 0 2 0 C2.33 2.97 2.66 5.94 3 9 C0.86928411 6.40608501 -0.53582673 4.36525621 -1 1 C-0.67 0.67 -0.34 0.34 0 0 Z " fill="#E2904A" transform="translate(296,176)"/>
<path d="M0 0 C0.33 0 0.66 0 1 0 C1.125 7.75 1.125 7.75 0 10 C-0.66 10 -1.32 10 -2 10 C-1.34 6.7 -0.68 3.4 0 0 Z " fill="#E3936B" transform="translate(148,164)"/>
<path d="M0 0 C0.66 0.33 1.32 0.66 2 1 C-0.46153846 4.81538462 -0.46153846 4.81538462 -3.1875 5.75 C-3.785625 5.8325 -4.38375 5.915 -5 6 C-3.63016497 2.83884224 -3.0109362 2.0072908 0 0 Z " fill="#E6A07A" transform="translate(180,117)"/>
<path d="" fill="#FFFFFF" transform="translate(0,0)"/>
<path d="" fill="#FFFFFF" transform="translate(0,0)"/>
<path d="" fill="#FFFFFF" transform="translate(0,0)"/>
<path d="" fill="#FFFFFF" transform="translate(0,0)"/>
<path d="" fill="#FFFFFF" transform="translate(0,0)"/>
<path d="" fill="#FFFFFF" transform="translate(0,0)"/>
<path d="" fill="#FFFFFF" transform="translate(0,0)"/>
<path d="" fill="#FFFFFF" transform="translate(0,0)"/>
<path d="" fill="#FFFFFF" transform="translate(0,0)"/>
<path d="" fill="#FFFFFF" transform="translate(0,0)"/>
<path d="" fill="#FFFFFF" transform="translate(0,0)"/>
<path d="" fill="#FFFFFF" transform="translate(0,0)"/>
<path d="" fill="#FFFFFF" transform="translate(0,0)"/>
<path d="" fill="#FFFFFF" transform="translate(0,0)"/>
<path d="" fill="#FFFFFF" transform="translate(0,0)"/>
<path d="" fill="#FFFFFF" transform="translate(0,0)"/>
<path d="" fill="#FFFFFF" transform="translate(0,0)"/>
<path d="" fill="#FFFFFF" transform="translate(0,0)"/>
<path d="" fill="#FFFFFF" transform="translate(0,0)"/>
<path d="" fill="#FFFFFF" transform="translate(0,0)"/>
<path d="" fill="#FFFFFF" transform="translate(0,0)"/>
<path d="" fill="#FFFFFF" transform="translate(0,0)"/>
<path d="" fill="#FFFFFF" transform="translate(0,0)"/>
<path d="" fill="#FFFFFF" transform="translate(0,0)"/>
<path d="" fill="#FFFFFF" transform="translate(0,0)"/>
<path d="" fill="#FFFFFF" transform="translate(0,0)"/>
<path d="" fill="#FFFFFF" transform="translate(0,0)"/>
<path d="" fill="#FFFFFF" transform="translate(0,0)"/>
<path d="" fill="#FFFFFF" transform="translate(0,0)"/>
<path d="" fill="#FFFFFF" transform="translate(0,0)"/>
<path d="" fill="#FFFFFF" transform="translate(0,0)"/>
<path d="" fill="#FFFFFF" transform="translate(0,0)"/>
<path d="" fill="#FFFFFF" transform="translate(0,0)"/>
<path d="" fill="#FFFFFF" transform="translate(0,0)"/>
<path d="" fill="#FFFFFF" transform="translate(0,0)"/>
<path d="" fill="#FFFFFF" transform="translate(0,0)"/>
<path d="" fill="#FFFFFF" transform="translate(0,0)"/>
<path d="" fill="#FFFFFF" transform="translate(0,0)"/>
<path d="" fill="#FFFFFF" transform="translate(0,0)"/>
<path d="" fill="#FFFFFF" transform="translate(0,0)"/>
<path d="" fill="#FFFFFF" transform="translate(0,0)"/>
<path d="" fill="#FFFFFF" transform="translate(0,0)"/>
<path d="" fill="#FFFFFF" transform="translate(0,0)"/>
<path d="" fill="#FFFFFF" transform="translate(0,0)"/>
<path d="" fill="#FFFFFF" transform="translate(0,0)"/>
<path d="" fill="#FFFFFF" transform="translate(0,0)"/>
<path d="" fill="#FFFFFF" transform="translate(0,0)"/>
<path d="" fill="#FFFFFF" transform="translate(0,0)"/>
<path d="" fill="#FFFFFF" transform="translate(0,0)"/>
<path d="" fill="#FFFFFF" transform="translate(0,0)"/>
<path d="" fill="#FFFFFF" transform="translate(0,0)"/>
<path d="" fill="#FFFFFF" transform="translate(0,0)"/>
<path d="" fill="#FFFFFF" transform="translate(0,0)"/>
<path d="" fill="#FFFFFF" transform="translate(0,0)"/>
<path d="" fill="#FFFFFF" transform="translate(0,0)"/>
<path d="" fill="#FFFFFF" transform="translate(0,0)"/>
<path d="" fill="#FFFFFF" transform="translate(0,0)"/>
<path d="" fill="#FFFFFF" transform="translate(0,0)"/>
</svg>
