<?xml version="1.0" encoding="UTF-8"?>
<svg version="1.1" xmlns="http://www.w3.org/2000/svg" width="560" height="445">
<path d="M0 0 C11.41737493 9.46483835 21.59271948 24.09388977 23.23706055 39.17407227 C24.565571 62.18948737 16.56974838 80.44292911 2 98 C1.34 98.66 0.68 99.32 0 100 C1.72643231 100.86321616 3.45292325 101.72631524 5.1796875 102.58886719 C6.65729137 103.32832642 8.13383707 104.06990347 9.609375 104.81347656 C12.63000147 106.33306365 15.64081508 107.83893284 18.7265625 109.22265625 C24.54490933 111.8519092 29.51803059 115.39521808 34.625 119.1875 C35.34945312 119.72342773 36.07390625 120.25935547 36.8203125 120.81152344 C37.490625 121.32102539 38.1609375 121.83052734 38.8515625 122.35546875 C39.45822754 122.81590576 40.06489258 123.27634277 40.68994141 123.75073242 C41.12226074 124.16299072 41.55458008 124.57524902 42 125 C42 125.66 42 126.32 42 127 C42.82757813 127.32871094 42.82757813 127.32871094 43.671875 127.6640625 C46.73377805 129.42106056 48.90786303 131.78279967 51.25 134.375 C51.73017578 134.90230713 52.21035156 135.42961426 52.70507812 135.97290039 C57.41615263 141.26658614 61.28542242 146.96381144 65 153 C65.53882813 153.87527344 66.07765625 154.75054687 66.6328125 155.65234375 C68.0125273 158.02151117 69.09275767 160.43115426 70.125 162.96875 C70.98985591 165.04546687 70.98985591 165.04546687 72.125 167.15625 C79.60508582 181.9294195 82.17590344 199.2783736 82.1875 215.6875 C82.19974609 216.61111328 82.21199219 217.53472656 82.22460938 218.48632812 C82.24447811 227.68555151 82.24447811 227.68555151 80 231 C74.40779172 234.91505493 70.30588841 235.57643913 63.57406616 235.50120544 C62.17993687 235.50950704 62.17993687 235.50950704 60.75764334 235.51797634 C57.65374659 235.53155323 54.55065806 235.51662954 51.44677734 235.50170898 C49.21742919 235.50549317 46.98808339 235.51099404 44.75874329 235.51808167 C38.71139421 235.53203875 32.66432956 235.5208652 26.61699629 235.50437045 C20.28922776 235.49051903 13.96147573 235.49698001 7.63369751 235.50050354 C-2.99034847 235.50320518 -13.61426996 235.48982029 -24.23828125 235.46655273 C-35.16638379 235.44262194 -46.0943369 235.43555351 -57.02246094 235.44604492 C-70.19929106 235.45867255 -83.37603463 235.45616373 -96.55286789 235.44038582 C-101.58387236 235.4346235 -106.61482685 235.43471061 -111.64583206 235.43945122 C-117.56709944 235.44421818 -123.48815963 235.43413074 -129.40938759 235.41249657 C-131.58423857 235.40692524 -133.75910946 235.40646655 -135.93396187 235.41144943 C-138.89888343 235.41739136 -141.86316922 235.40491788 -144.82803345 235.38768005 C-146.12389277 235.39669512 -146.12389277 235.39669512 -147.44593108 235.40589231 C-153.13127949 235.34563884 -156.2982555 234.21929012 -160.75 230.5625 C-165.63836188 224.45204766 -163.46160977 211.02297524 -162.78173828 203.625 C-160.97527081 188.7922829 -157.24017025 174.11875625 -150 161 C-149.71979004 160.41347656 -149.43958008 159.82695312 -149.15087891 159.22265625 C-146.7211056 154.13806193 -143.8486259 149.65066334 -140.5 145.125 C-140.02691406 144.46242188 -139.55382812 143.79984375 -139.06640625 143.1171875 C-138.60105469 142.48296875 -138.13570312 141.84875 -137.65625 141.1953125 C-137.24181641 140.62828613 -136.82738281 140.06125977 -136.40039062 139.47705078 C-134.77161628 137.7591141 -133.11702881 137.02034386 -131 136 C-130.70996094 135.41863281 -130.41992188 134.83726562 -130.12109375 134.23828125 C-128.45197818 130.90586585 -125.77898789 128.66637824 -123.0625 126.1875 C-122.48636963 125.65777588 -121.91023926 125.12805176 -121.31665039 124.58227539 C-116.95406094 120.66067837 -112.39789661 117.3915389 -107.33984375 114.40234375 C-105.02853163 113.08388188 -105.02853163 113.08388188 -103.19140625 111.578125 C-99.98776193 109.27104424 -96.52399214 107.57768809 -93 105.8125 C-92.2884375 105.44447266 -91.576875 105.07644531 -90.84375 104.69726562 C-90.1528125 104.34986328 -89.461875 104.00246094 -88.75 103.64453125 C-88.12609375 103.32846924 -87.5021875 103.01240723 -86.859375 102.68676758 C-85 102 -85 102 -81 102 C-82.50189173 99.37168948 -84.021199 96.97401412 -85.9375 94.625 C-87.86352642 92.17369365 -89.39511569 89.68315619 -90.875 86.94140625 C-92.04830408 84.83851005 -92.04830408 84.83851005 -93.89453125 82.40234375 C-96.6698495 78.27410611 -98.10672162 73.68378779 -99.6875 69 C-99.99494141 68.1234375 -100.30238281 67.246875 -100.61914062 66.34375 C-105.84482504 51.15839135 -105.15301714 36.54789251 -98.375 21.9375 C-90.09923579 6.26899357 -76.03427892 -6.23282165 -59 -11.5 C-37.97542923 -16.36518993 -17.39405023 -12.84965873 0 0 Z M-74.9375 21.625 C-82.44356085 30.89058634 -85.67433302 43.6672398 -84.62890625 55.3125 C-83.08628882 64.35741212 -79.82050333 73.59116619 -72.61328125 79.60546875 C-71 81 -71 81 -69.6328125 82.98046875 C-67.5751689 85.525449 -65.45923939 86.62356927 -62.5625 88.125 C-61.61503906 88.62257813 -60.66757812 89.12015625 -59.69140625 89.6328125 C-58.35916016 90.30957031 -58.35916016 90.30957031 -57 91 C-56.37222656 91.37511719 -55.74445313 91.75023437 -55.09765625 92.13671875 C-47.79705284 95.14125013 -35.59927551 95.02318374 -28 93 C-24.14092855 91.28250117 -20.58775166 89.22098913 -17 87 C-15.96875 86.443125 -14.9375 85.88625 -13.875 85.3125 C-3.92865478 77.31217884 1.9388427 66.55244795 4 54 C5.15351248 42.04339953 0.33867816 30.00329168 -7.1875 20.8125 C-13.97396913 13.5559724 -21.34640493 9.20169712 -31 7 C-31.66386719 6.81695312 -32.32773437 6.63390625 -33.01171875 6.4453125 C-49.01606474 2.86084208 -63.92003697 10.55910856 -74.9375 21.625 Z M-66.10839844 116.50488281 C-67.65000328 116.90839012 -69.20274125 117.26916872 -70.7578125 117.6171875 C-84.04630125 120.90552539 -96.6271882 129.34643877 -107 138 C-107.99515625 138.81984375 -108.9903125 139.6396875 -110.015625 140.484375 C-129.95988646 157.48185347 -140.18288132 180.14879327 -143 206 C-143 208.97 -143 211.94 -143 215 C-75.02 215 -7.04 215 63 215 C58.85231484 181.81851875 50.34793632 157.79048448 24.359375 135.76171875 C-1.16264246 116.08531308 -35.05591412 108.29395825 -66.10839844 116.50488281 Z " fill="#737373" transform="translate(320,206)"/>
<path d="M0 0 C7.30734138 5.92995295 12.78793944 12.45926239 16.95068359 20.92919922 C17.36705078 21.76837891 17.78341797 22.60755859 18.21240234 23.47216797 C22.41975001 32.55941329 21.96055098 47.25573864 19.35693359 56.83154297 C18.1771424 59.95118314 16.85576182 62.81300992 15.26318359 65.74169922 C14.73595703 66.75748047 14.20873047 67.77326172 13.66552734 68.81982422 C12.66709235 70.69403634 11.64670777 72.55688768 10.59521484 74.40185547 C9.40901253 76.48553636 8.3131941 78.58693832 7.26318359 80.74169922 C7.79685547 81.09361328 8.33052734 81.44552734 8.88037109 81.80810547 C18.75425865 88.35083719 28.17364799 95.13445711 37.26318359 102.74169922 C37.93607422 103.27794922 38.60896484 103.81419922 39.30224609 104.36669922 C55.85332868 117.78255471 64.13899223 139.68851697 66.95068359 160.17919922 C68.69943894 180.01082903 68.69943894 180.01082903 64.26318359 186.74169922 C60.62733998 189.39274893 58.08378925 190.11747019 53.61512756 190.12265015 C52.48942856 190.13110962 51.36372955 190.13956909 50.20391846 190.14828491 C48.36552399 190.13917587 48.36552399 190.13917587 46.48999023 190.12988281 C45.1919194 190.13513977 43.89384857 190.14039673 42.55644226 190.14581299 C39.00264405 190.15947074 35.44910761 190.15419409 31.89530492 190.14467573 C28.17184965 190.13706949 24.44841649 190.14412757 20.72496033 190.14883423 C14.47146592 190.15428966 8.21807786 190.1471065 1.96459961 190.1328125 C-5.25806552 190.11649346 -12.48047648 190.1217698 -19.70313543 190.13829172 C-25.9105194 190.15192121 -32.11782701 190.1538189 -38.32522112 190.14597571 C-42.02985934 190.14130629 -45.73437823 190.14065397 -49.43900871 190.15058517 C-53.57090083 190.16088825 -57.70235738 190.1465936 -61.83422852 190.12988281 C-63.66958664 190.13899185 -63.66958664 190.13899185 -65.54202271 190.14828491 C-76.00945085 190.06982018 -76.00945085 190.06982018 -80.73681641 186.74169922 C-82.75129837 183.30269073 -82.96422309 179.7650293 -82.11181641 175.92919922 C-80.0202281 172.60167237 -78.16991747 171.07971077 -74.31576538 170.17066956 C-69.27780492 169.56682312 -64.29314887 169.61132594 -59.22363281 169.62817383 C-58.07183533 169.6280278 -56.92003784 169.62788177 -55.7333374 169.62773132 C-51.93499859 169.62842671 -48.13670912 169.63620163 -44.33837891 169.64404297 C-41.70136543 169.64590848 -39.0643516 169.64733175 -36.42733765 169.64833069 C-30.20140195 169.65143375 -23.97548389 169.65963328 -17.74955595 169.66968018 C-10.65886493 169.68087319 -3.56817306 169.68635979 3.5225246 169.69137561 C18.10275335 169.70181678 32.68296822 169.71939632 47.26318359 169.74169922 C46.81600558 166.70661742 46.36039041 163.67320326 45.89990234 160.64013672 C45.77514526 159.78734131 45.65038818 158.9345459 45.52185059 158.0559082 C42.69096265 139.59514136 31.7819921 123.00886343 17.03271484 111.75341797 C16.11876953 111.08955078 15.20482422 110.42568359 14.26318359 109.74169922 C13.31830078 109.04689453 12.37341797 108.35208984 11.39990234 107.63623047 C-4.16282592 97.09628871 -24.82799319 93.50438158 -43.17431641 96.99169922 C-55.66733587 99.73811965 -66.32919971 102.97790757 -76.51806641 110.90576172 C-84.72562122 117.28691011 -84.72562122 117.28691011 -89.11181641 117.61669922 C-92.73681641 116.74169922 -92.73681641 116.74169922 -95.67431641 114.11669922 C-97.76842045 110.68998352 -98.73681641 108.7391193 -98.73681641 104.74169922 C-97.48681641 101.92919922 -97.48681641 101.92919922 -95.73681641 99.74169922 C-94.25181641 99.24669922 -94.25181641 99.24669922 -92.73681641 98.74169922 C-92.73681641 98.08169922 -92.73681641 97.42169922 -92.73681641 96.74169922 C-87.88790442 92.83276544 -82.27914563 89.86148458 -76.81494141 86.90966797 C-74.90007142 85.83345345 -73.10465069 84.67803483 -71.29931641 83.42919922 C-68.73681641 81.74169922 -68.73681641 81.74169922 -66.73681641 81.74169922 C-67.32849609 81.00306641 -67.92017578 80.26443359 -68.52978516 79.50341797 C-78.60013047 66.57460596 -84.13651264 54.21403004 -82.52978516 37.60107422 C-80.05011486 23.32253318 -72.18378534 9.99783546 -61.21728516 0.73779297 C-59.73681641 -0.25830078 -59.73681641 -0.25830078 -57.73681641 -0.25830078 C-57.73681641 -0.91830078 -57.73681641 -1.57830078 -57.73681641 -2.25830078 C-55.34308671 -3.24289149 -52.9470657 -4.22108781 -50.54931641 -5.19580078 C-49.87578125 -5.47359375 -49.20224609 -5.75138672 -48.50830078 -6.03759766 C-32.93098101 -12.34451249 -13.72863527 -9.94621678 0 0 Z M-55.60009766 21.76123047 C-60.33282775 28.36282656 -63.75587225 37.12679436 -63.22900391 45.38623047 C-61.03048537 55.90771204 -56.69640467 64.12576127 -47.92431641 70.38232422 C-39.72277324 75.47899747 -30.61573256 75.83121699 -21.22119141 74.34326172 C-12.82695711 72.08327556 -6.85206183 65.9133783 -2.29931641 58.74169922 C1.97895571 50.9457367 2.99454327 44.5139216 1.26318359 35.74169922 C-2.41124428 24.71841561 -8.57670758 18.01604194 -18.70556641 12.71044922 C-31.72630609 6.947171 -46.33835412 11.66428945 -55.60009766 21.76123047 Z " fill="#727272" transform="translate(488.73681640625,251.25830078125)"/>
<path d="M0 0 C10.11307374 9.18198338 15.92363876 19.39067749 17.6953125 33.06640625 C18.46513263 49.5453683 12.05326387 64.27576391 2.7578125 77.50390625 C4.231056 78.45237396 5.70436717 79.4007367 7.17797852 80.34863281 C8.44848241 81.16624001 9.7184956 81.98461019 10.98803711 82.80371094 C13.96505619 84.7217602 16.94861963 86.6218809 19.9609375 88.484375 C31.95513697 95.90701484 31.95513697 95.90701484 33.8203125 101.94140625 C33.72851535 107.17384386 31.35625622 109.90546253 27.7578125 113.50390625 C23.1359207 114.25850083 20.45274466 113.58363579 16.6953125 111.00390625 C15.94121094 110.46121094 15.18710938 109.91851562 14.41015625 109.359375 C6.55592453 103.864883 -1.90964348 98.88498341 -11.2421875 96.50390625 C-12.221875 96.23964844 -13.2015625 95.97539062 -14.2109375 95.703125 C-29.0867906 91.81846534 -41.26829582 91.99414413 -56.2421875 95.50390625 C-57.14066406 95.69726562 -58.03914063 95.890625 -58.96484375 96.08984375 C-75.04326051 100.11598388 -89.99954977 113.11739586 -99.2421875 126.50390625 C-101.4769792 130.41112412 -103.4260336 134.38729074 -105.2421875 138.50390625 C-105.97236084 139.98842285 -105.97236084 139.98842285 -106.71728516 141.50292969 C-108.77186568 146.30302138 -109.28609221 151.29616085 -109.9296875 156.44140625 C-110.05923828 157.41142578 -110.18878906 158.38144531 -110.32226562 159.38085938 C-110.63792862 161.75417748 -110.94431893 164.12830066 -111.2421875 166.50390625 C-110.32915973 166.4969928 -110.32915973 166.4969928 -109.39768696 166.48993969 C-94.58329087 166.37949166 -79.76893456 166.29676496 -64.9542284 166.24484539 C-57.78989178 166.21906962 -50.62583008 166.18393169 -43.46166992 166.12670898 C-37.21696195 166.07685407 -30.97245309 166.04461065 -24.72755164 166.03346378 C-21.42113473 166.02694825 -18.11541986 166.00902411 -14.8091526 165.97525597 C-11.11697017 165.93904083 -7.4259736 165.93395806 -3.73364258 165.9362793 C-2.63888107 165.91830292 -1.54411957 165.90032654 -0.41618347 165.88180542 C7.03080614 165.9325768 7.03080614 165.9325768 10.80024719 168.89485168 C11.44624374 169.75583969 12.0922403 170.6168277 12.7578125 171.50390625 C14.40645795 172.85945918 16.06785245 174.20022278 17.7578125 175.50390625 C17.20075238 179.21524655 15.84854743 180.80550188 13.00579834 183.20225525 C7.14606993 187.51897276 1.86829997 187.46191093 -5.20996094 187.33032227 C-6.48096146 187.33455704 -7.75196198 187.33879181 -9.06147766 187.34315491 C-12.52255884 187.35363865 -15.98198752 187.32093686 -19.44278622 187.27952695 C-23.07453986 187.24299629 -26.7062882 187.24495734 -30.3381958 187.24217224 C-36.43099038 187.23205886 -42.52316694 187.19595457 -48.61572266 187.1418457 C-56.42953884 187.07256108 -64.24291461 187.04491365 -72.05700302 187.03085423 C-78.78912574 187.01856385 -85.52115434 186.98884032 -92.25320148 186.95546985 C-94.41145042 186.94532478 -96.56970059 186.93724884 -98.72795868 186.9293232 C-102.7494654 186.91307034 -106.77062019 186.87874298 -110.79199219 186.84204102 C-111.98482315 186.83823425 -113.17765411 186.83442749 -114.40663147 186.83050537 C-115.50275253 186.81763992 -116.5988736 186.80477448 -117.72821045 186.79151917 C-118.67795116 186.78427102 -119.62769188 186.77702288 -120.60621262 186.76955509 C-124.22908638 186.40444834 -127.09402855 185.34946307 -130.02539062 183.19067383 C-132.63784457 179.56919624 -131.76776639 174.48354476 -131.7421875 170.19140625 C-131.73574219 169.07507813 -131.72929687 167.95875 -131.72265625 166.80859375 C-131.18803867 141.96294507 -123.1653165 119.92917056 -105.2421875 102.50390625 C-104.6234375 101.67890625 -104.0046875 100.85390625 -103.3671875 100.00390625 C-100.73013365 96.90148995 -97.76816867 94.54480668 -94.2421875 92.50390625 C-93.5821875 92.50390625 -92.9221875 92.50390625 -92.2421875 92.50390625 C-92.2421875 91.84390625 -92.2421875 91.18390625 -92.2421875 90.50390625 C-90.26686674 89.11275047 -88.31535156 87.85820534 -86.2421875 86.62890625 C-85.65219971 86.27248047 -85.06221191 85.91605469 -84.4543457 85.54882812 C-80.14487374 82.97150828 -75.78320833 80.64085723 -71.2421875 78.50390625 C-71.77328125 77.52550781 -72.304375 76.54710937 -72.8515625 75.5390625 C-82.13633145 58.35455752 -88.69335268 42.87479385 -83.99609375 22.8046875 C-82.64369266 18.67741162 -80.60320475 15.13116739 -78.2421875 11.50390625 C-77.82195312 10.83617187 -77.40171875 10.1684375 -76.96875 9.48046875 C-69.28415643 -1.7576941 -58.20995441 -8.17973619 -45.2421875 -11.49609375 C-28.76107025 -14.56850932 -12.98190195 -10.50668597 0 0 Z M-59.19140625 19.125 C-60.05185547 20.51912109 -60.05185547 20.51912109 -60.9296875 21.94140625 C-61.51105469 22.86824219 -62.09242187 23.79507813 -62.69140625 24.75 C-66.99144906 32.38609618 -67.74305471 40.52739909 -65.58984375 49.1015625 C-61.76486591 58.40955577 -55.18703309 65.89896723 -46.2421875 70.50390625 C-43.41256421 71.51760752 -43.41256421 71.51760752 -40.2421875 71.50390625 C-38.89640625 71.57738281 -38.89640625 71.57738281 -37.5234375 71.65234375 C-26.05467982 72.02884337 -19.36289902 69.42095694 -10.6328125 61.91015625 C-7.45932815 58.71593017 -5.71587783 55.71703321 -4.2421875 51.50390625 C-3.6234375 50.11171875 -3.6234375 50.11171875 -2.9921875 48.69140625 C-0.83035121 39.503602 -2.30530144 31.01886503 -6.2421875 22.50390625 C-8.4926072 19.586001 -8.4926072 19.586001 -11.2421875 17.50390625 C-12.0878125 16.49328125 -12.9334375 15.48265625 -13.8046875 14.44140625 C-19.21193182 9.07575612 -27.33852622 7.33783963 -34.7421875 6.94140625 C-44.02531939 7.30465924 -53.60342197 11.61089689 -59.19140625 19.125 Z " fill="#757575" transform="translate(135.2421875,254.49609375)"/>
<path d="M0 0 C0.74072754 0.18804199 1.48145508 0.37608398 2.24462891 0.56982422 C15.98276399 4.17726851 30.96619865 9.55444438 41 20 C42.66098507 21.00940893 44.32797638 22.00898296 46 23 C47.74407014 24.41540038 49.45215547 25.87609037 51.125 27.375 C51.97320312 28.12523437 52.82140625 28.87546875 53.6953125 29.6484375 C55.97811915 31.97767412 57.336358 34.21577012 59 37 C59.78503906 37.77730469 60.57007813 38.55460937 61.37890625 39.35546875 C70.62348335 48.68270973 76.2813204 61.58056364 80 74 C80.26780273 74.83281494 80.53560547 75.66562988 80.81152344 76.52368164 C83.24600805 84.90104569 83.46173873 92.9344224 83.39111328 101.58422852 C83.3748568 103.95841439 83.39113388 106.33093985 83.41015625 108.70507812 C83.40817645 110.22917039 83.40433825 111.75326163 83.3984375 113.27734375 C83.40451019 113.97947495 83.41058289 114.68160614 83.4168396 115.40501404 C83.35457408 119.76137898 82.66799978 122.53208878 80 126 C77.53630468 127.23184766 75.8105499 127.16732342 73.0625 127.1875 C71.74958984 127.20876953 71.74958984 127.20876953 70.41015625 127.23046875 C68 127 68 127 65 125 C64.02147049 122.06441148 63.84923918 120.04841719 63.7890625 116.984375 C63.03727119 88.19984501 57.26106422 62.69878814 36 42 C17.0790518 24.48712236 -5.41640097 17.10573538 -30.9765625 17.63671875 C-53.64466686 18.65920417 -74.20461217 29.07221882 -90.03515625 45.0546875 C-98.73421403 54.57585403 -104.5471038 65.00271371 -109.125 76.9375 C-109.37902588 77.59379395 -109.63305176 78.25008789 -109.89477539 78.92626953 C-113.58899627 88.81744511 -114.21659269 97.49609658 -113.74609375 108.00390625 C-113.53801557 116.82886918 -116.2890414 121.26922737 -122 128 C-126.29770956 125.96024822 -129.94292964 123.70066412 -133 120 C-133.82128057 116.66012568 -134.01843843 114.37884216 -134 111 C-134.03609375 109.73542969 -134.0721875 108.47085938 -134.109375 107.16796875 C-134.84559657 75.0791195 -122.51310955 49.46737629 -100.68359375 26.5703125 C-74.22805177 1.23152556 -35.49569476 -9.17342123 0 0 Z " fill="#F05E2D" transform="translate(305,150)"/>
<path d="M0 0 C2.73192623 1.63915574 3.6202925 2.82590445 4.59375 5.8359375 C5.34288677 9.59602781 5.24348396 11.51303208 3.5 15 C2.2625 16.485 2.2625 16.485 1 18 C0.23429687 18.94166016 0.23429687 18.94166016 -0.546875 19.90234375 C-3.32768086 23.22527919 -6.19107791 26.19258839 -9.484375 29.0078125 C-15.27838191 34.0189722 -20.60924972 39.50231585 -26 44.9375 C-27.07137887 46.01390654 -28.14299182 47.09008014 -29.21484375 48.16601562 C-31.81259638 50.77466745 -34.40717962 53.38644471 -37 56 C-35.76163579 59.71509263 -33.77895064 61.28882864 -31 64 C-29.03944291 66.94083564 -28.68785455 67.68127952 -28.625 71 C-28.58246094 72.0209375 -28.58246094 72.0209375 -28.5390625 73.0625 C-29 75 -29 75 -30.4765625 76.6484375 C-34.10256319 78.59053694 -37.70836686 79.04385014 -41.75 79.625 C-42.5234375 79.74617188 -43.296875 79.86734375 -44.09375 79.9921875 C-46.39353393 80.3471877 -48.69522393 80.67911653 -51 81 C-51.70092773 81.09788818 -52.40185547 81.19577637 -53.12402344 81.29663086 C-57.33677675 81.85586829 -61.50159407 82.21594532 -65.75 82.3125 C-66.83796875 82.34988281 -67.9259375 82.38726562 -69.046875 82.42578125 C-72.67230518 81.90306711 -73.75692068 80.8248125 -76 78 C-79.34786564 71.30426871 -76.78239468 59.94653838 -76.1875 52.6875 C-76.11748779 51.74487305 -76.04747559 50.80224609 -75.9753418 49.83105469 C-74.91709707 37.91709707 -74.91709707 37.91709707 -71 34 C-67.61888916 33.56170785 -64.37691132 33.52059449 -61 34 C-58.1875 36.3125 -58.1875 36.3125 -56 39 C-54.36622358 40.05287814 -52.70818403 41.0727001 -51 42 C-50.32904297 41.22076172 -50.32904297 41.22076172 -49.64453125 40.42578125 C-45.37307846 35.49858304 -41.14857699 30.73714735 -36.0625 26.625 C-33.15447059 24.25383756 -30.83049433 21.57159319 -28.43359375 18.6953125 C-25.56285152 15.30048381 -22.44700377 12.36319056 -19 9.5625 C-16.7546154 7.64456732 -15.07679112 6.00125141 -13.25 3.75 C-9.49841536 -0.83527012 -5.64662538 -0.69326895 0 0 Z " fill="#727272" transform="translate(454,77)"/>
<path d="M0 0 C3.06585904 2.52615957 4.79737409 4.05127659 5.63923645 7.99299622 C5.64589828 9.10108139 5.65256012 10.20916656 5.65942383 11.35083008 C5.67906693 12.6117598 5.69871002 13.87268951 5.71894836 15.17182922 C5.71550544 16.53773134 5.71152046 17.90363218 5.70703125 19.26953125 C5.72015366 20.67488237 5.73545957 22.08021466 5.75285339 23.48551941 C5.79265426 27.17302426 5.80289051 30.8600352 5.80688477 34.54772949 C5.81622571 38.31517472 5.85364509 42.08233088 5.88867188 45.84960938 C5.95319731 53.23307546 5.98647848 60.61624562 6 68 C6.66 67.67 7.32 67.34 8 67 C9.78752492 66.85245826 11.5816284 66.7788478 13.375 66.75 C14.33148438 66.72421875 15.28796875 66.6984375 16.2734375 66.671875 C19.45310099 67.05452791 20.77374181 67.7171856 23 70 C24.04643898 73.0815381 23.70707437 75.85587595 23 79 C21.04032699 82.95766365 18.63198721 86.46156076 16 90 C15.50242187 90.6703125 15.00484375 91.340625 14.4921875 92.03125 C13.1875 93.6875 13.1875 93.6875 11 96 C10.34 96 9.68 96 9 96 C8.86271484 96.85851562 8.86271484 96.85851562 8.72265625 97.734375 C7.2897246 102.22680937 3.6995214 105.24147185 0 108 C-2.99739976 109.1989599 -4.98908215 109.14594635 -8 108 C-16.46649538 102.26636073 -16.46649538 102.26636073 -17.50390625 97.859375 C-17.66761719 97.24578125 -17.83132813 96.6321875 -18 96 C-19.32267513 95.31242984 -20.65743713 94.64787896 -22 94 C-27.6842737 86.89813237 -31 78.08873321 -31 69 C-29.29301718 68.65981837 -27.58432867 68.3281911 -25.875 68 C-24.92367188 67.814375 -23.97234375 67.62875 -22.9921875 67.4375 C-19.94834148 66.9924468 -17.07129562 66.97014536 -14 67 C-14.00666183 66.24689041 -14.01332367 65.49378082 -14.02018738 64.71784973 C-14.08036296 57.61153931 -14.12600706 50.50531754 -14.15543652 43.39882374 C-14.17107533 39.74550802 -14.19228048 36.09240329 -14.22631836 32.43920898 C-14.25897625 28.91194784 -14.27686644 25.38488932 -14.28463173 21.85748863 C-14.29285133 19.86055692 -14.31626061 17.86370642 -14.33988953 15.86689758 C-14.34011612 14.64600937 -14.34034271 13.42512115 -14.34057617 12.16723633 C-14.34723801 11.09468094 -14.35389984 10.02212555 -14.36076355 8.91706848 C-13.94442612 5.55063973 -13.05368885 3.68331599 -11 1 C-7.35593938 -0.21468687 -3.75412801 -0.92134277 0 0 Z " fill="#6E6E6E" transform="translate(284,7)"/>
<path d="M0 0 C5.88638629 0.07357983 8.65362914 3.71332225 12.62109375 7.6875 C14.46900503 9.53272926 16.32103204 11.37272908 18.1796875 13.20703125 C23.21520336 18.18951551 28.13158042 23.18672117 32.73828125 28.57421875 C37.48680463 34.00615244 42.78769189 38.75220138 48.3125 43.375 C49.17875 42.26125 49.17875 42.26125 50.0625 41.125 C50.805 40.2175 51.5475 39.31 52.3125 38.375 C52.89 37.611875 53.4675 36.84875 54.0625 36.0625 C56.92254327 33.91746755 58.82237378 33.89828322 62.3125 33.84375 C65.23831422 34.6209194 66.42923922 36.03975663 68.3125 38.375 C71.76999191 46.87856119 71.97754422 56.32162386 72.3125 65.375 C72.38855469 66.51195312 72.46460938 67.64890625 72.54296875 68.8203125 C72.75157821 73.40972072 72.76171218 76.47657563 70.6875 80.625 C61.23975563 85.52383041 46.29104726 82.42141183 36.421875 79.52734375 C31.19686017 77.59533976 27.35094468 75.20089496 23.3125 71.375 C24.87617357 67.85261953 27.00745889 65.10376006 29.4375 62.125 C30.16195312 61.23296875 30.88640625 60.3409375 31.6328125 59.421875 C32.18710938 58.74640625 32.74140625 58.0709375 33.3125 57.375 C29.7490375 52.96309404 26.08827229 49.15672486 21.6328125 45.63671875 C20.97925781 45.01216797 20.97925781 45.01216797 20.3125 44.375 C20.3125 43.715 20.3125 43.055 20.3125 42.375 C19.6525 42.375 18.9925 42.375 18.3125 42.375 C16.98046875 41.01953125 16.98046875 41.01953125 15.5 39.1875 C11.94409064 34.8117295 7.96788383 30.95941414 3.796875 27.17578125 C-7.51165892 16.73701999 -7.51165892 16.73701999 -8.25 10.8125 C-8.00734248 4.91106915 -6.04566176 0.61481306 0 0 Z " fill="#717171" transform="translate(109.6875,76.625)"/>
<path d="M0 0 C0.33 0 0.66 0 1 0 C4.23591022 23.05586035 4.23591022 23.05586035 -1 31 C-4.64135132 33.65673184 -7.18539966 34.37498924 -11.66151428 34.3742218 C-12.79010361 34.38123611 -13.91869293 34.38825043 -15.08148193 34.39547729 C-16.31022034 34.38783356 -17.53895874 34.38018982 -18.80493164 34.37231445 C-20.10621506 34.37596512 -21.40749847 34.37961578 -22.74821472 34.38337708 C-26.31015616 34.39276785 -29.87182194 34.38337657 -33.43374181 34.37004495 C-37.16346471 34.3587143 -40.89317437 34.36283914 -44.62290955 34.36479187 C-50.88480118 34.36567423 -57.14658442 34.35460579 -63.40844727 34.33618164 C-70.6470151 34.31500564 -77.88542428 34.31150644 -85.12401682 34.3177436 C-92.09029742 34.32343866 -99.05652218 34.31779053 -106.02279472 34.30657005 C-108.98642446 34.30192688 -111.95002003 34.30104898 -114.91365242 34.3031559 C-119.05067377 34.30538965 -123.18747297 34.29092859 -127.32446289 34.2746582 C-129.17060684 34.27837433 -129.17060684 34.27837433 -131.05404663 34.28216553 C-132.74270088 34.27153831 -132.74270088 34.27153831 -134.46546936 34.26069641 C-135.44345017 34.25864354 -136.42143099 34.25659067 -137.42904758 34.25447559 C-140.08099358 33.99198317 -141.72646195 33.3520979 -144 32 C-141.38168336 30.69084168 -139.49120454 30.89358241 -136.55844116 30.91770935 C-134.82520851 30.92826859 -134.82520851 30.92826859 -133.05696106 30.93904114 C-131.78310043 30.95198715 -130.50923981 30.96493317 -129.19677734 30.97827148 C-127.84674901 30.98841178 -126.49671726 30.99810573 -125.14668274 31.00738525 C-121.47538374 31.03389123 -117.80416393 31.06666559 -114.13292646 31.10053515 C-110.29857617 31.1348535 -106.46418338 31.163449 -102.62979126 31.19264221 C-95.3660059 31.24881958 -88.10227374 31.3101705 -80.8385464 31.37336355 C-72.57024845 31.44504552 -64.30190787 31.51098527 -56.03355861 31.57643402 C-39.02231671 31.71121691 -22.01114269 31.8532391 -5 32 C-5 30.02 -5 28.04 -5 26 C-3.68 26.33 -2.36 26.66 -1 27 C-0.67 18.09 -0.34 9.18 0 0 Z " fill="#B2B2B2" transform="translate(554,407)"/>
<path d="M0 0 C0 0.99 0 1.98 0 3 C-0.9787207 3.01981934 -1.95744141 3.03963867 -2.96582031 3.06005859 C-6.60393597 3.13624624 -10.24165853 3.22494295 -13.87939453 3.31738281 C-15.45255765 3.35561829 -17.02580658 3.39048066 -18.59912109 3.421875 C-20.86326723 3.46764422 -23.12682547 3.52561761 -25.390625 3.5859375 C-26.09181458 3.59748871 -26.79300415 3.60903992 -27.51544189 3.62094116 C-31.1272989 3.72961524 -33.97754672 3.91572669 -37 6 C-37.93210924 7.8485267 -37.93210924 7.8485267 -38.5625 9.9375 C-39.91325903 12.97532948 -40.6033746 13.8249338 -43.69921875 15.19140625 C-46.45855277 15.92275342 -49.18440017 16.53396968 -52 17 C-53.125 13.6875 -53.125 13.6875 -54 10 C-52 7 -52 7 -49.1875 6.1875 C-45.74334407 5.2414898 -45.74334407 5.2414898 -43.8046875 1.9453125 C-41.49427387 -0.95214853 -41.15294432 -0.97810645 -37.15234375 -1.55078125 C-35.74599776 -1.50201386 -34.34043981 -1.42180328 -32.9375 -1.3125 C-21.80632245 -0.75441908 -10.85508876 -4.13527191 0 0 Z " fill="#FFFFFE" transform="translate(64,122)"/>
<path d="M0 0 C-0.99 0.33 -1.98 0.66 -3 1 C-3.87914062 0.55011719 -4.75828125 0.10023438 -5.6640625 -0.36328125 C-9.62996686 -2.3090821 -13.0290595 -2.75919303 -17.375 -3.1875 C-18.11105469 -3.26935547 -18.84710938 -3.35121094 -19.60546875 -3.43554688 C-21.40254625 -3.63392556 -23.20114893 -3.81840577 -25 -4 C-25.495 -5.485 -25.495 -5.485 -26 -7 C-32.0000601 -7.87298796 -37.81560489 -8.15891452 -43.875 -8.125 C-44.7825 -8.12016602 -45.69 -8.11533203 -46.625 -8.11035156 C-49.41699429 -8.08604799 -52.20829031 -8.04638047 -55 -8 C-56.30952637 -7.98114746 -56.30952637 -7.98114746 -57.64550781 -7.96191406 C-60.09847822 -7.91587977 -62.5482604 -7.83925617 -65 -7.75 C-65.73460449 -7.73598145 -66.46920898 -7.72196289 -67.22607422 -7.70751953 C-72.13436859 -7.47663557 -74.37217972 -6.19426706 -78 -3 C-80.33297433 -2.95907063 -82.66705225 -2.95758277 -85 -3 C-87.09663191 -1.65670412 -87.09663191 -1.65670412 -89 0 C-90.9959722 0.67863055 -92.99568551 1.34641919 -95 2 C-96.95216435 3.95216435 -97.84826645 5.53199953 -99 8 C-99 7.01 -99 6.02 -99 5 C-105.4652248 5.96260014 -109.29385826 7.41452857 -114 12 C-114.66 11.67 -115.32 11.34 -116 11 C-87.34393926 -14.39041279 -32.98955374 -22.21340693 0 0 Z " fill="#EB9D5A" transform="translate(329,159)"/>
<path d="M0 0 C5.49718057 2.47120962 7.87916411 6.74464156 10.9375 11.6875 C11.46529053 12.5338501 11.99308105 13.3802002 12.53686523 14.25219727 C17.13386754 21.8362213 20.52083248 29.48130493 23 38 C23.26490234 38.82846436 23.52980469 39.65692871 23.80273438 40.51049805 C26.24105339 48.89546209 26.46180501 56.92630428 26.39111328 65.58422852 C26.3748568 67.95841439 26.39113388 70.33093985 26.41015625 72.70507812 C26.40817645 74.22917039 26.40433825 75.75326163 26.3984375 77.27734375 C26.40754654 78.33054054 26.40754654 78.33054054 26.4168396 79.40501404 C26.35443998 83.77076134 25.57957552 86.47218926 23 90 C22.34 89.67 21.68 89.34 21 89 C21.48855469 88.13890625 21.97710937 87.2778125 22.48046875 86.390625 C25.00518871 80.47633104 24.39225821 74.06046952 24.3125 67.75 C24.31572266 66.49058594 24.31894531 65.23117188 24.32226562 63.93359375 C24.27483977 55.629757 24.11045993 47.16843396 20.9309082 39.38183594 C20 37 20 37 20 34 C18.35 34 16.7 34 15 34 C14.77213542 32.01432292 14.54427083 30.02864583 14.31640625 28.04296875 C14.02829265 25.80603607 14.02829265 25.80603607 13 23 C12.01 22.34 11.02 21.68 10 21 C9.24654717 19.06722971 8.50018444 17.13052532 7.828125 15.16796875 C6.99937479 12.99836325 5.9991411 11.11805564 4.8125 9.125 C3 6 3 6 3 4 C2.34 4 1.68 4 1 4 C0.67 2.68 0.34 1.36 0 0 Z " fill="#F08F9D" transform="translate(362,186)"/>
<path d="M0 0 C0.33 0.66 0.66 1.32 1 2 C0.109375 4.42578125 0.109375 4.42578125 -1.25 7.3125 C-1.68828125 8.25738281 -2.1265625 9.20226562 -2.578125 10.17578125 C-4 13 -4 13 -5.60546875 15.66015625 C-7.20525901 18.34439817 -8.03366807 21.03658208 -9 24 C-9.66 24.99 -10.32 25.98 -11 27 C-11.43231378 29.5345455 -11.7849909 32.01182943 -12.0625 34.5625 C-12.88230816 41.76461632 -12.88230816 41.76461632 -14 44 C-14.2994571 48.59842191 -14.27813638 53.20548417 -14.3125 57.8125 C-14.34150391 59.09705078 -14.37050781 60.38160156 -14.40039062 61.70507812 C-14.40876953 62.94322266 -14.41714844 64.18136719 -14.42578125 65.45703125 C-14.44036377 66.59116455 -14.45494629 67.72529785 -14.4699707 68.89379883 C-13.90496869 72.62809525 -12.55936911 74.28801232 -10 77 C-12.46800047 75.84826645 -14.04783565 74.95216435 -16 73 C-20.43233425 47.7356948 -14.2016912 24.08694654 -2 2 C-1.34 1.34 -0.68 0.68 0 0 Z " fill="#F1B985" transform="translate(188,197)"/>
<path d="M0 0 C2.5 1.5 2.5 1.5 4 3 C3.67 3.66 3.34 4.32 3 5 C2.46375 4.505 1.9275 4.01 1.375 3.5 C-1.59358445 1.62510456 -3.55312427 1.76498575 -7 2 C-7.33 2.99 -7.66 3.98 -8 5 C-9.32 4.67 -10.64 4.34 -12 4 C-12 25.12 -12 46.24 -12 68 C-14.64 68 -17.28 68 -20 68 C-20 67.67 -20 67.34 -20 67 C-18.02 67 -16.04 67 -14 67 C-14.00666183 66.24689041 -14.01332367 65.49378082 -14.02018738 64.71784973 C-14.08036296 57.61153931 -14.12600706 50.50531754 -14.15543652 43.39882374 C-14.17107533 39.74550802 -14.19228048 36.09240329 -14.22631836 32.43920898 C-14.25897625 28.91194784 -14.27686644 25.38488932 -14.28463173 21.85748863 C-14.29285133 19.86055692 -14.31626061 17.86370642 -14.33988953 15.86689758 C-14.34011612 14.64600937 -14.34034271 13.42512115 -14.34057617 12.16723633 C-14.34723801 11.09468094 -14.35389984 10.02212555 -14.36076355 8.91706848 C-13.94442612 5.55063973 -13.05368885 3.68331599 -11 1 C-7.30624122 -0.23125293 -3.84512599 -0.46420032 0 0 Z " fill="#A6A6A6" transform="translate(284,7)"/>
<path d="M0 0 C10.89 0 21.78 0 33 0 C33 0.66 33 1.32 33 2 C39.56654456 4.3030887 45.03672362 5.33693273 52 5 C52.495 7.475 52.495 7.475 53 10 C52.3915625 9.82984375 51.783125 9.6596875 51.15625 9.484375 C49.2477242 8.95672375 47.3358225 8.44122703 45.421875 7.93359375 C43.10760655 7.30218946 40.80510221 6.62625955 38.515625 5.91015625 C17.42945281 -0.2363317 -2.5924046 3.01243934 -23 10 C-22.67 9.34 -22.34 8.68 -22 8 C-21.34 8 -20.68 8 -20 8 C-20 7.34 -20 6.68 -20 6 C-17.23010036 5.32923511 -14.45920258 4.66323683 -11.6875 4 C-10.90181641 3.80921875 -10.11613281 3.6184375 -9.30664062 3.421875 C-8.54931641 3.24140625 -7.79199219 3.0609375 -7.01171875 2.875 C-6.31522217 2.70742187 -5.61872559 2.53984375 -4.90112305 2.3671875 C-3 2 -3 2 0 2 C0 1.34 0 0.68 0 0 Z " fill="#F2B68B" transform="translate(265,165)"/>
<path d="M0 0 C0.33 0.66 0.66 1.32 1 2 C0.06560755 3.52146139 -0.95305447 4.99118085 -2 6.4375 C-5.40689159 11.6058706 -7.69286315 16.81585606 -9.8125 22.625 C-10.10189453 23.41189209 -10.39128906 24.19878418 -10.68945312 25.00952148 C-12.55708361 30.27898598 -13.8795343 35.52338228 -15 41 C-15.33 41 -15.66 41 -16 41 C-16.38063221 38.6739143 -16.71269945 36.33944736 -17 34 C-16.505 33.505 -16.505 33.505 -16 33 C-15.76924918 31.65252916 -15.58846937 30.29622435 -15.4375 28.9375 C-15.293125 27.638125 -15.14875 26.33875 -15 25 C-14.34 25 -13.68 25 -13 25 C-13.185625 24.401875 -13.37125 23.80375 -13.5625 23.1875 C-14 21 -14 21 -13 18 C-13.39397335 15.36195411 -13.39397335 15.36195411 -14 13 C-13.34 13 -12.68 13 -12 13 C-11.67 11.68 -11.34 10.36 -11 9 C-10.01 9 -9.02 9 -8 9 C-7.63648438 8.15115234 -7.63648438 8.15115234 -7.265625 7.28515625 C-6.93046875 6.55167969 -6.5953125 5.81820312 -6.25 5.0625 C-5.92515625 4.33160156 -5.6003125 3.60070312 -5.265625 2.84765625 C-4 1 -4 1 -1.859375 0.24609375 C-0.93898437 0.12427734 -0.93898437 0.12427734 0 0 Z " fill="#EE8328" transform="translate(206,203)"/>
<path d="M0 0 C4.33641539 0.04511225 7.48366476 0.09629701 10.75 3.25 C10.75 4.57 10.75 5.89 10.75 7.25 C3.86068131 10.2758298 3.86068131 10.2758298 0.0625 10.1875 C-2.84495333 9.0088027 -4.91224445 7.32058348 -7.25 5.25 C-6.09347344 0.12823951 -5.24784342 0.08419 0 0 Z " fill="#FFFFFF" transform="translate(82.25,118.75)"/>
<path d="M0 0 C0.66 0 1.32 0 2 0 C2.28674388 3.18529166 2.52261805 6.37246503 2.75 9.5625 C2.87181641 10.90538086 2.87181641 10.90538086 2.99609375 12.27539062 C3.57203272 21.01046496 0.63194193 25.36235416 -5 32 C-8.875 30.25 -8.875 30.25 -10 28 C-8.35 28 -6.7 28 -5 28 C-5 27.01 -5 26.02 -5 25 C-4.34 25 -3.68 25 -3 25 C-3.20625 23.7625 -3.4125 22.525 -3.625 21.25 C-4.0749434 17.74290693 -3.80577048 16.08043199 -2 13 C-1.83333333 10.5 -1.83333333 10.5 -2 8 C-2 4.23312136 -1.76462683 3.08809695 0 0 Z " fill="#F39E55" transform="translate(188,246)"/>
<path d="M0 0 C-0.99 0.33 -1.98 0.66 -3 1 C-3.87914062 0.55011719 -4.75828125 0.10023438 -5.6640625 -0.36328125 C-9.62996686 -2.3090821 -13.0290595 -2.75919303 -17.375 -3.1875 C-18.11105469 -3.26935547 -18.84710938 -3.35121094 -19.60546875 -3.43554688 C-21.40254625 -3.63392556 -23.20114893 -3.81840577 -25 -4 C-25.495 -5.485 -25.495 -5.485 -26 -7 C-38.93189582 -9.27255073 -50.89388643 -11.01632516 -64 -9 C-66.67353824 -8.91927149 -69.32433611 -8.95305853 -72 -9 C-72 -9.33 -72 -9.66 -72 -10 C-49.82470586 -15.04803444 -19.38575629 -13.0533349 0 0 Z " fill="#F5B89D" transform="translate(329,159)"/>
<path d="M0 0 C4.21343774 0.49484243 6.05130055 1.54965553 8.8125 4.75 C9.71935547 5.76320313 9.71935547 5.76320313 10.64453125 6.796875 C12.25089574 9.40779596 12.2685261 10.98829554 12 14 C9.875 14.8125 9.875 14.8125 7 15 C1.62388592 11.38146168 1.62388592 11.38146168 0.125 8.0625 C-0.03828677 5.36826828 -0.06132156 2.69814879 0 0 Z " fill="#FFFFFF" transform="translate(115,121)"/>
<path d="M0 0 C9.94673588 2.19328412 18.81550796 5.58766994 26 13 C26.86625 13.515625 27.7325 14.03125 28.625 14.5625 C31 16 31 16 33 19 C32.1646875 18.5359375 32.1646875 18.5359375 31.3125 18.0625 C28.87459567 16.94238179 26.63775814 16.43962636 24 16 C24 15.34 24 14.68 24 14 C23.34 14 22.68 14 22 14 C22 13.34 22 12.68 22 12 C20.02 12.33 18.04 12.66 16 13 C16 12.34 16 11.68 16 11 C15.34 11 14.68 11 14 11 C14 10.34 14 9.68 14 9 C13.01 9 12.02 9 11 9 C10.79375 8.195625 10.5875 7.39125 10.375 6.5625 C9.92125 5.716875 9.4675 4.87125 9 4 C6.06991681 3.16442277 6.06991681 3.16442277 3 3 C2.01 2.67 1.02 2.34 0 2 C0 1.34 0 0.68 0 0 Z " fill="#E55745" transform="translate(320,157)"/>
<path d="M0 0 C0.66 0.33 1.32 0.66 2 1 C1.01 1.99 0.02 2.98 -1 4 C-0.34 4.33 0.32 4.66 1 5 C-3.51044689 10.76334881 -3.51044689 10.76334881 -5.8828125 11.91015625 C-8.67515817 13.34754452 -10.45543118 15.30223015 -12.625 17.5625 C-16.80555556 21.90277778 -16.80555556 21.90277778 -19 23 C-19.33 23.99 -19.66 24.98 -20 26 C-20.66 26 -21.32 26 -22 26 C-20.57222911 21.79303872 -18.5117051 18.85027893 -15.6875 15.4375 C-14.54861328 14.04337891 -14.54861328 14.04337891 -13.38671875 12.62109375 C-11.08542041 10.09380867 -8.6885756 8.09708897 -6 6 C-4.65263027 4.34466005 -3.31665664 2.67987227 -2 1 C-1.34 0.67 -0.68 0.34 0 0 Z " fill="#EDAD74" transform="translate(211,171)"/>
<path d="M0 0 C3.136986 4.705479 2.33390979 9.69495602 2.31567383 15.23193359 C2.31253319 17.22889666 2.33678517 19.22584154 2.36132812 21.22265625 C2.36741444 33.23703251 2.36741444 33.23703251 -1 39 C-1.495 39.495 -1.495 39.495 -2 40 C-3.69141656 39.91036938 -5.37959602 39.75422324 -7.0625 39.5625 C-7.98160156 39.46066406 -8.90070313 39.35882813 -9.84765625 39.25390625 C-10.55792969 39.17011719 -11.26820313 39.08632813 -12 39 C-11.67 38.34 -11.34 37.68 -11 37 C-8.4375 36.375 -8.4375 36.375 -6 36 C-6 36.66 -6 37.32 -6 38 C-3.40534957 37.03557533 -3.40534957 37.03557533 -1 35 C-0.43216227 32.28630035 -0.20933283 30.1653742 -0.1875 27.4375 C-0.16308838 26.69894775 -0.13867676 25.96039551 -0.11352539 25.19946289 C-0.0446993 22.79912158 -0.01707045 20.40124309 0 18 C0.00837891 17.15566406 0.01675781 16.31132812 0.02539062 15.44140625 C0.06848686 10.29336461 0.05418832 5.14789082 0 0 Z " fill="#D62642" transform="translate(385,236)"/>
<path d="M0 0 C-0.78503906 0.6290625 -1.57007813 1.258125 -2.37890625 1.90625 C-7.92552051 6.40641658 -13.09513486 10.81533285 -17.59765625 16.40625 C-19 18 -19 18 -22 20 C-21.67 19.0925 -21.34 18.185 -21 17.25 C-19.80394277 13.92954193 -19.80394277 13.92954193 -20 10 C-19.21625 9.773125 -18.4325 9.54625 -17.625 9.3125 C-14.78125 8.21875 -14.78125 8.21875 -13.6875 5.375 C-13.460625 4.59125 -13.23375 3.8075 -13 3 C-12.34 3 -11.68 3 -11 3 C-11 3.66 -11 4.32 -11 5 C-10.34 5 -9.68 5 -9 5 C-9 3.68 -9 2.36 -9 1 C-2.25 -1.125 -2.25 -1.125 0 0 Z " fill="#F2B177" transform="translate(229,183)"/>
<path d="M0 0 C2.85793316 2.85793316 2.40799941 5.14665584 2.625 9.125 C2.69976562 10.40632812 2.77453125 11.68765625 2.8515625 13.0078125 C2.92503906 14.48894531 2.92503906 14.48894531 3 16 C3.33 16 3.66 16 4 16 C3.98839844 16.89203125 3.97679687 17.7840625 3.96484375 18.703125 C3.95582031 19.87359375 3.94679688 21.0440625 3.9375 22.25 C3.92589844 23.41015625 3.91429687 24.5703125 3.90234375 25.765625 C3.88993743 29.16366549 3.88993743 29.16366549 5 33 C8.3 33.33 11.6 33.66 15 34 C15 34.33 15 34.66 15 35 C13.39620659 35.05416188 11.79188594 35.09286638 10.1875 35.125 C9.29417969 35.14820313 8.40085937 35.17140625 7.48046875 35.1953125 C5 35 5 35 2 33 C0.85705686 29.57117059 0.79035528 26.75917162 0.68359375 23.14453125 C0.66281265 22.48289474 0.64203156 21.82125824 0.62062073 21.13957214 C0.55535273 19.03065148 0.49634656 16.92160865 0.4375 14.8125 C0.39429311 13.38084685 0.35067812 11.94920596 0.30664062 10.51757812 C0.19969494 7.01184846 0.09836359 3.50598214 0 0 Z " fill="#E3717B" transform="translate(368,242)"/>
<path d="M0 0 C1.50433594 0.01353516 1.50433594 0.01353516 3.0390625 0.02734375 C3.80992188 0.03894531 4.58078125 0.05054687 5.375 0.0625 C5.375 1.3825 5.375 2.7025 5.375 4.0625 C3.76625 4.43375 3.76625 4.43375 2.125 4.8125 C-1.69508662 6.08586221 -2.96189535 7.20917359 -5.625 10.0625 C-6.615 10.0625 -7.605 10.0625 -8.625 10.0625 C-8.51137738 8.5824159 -8.38377092 7.10339926 -8.25 5.625 C-8.18039063 4.80128906 -8.11078125 3.97757812 -8.0390625 3.12890625 C-7.90242188 2.44699219 -7.76578125 1.76507813 -7.625 1.0625 C-4.98041621 -0.25979189 -2.94738699 -0.03427194 0 0 Z " fill="#FFFFFF" transform="translate(90.625,92.9375)"/>
<path d="M0 0 C1.22589844 0.15275391 1.22589844 0.15275391 2.4765625 0.30859375 C3.41628906 0.43427734 3.41628906 0.43427734 4.375 0.5625 C5 2.4375 5 2.4375 5.375 4.5625 C3.375 6.5625 3.375 6.5625 1.28125 6.828125 C0.4871875 6.82296875 -0.306875 6.8178125 -1.125 6.8125 C-1.9190625 6.81765625 -2.713125 6.8228125 -3.53125 6.828125 C-5.625 6.5625 -5.625 6.5625 -7.625 4.5625 C-7.375 2.5 -7.375 2.5 -6.625 0.5625 C-4.10446405 -0.69776798 -2.7707902 -0.35624445 0 0 Z " fill="#FFFFFF" transform="translate(69.625,100.4375)"/>
<path d="M0 0 C0.99 0.66 1.98 1.32 3 2 C2.38545304 5.99455527 0.29353263 8.74466336 -2 12 C-2.33 11.01 -2.66 10.02 -3 9 C-3.99 9.33 -4.98 9.66 -6 10 C-7.01529541 12.32671865 -8.01488198 14.6603447 -9 17 C-9.99 17.66 -10.98 18.32 -12 19 C-11.52269162 17.5410574 -11.04308958 16.08286504 -10.5625 14.625 C-10.29566406 13.81289062 -10.02882812 13.00078125 -9.75390625 12.1640625 C-9 10 -9 10 -8 8 C-7.34 8 -6.68 8 -6 8 C-5.938125 7.4225 -5.87625 6.845 -5.8125 6.25 C-4.67972699 3.11309013 -2.65802405 1.90832496 0 0 Z " fill="#F28123" transform="translate(197,189)"/>
<path d="M0 0 C1.09183594 -0.00257813 2.18367188 -0.00515625 3.30859375 -0.0078125 C6.47442524 0.12140511 9.45285545 0.53402683 12.5625 1.125 C12.5625 1.455 12.5625 1.785 12.5625 2.125 C11.58023438 2.13901855 11.58023438 2.13901855 10.578125 2.15332031 C7.57219095 2.2074526 4.56774225 2.29101389 1.5625 2.375 C0.53253906 2.38917969 -0.49742187 2.40335938 -1.55859375 2.41796875 C-8.23785189 2.63068398 -12.74497489 3.55374604 -18.4375 7.125 C-18.7675 7.785 -19.0975 8.445 -19.4375 9.125 C-21.7475 9.125 -24.0575 9.125 -26.4375 9.125 C-26.4375 8.465 -26.4375 7.805 -26.4375 7.125 C-24.0437703 6.14040929 -21.6477493 5.16221297 -19.25 4.1875 C-18.57646484 3.90970703 -17.90292969 3.63191406 -17.20898438 3.34570312 C-11.34796745 0.97270603 -6.37111647 -0.01500852 0 0 Z " fill="#CECECE" transform="translate(457.4375,241.875)"/>
<path d="M0 0 C-0.81404297 0.36351562 -0.81404297 0.36351562 -1.64453125 0.734375 C-7.56237482 3.50669811 -10.23201249 6.03818075 -13 12 C-13 11.01 -13 10.02 -13 9 C-19.4652248 9.96260014 -23.29385826 11.41452857 -28 16 C-28.66 15.67 -29.32 15.34 -30 15 C-24.53009567 10.15344659 -18.5910989 6.46035523 -12.1875 3 C-11.44636963 2.59015869 -10.70523926 2.18031738 -9.94165039 1.75805664 C-9.23258545 1.38414795 -8.52352051 1.01023926 -7.79296875 0.625 C-6.84200317 0.11839844 -6.84200317 0.11839844 -5.87182617 -0.3984375 C-3.56186858 -1.14080551 -2.26338315 -0.77232739 0 0 Z " fill="#F4BF89" transform="translate(243,155)"/>
<path d="M0 0 C0.66 0 1.32 0 2 0 C1.58243961 4.87153789 -0.49732992 6.75362285 -4 10 C-4.99 11.485 -4.99 11.485 -6 13 C-6.66 13 -7.32 13 -8 13 C-8.0825 13.5775 -8.165 14.155 -8.25 14.75 C-9.21354807 17.64064422 -10.76616011 18.96923646 -13 21 C-13.66 21.66 -14.32 22.32 -15 23 C-14.64457263 17.51780212 -11.30630722 13.9755743 -8.0625 9.8125 C-7.51142578 9.08869141 -6.96035156 8.36488281 -6.39257812 7.61914062 C-4.35002594 4.95116541 -2.37815192 2.37815192 0 0 Z " fill="#9F9F9F" transform="translate(187,342)"/>
<path d="M0 0 C1.38080152 4.14240457 -0.24025198 6.77091312 -1.8125 10.625 C-4.07655328 16.3804959 -5.90888942 21.88978074 -7 28 C-7.33 28 -7.66 28 -8 28 C-8.38063221 25.6739143 -8.71269945 23.33944736 -9 21 C-8.67 20.67 -8.34 20.34 -8 20 C-7.76924918 18.65252916 -7.58846937 17.29622435 -7.4375 15.9375 C-7.293125 14.638125 -7.14875 13.33875 -7 12 C-6.34 12 -5.68 12 -5 12 C-5.3403125 11.13375 -5.3403125 11.13375 -5.6875 10.25 C-6 8 -6 8 -4.6875 5.75 C-3.8521875 4.88375 -3.8521875 4.88375 -3 4 C-2.34 4 -1.68 4 -1 4 C-0.67 2.68 -0.34 1.36 0 0 Z " fill="#F1B77F" transform="translate(198,216)"/>
<path d="M0 0 C0 0.99 0 1.98 0 3 C0.3062434 4.33981486 0.63451555 5.67511887 1 7 C-4.62338249 9.14710968 -10.27789404 11.13236819 -16 13 C-11.3126338 7.82773385 -5.68271819 4.01074507 0 0 Z " fill="#EB8834" transform="translate(223,164)"/>
<path d="M0 0 C0.33 0.99 0.66 1.98 1 3 C3.01508358 3.73323796 3.01508358 3.73323796 5 4 C4.34 4 3.68 4 3 4 C3.99 5.485 3.99 5.485 5 7 C5 7.99 5 8.98 5 10 C5.66 10.66 6.32 11.32 7 12 C7.39460023 14.32375692 7.72230092 16.6593935 8 19 C8.31966139 20.66934283 8.64731066 22.3373217 9 24 C8.34 24.33 7.68 24.66 7 25 C6.16301614 22.54285453 5.33027576 20.08441143 4.5 17.625 C4.26152344 16.92632812 4.02304687 16.22765625 3.77734375 15.5078125 C2 10.2265625 2 10.2265625 2 8 C1.34 8 0.68 8 0 8 C0 5.36 0 2.72 0 0 Z " fill="#DC444F" transform="translate(361,213)"/>
<path d="M0 0 C2.31 0 4.62 0 7 0 C7 0.66 7 1.32 7 2 C4.69 2.33 2.38 2.66 0 3 C0 3.66 0 4.32 0 5 C-5.28 6.32 -10.56 7.64 -16 9 C-15.67 8.01 -15.34 7.02 -15 6 C-12.85546875 5.0859375 -12.85546875 5.0859375 -10.1875 4.375 C-9.31480469 4.13523438 -8.44210937 3.89546875 -7.54296875 3.6484375 C-5.95023442 3.24230248 -4.34887369 2.86730068 -2.73828125 2.5390625 C-2.16464844 2.36117187 -1.59101563 2.18328125 -1 2 C-0.67 1.34 -0.34 0.68 0 0 Z " fill="#EE7D23" transform="translate(265,162)"/>
<path d="M0 0 C3.59391114 1.33488128 6.75490696 2.96022723 10 5 C9.67 6.65 9.34 8.3 9 10 C5.49849196 9.70820766 4.21713533 9.21713533 1.6875 6.6875 C0 4 0 4 0 0 Z " fill="#FEFEFE" transform="translate(132,88)"/>
<path d="M0 0 C0.66 0.33 1.32 0.66 2 1 C-0.21928194 3.90802461 -1.92969143 5.95312762 -5 8 C-5.99 9.485 -5.99 9.485 -7 11 C-9.78537511 11.78561862 -12.1003917 12 -15 12 C-10.19200621 7.66656144 -5.33522342 3.6679661 0 0 Z " fill="#A7A7A7" transform="translate(213,320)"/>
<path d="M0 0 C2.97 0.495 2.97 0.495 6 1 C6.33 2.98 6.66 4.96 7 7 C8.98 7 10.96 7 13 7 C13 8.98 13 10.96 13 13 C9.81440048 11.60366893 7.76056155 9.95442507 5.375 7.4375 C2.95478041 4.85984611 2.95478041 4.85984611 0 3 C0 2.01 0 1.02 0 0 Z " fill="#E1453E" transform="translate(338,185)"/>
<path d="M0 0 C0.66 0.33 1.32 0.66 2 1 C0.515 2.485 0.515 2.485 -1 4 C-0.34 4.33 0.32 4.66 1 5 C-0.65 6.98 -2.3 8.96 -4 11 C-4.556875 10.7525 -5.11375 10.505 -5.6875 10.25 C-8.24050936 9.71646324 -8.24050936 9.71646324 -10.75 11.9375 C-11.4925 12.618125 -12.235 13.29875 -13 14 C-11.49091551 10.15869402 -9.1970513 8.51196888 -6 6 C-4.65263027 4.34466005 -3.31665664 2.67987227 -2 1 C-1.34 0.67 -0.68 0.34 0 0 Z " fill="#F6BA83" transform="translate(211,171)"/>
<path d="M0 0 C4.89501032 1.19390496 7.70076661 3.24052178 11.328125 6.546875 C13.09601506 8.16866114 13.09601506 8.16866114 15.8125 9.6875 C18 11 18 11 20 14 C19.443125 13.690625 18.88625 13.38125 18.3125 13.0625 C15.87459567 11.94238179 13.63775814 11.43962636 11 11 C11 10.34 11 9.68 11 9 C10.34 9 9.68 9 9 9 C9 8.34 9 7.68 9 7 C8.34 7 7.68 7 7 7 C6 6 5 5 4 4 C3.01 3.67 2.02 3.34 1 3 C0.67 2.01 0.34 1.02 0 0 Z " fill="#F1A8A2" transform="translate(333,162)"/>
<path d="M0 0 C1.98 0 3.96 0 6 0 C7 3 7 3 6.5 4.9375 C5.92297519 7.31772734 6.25977147 8.69706679 7 11 C6.34 11 5.68 11 5 11 C3.7109375 9.35546875 3.7109375 9.35546875 2.375 7.1875 C1.92898438 6.47980469 1.48296875 5.77210938 1.0234375 5.04296875 C0 3 0 3 0 0 Z " fill="#E4393C" transform="translate(353,201)"/>
<path d="M0 0 C2.00910105 6.69196816 0.06818311 13.51969293 -2 20 C-2.33 20 -2.66 20 -3 20 C-3.02709444 17.91673869 -3.04643873 15.83337559 -3.0625 13.75 C-3.07410156 12.58984375 -3.08570313 11.4296875 -3.09765625 10.234375 C-3.01782092 7.59022872 -2.78643778 5.50173909 -2 3 C-1.34 3 -0.68 3 0 3 C0 2.01 0 1.02 0 0 Z " fill="#EEAA6E" transform="translate(175,226)"/>
<path d="M0 0 C5.55548012 2.45094711 7.95659662 7.01132848 11 12 C10.67 12.66 10.34 13.32 10 14 C6.78634109 12.89184175 6.0085776 12.01470446 4.25 9 C3 6 3 6 3 4 C2.34 4 1.68 4 1 4 C0.67 2.68 0.34 1.36 0 0 Z " fill="#EB9098" transform="translate(362,186)"/>
<path d="M0 0 C0.33 0.66 0.66 1.32 1 2 C-0.3984375 4.6015625 -0.3984375 4.6015625 -2.375 7.625 C-3.34566406 9.12933594 -3.34566406 9.12933594 -4.3359375 10.6640625 C-4.88507813 11.43492187 -5.43421875 12.20578125 -6 13 C-6.33 13 -6.66 13 -7 13 C-7.34568576 8.16039934 -6.66280693 5.08931064 -4 1 C-1.8125 0.125 -1.8125 0.125 0 0 Z " fill="#F1B67D" transform="translate(206,203)"/>
<path d="M0 0 C-8.20689655 7 -8.20689655 7 -13 7 C-13.33 6.01 -13.66 5.02 -14 4 C-9.02495953 0.75099398 -6.11774896 -0.49940808 0 0 Z " fill="#F2B780" transform="translate(242,175)"/>
<path d="M0 0 C1.43791516 0.14168137 2.8753237 0.28851043 4.3125 0.4375 C5.11300781 0.51871094 5.91351563 0.59992188 6.73828125 0.68359375 C9 1 9 1 12 2 C13.56118428 2.06740865 15.1250252 2.08514456 16.6875 2.0625 C17.49574219 2.05347656 18.30398438 2.04445312 19.13671875 2.03515625 C19.75160156 2.02355469 20.36648438 2.01195312 21 2 C21.33 3.65 21.66 5.3 22 7 C14.66666667 5 7.33333333 3 0 1 C0 0.67 0 0.34 0 0 Z " fill="#F4B8A1" transform="translate(296,168)"/>
<path d="M0 0 C0 0.33 0 0.66 0 1 C-3.43658708 1.22580354 -6.87417218 1.42762697 -10.3125 1.625 C-11.28896484 1.68945312 -12.26542969 1.75390625 -13.27148438 1.8203125 C-14.67817383 1.89765625 -14.67817383 1.89765625 -16.11328125 1.9765625 C-17.40939331 2.05511475 -17.40939331 2.05511475 -18.73168945 2.13525391 C-21 2 -21 2 -24 0 C-16.53887532 -2.48704156 -7.67942917 -1.02392389 0 0 Z " fill="#E67F3F" transform="translate(293,149)"/>
<path d="M0 0 C0.33 0.66 0.66 1.32 1 2 C0.01 2.66 -0.98 3.32 -2 4 C-2.45375 4.763125 -2.9075 5.52625 -3.375 6.3125 C-5.21835837 9.36113115 -7.4205931 11.5600205 -10 14 C-10.33 13.01 -10.66 12.02 -11 11 C-11.66 10.67 -12.32 10.34 -13 10 C-12.67 9.34 -12.34 8.68 -12 8 C-11.01 8.33 -10.02 8.66 -9 9 C-8.51789063 8.43410156 -8.03578125 7.86820312 -7.5390625 7.28515625 C-6.59160156 6.18494141 -6.59160156 6.18494141 -5.625 5.0625 C-4.99851562 4.33160156 -4.37203125 3.60070312 -3.7265625 2.84765625 C-2 1 -2 1 0 0 Z " fill="#BBBBBB" transform="translate(412,110)"/>
<path d="M0 0 C8.79393628 -0.42781312 16.51311539 0.70032804 25 3 C25 3.33 25 3.66 25 4 C22.70800823 3.85936865 20.41640814 3.71234057 18.125 3.5625 C16.84882813 3.48128906 15.57265625 3.40007812 14.2578125 3.31640625 C11 3 11 3 9 2 C7.46331135 1.77532169 5.92031946 1.59203195 4.375 1.4375 C3.55773437 1.35371094 2.74046875 1.26992187 1.8984375 1.18359375 C1.27195312 1.12300781 0.64546875 1.06242188 0 1 C0 0.67 0 0.34 0 0 Z " fill="#F5BA9C" transform="translate(284,148)"/>
<path d="M0 0 C0.33 0 0.66 0 1 0 C1.36217304 4.4668008 1.36217304 4.4668008 -0.125 6.65625 C-2.82997545 8.59481574 -4.90367323 8.2934299 -8.1875 8.1875 C-9.27417969 8.16042969 -10.36085938 8.13335937 -11.48046875 8.10546875 C-12.72763672 8.05326172 -12.72763672 8.05326172 -14 8 C-14 7.67 -14 7.34 -14 7 C-10.7 7 -7.4 7 -4 7 C-4 5.02 -4 3.04 -4 1 C-2.68 1.33 -1.36 1.66 0 2 C0 1.34 0 0.68 0 0 Z " fill="#8F8F8F" transform="translate(553,432)"/>
<path d="M0 0 C1.95719656 6.58969778 -1.9887872 12.24069008 -5 18 C-6.35114472 14.94255252 -5.9224598 13.77959635 -4.78515625 10.546875 C-4.22254947 9.27604557 -3.64790949 8.01048782 -3.0625 6.75 C-2.77181641 6.1003125 -2.48113281 5.450625 -2.18164062 4.78125 C-1.46471025 3.18284785 -0.73371051 1.59076946 0 0 Z " fill="#F5C396" transform="translate(180,211)"/>
<path d="M0 0 C1.32 0.33 2.64 0.66 4 1 C3.38125 1.721875 2.7625 2.44375 2.125 3.1875 C0.16333647 5.78381938 -0.95316 7.94671666 -2 11 C-5.875 9.25 -5.875 9.25 -7 7 C-5.35 7 -3.7 7 -2 7 C-2 6.01 -2 5.02 -2 4 C-1.34 4 -0.68 4 0 4 C0 2.68 0 1.36 0 0 Z " fill="#E9A264" transform="translate(185,267)"/>
<path d="M0 0 C0.66 0 1.32 0 2 0 C2.33 1.32 2.66 2.64 3 4 C3.66 4 4.32 4 5 4 C5.33 4.99 5.66 5.98 6 7 C4.35 7.66 2.7 8.32 1 9 C0.08941469 5.92677456 -0.08886184 3.19902639 0 0 Z " fill="#E73036" transform="translate(360,186)"/>
<path d="M0 0 C0.33 0 0.66 0 1 0 C1.0289337 3.79165074 1.04677601 7.58327327 1.0625 11.375 C1.07087891 12.45523437 1.07925781 13.53546875 1.08789062 14.6484375 C1.09111328 15.6796875 1.09433594 16.7109375 1.09765625 17.7734375 C1.10289307 18.72653809 1.10812988 19.67963867 1.11352539 20.66162109 C1 23 1 23 0 25 C-0.66 25 -1.32 25 -2 25 C-2 23.68 -2 22.36 -2 21 C-1.34 21 -0.68 21 0 21 C0 14.07 0 7.14 0 0 Z " fill="#929292" transform="translate(400,412)"/>
<path d="M0 0 C4.8 3.32307692 4.8 3.32307692 5.8125 6.75 C5.874375 7.4925 5.93625 8.235 6 9 C1.38512035 7.54266958 1.38512035 7.54266958 -0.375 5.0625 C-1 3 -1 3 0 0 Z " fill="#A3A3A3" transform="translate(141,262)"/>
<path d="M0 0 C2.5 1.5 2.5 1.5 4 3 C3.67 3.66 3.34 4.32 3 5 C2.46375 4.505 1.9275 4.01 1.375 3.5 C-1.59358445 1.62510456 -3.55312427 1.76498575 -7 2 C-7.33 2.99 -7.66 3.98 -8 5 C-9.65 5 -11.3 5 -13 5 C-12.1875 3.0625 -12.1875 3.0625 -11 1 C-7.30624122 -0.23125293 -3.84512599 -0.46420032 0 0 Z " fill="#C4C4C4" transform="translate(284,7)"/>
<path d="M0 0 C0.99 0 1.98 0 3 0 C1.9280096 3.4541913 0.90283569 4.05218083 -2.375 5.8125 C-5.941828 6.98094365 -6.67475827 7.07667519 -10 6 C-9.36191406 5.65066406 -8.72382813 5.30132812 -8.06640625 4.94140625 C-7.24011719 4.48636719 -6.41382813 4.03132813 -5.5625 3.5625 C-4.73878906 3.11003906 -3.91507812 2.65757812 -3.06640625 2.19140625 C-1.07691202 1.16337603 -1.07691202 1.16337603 0 0 Z " fill="#BABABA" transform="translate(304,291)"/>
<path d="M0 0 C0.928125 0.350625 1.85625 0.70125 2.8125 1.0625 C5.9802953 2.32382628 5.9802953 2.32382628 9 1 C9 1.66 9 2.32 9 3 C5.3558226 5.4294516 3.28758728 5.16179575 -1 5 C-0.67 3.35 -0.34 1.7 0 0 Z " fill="#ED852C" transform="translate(236,170)"/>
<path d="M0 0 C2.475 0.99 2.475 0.99 5 2 C4.67 3.32 4.34 4.64 4 6 C2.35 5.67 0.7 5.34 -1 5 C-0.67 3.35 -0.34 1.7 0 0 Z " fill="#FFFFFF" transform="translate(97,129)"/>
<path d="M0 0 C0.33 0.66 0.66 1.32 1 2 C2.32 1.67 3.64 1.34 5 1 C3.25 4 3.25 4 1 7 C-0.32 7 -1.64 7 -3 7 C-3 6.01 -3 5.02 -3 4 C-2.34 3.67 -1.68 3.34 -1 3 C-0.67 2.01 -0.34 1.02 0 0 Z " fill="#ED822A" transform="translate(205,197)"/>
<path d="M0 0 C-1.1196986 1.00593243 -2.2459412 2.0045849 -3.375 3 C-4.00148437 3.556875 -4.62796875 4.11375 -5.2734375 4.6875 C-7 6 -7 6 -9 6 C-9 4.35 -9 2.7 -9 1 C-2.25 -1.125 -2.25 -1.125 0 0 Z " fill="#F1B582" transform="translate(229,183)"/>
<path d="M0 0 C1.46067199 0.45082469 2.91848032 0.91093537 4.375 1.375 C5.18710937 1.63023437 5.99921875 1.88546875 6.8359375 2.1484375 C9 3 9 3 11 5 C11 5.99 11 6.98 11 8 C6.99698968 6.23867546 3.3971023 3.73867517 0 1 C0 0.67 0 0.34 0 0 Z " fill="#F0AEA4" transform="translate(327,180)"/>
<path d="M0 0 C0 4.32360904 -1.0747846 6.98804566 -4 10.1875 C-4.99 11.0846875 -4.99 11.0846875 -6 12 C-6.66 12.66 -7.32 13.32 -8 14 C-7.46719784 9.77510398 -6.12321801 7.45919284 -3.4375 4.1875 C-2.47650391 3.00220703 -2.47650391 3.00220703 -1.49609375 1.79296875 C-1.00238281 1.20128906 -0.50867188 0.60960937 0 0 Z " fill="#D1D1D1" transform="translate(180,351)"/>
<path d="M0 0 C-1.5625 2 -1.5625 2 -4 4 C-7.75 4.25 -7.75 4.25 -11 4 C-11 3.34 -11 2.68 -11 2 C-3.57142857 -1.57142857 -3.57142857 -1.57142857 0 0 Z " fill="#A9A9A9" transform="translate(442,247)"/>
<path d="M0 0 C3.91841827 1.30613942 6.32640809 2.83129848 9 6 C9 6.66 9 7.32 9 8 C8.34 8 7.68 8 7 8 C6.34 7.01 5.68 6.02 5 5 C1.94570927 3.78715124 1.94570927 3.78715124 -1 3 C-0.67 2.01 -0.34 1.02 0 0 Z " fill="#E1433F" transform="translate(345,172)"/>
<path d="M0 0 C0 0.99 0 1.98 0 3 C0.3062434 4.33981486 0.63451555 5.67511887 1 7 C-0.32 7.33 -1.64 7.66 -3 8 C-3 7.34 -3 6.68 -3 6 C-3.66 5.67 -4.32 5.34 -5 5 C-3.35 3.35 -1.7 1.7 0 0 Z " fill="#EE8329" transform="translate(223,164)"/>
<path d="M0 0 C1.21236328 0.01353516 1.21236328 0.01353516 2.44921875 0.02734375 C3.37154297 0.04474609 3.37154297 0.04474609 4.3125 0.0625 C4.3125 0.3925 4.3125 0.7225 4.3125 1.0625 C0.0225 2.0525 -4.2675 3.0425 -8.6875 4.0625 C-8.3575 3.0725 -8.0275 2.0825 -7.6875 1.0625 C-4.80538698 0.10179566 -2.98899956 -0.04331883 0 0 Z " fill="#E5883D" transform="translate(257.6875,166.9375)"/>
<path d="M0 0 C0.66 0 1.32 0 2 0 C2.33 1.98 2.66 3.96 3 6 C0.03 5.505 0.03 5.505 -3 5 C-1.625 2.5 -1.625 2.5 0 0 Z " fill="#767676" transform="translate(4,71)"/>
<path d="M0 0 C1.65 0 3.3 0 5 0 C5 1.98 5 3.96 5 6 C3.0625 5.25 3.0625 5.25 1 4 C0.25 1.875 0.25 1.875 0 0 Z " fill="#E73B34" transform="translate(346,192)"/>
<path d="M0 0 C0.66 0 1.32 0 2 0 C1.835 0.845625 1.67 1.69125 1.5 2.5625 C0.98670712 6.09138856 0.92878654 9.43932689 1 13 C0.67 13 0.34 13 0 13 C0 11.02 0 9.04 0 7 C-0.66 6.67 -1.32 6.34 -2 6 C-1.34 4.02 -0.68 2.04 0 0 Z " fill="#EA842F" transform="translate(189,233)"/>
<path d="M0 0 C0.33 0.99 0.66 1.98 1 3 C-2.33333333 3 -5.66666667 3 -9 3 C-5.92807025 0.26939578 -4.09590633 -0.34132553 0 0 Z " fill="#F47E1F" transform="translate(249,155)"/>
<path d="M0 0 C-2.125 2.0625 -2.125 2.0625 -5 4 C-8.3125 3.75 -8.3125 3.75 -11 3 C-10 1 -10 1 -8.22265625 0.33203125 C-7.15337891 0.07486328 -7.15337891 0.07486328 -6.0625 -0.1875 C-5.35222656 -0.36667969 -4.64195312 -0.54585937 -3.91015625 -0.73046875 C-2 -1 -2 -1 0 0 Z " fill="#E98636" transform="translate(256,152)"/>
<path d="M0 0 C2.35448165 2.55068845 2.98327924 3.71017358 3.1875 7.25 C3.125625 8.1575 3.06375 9.065 3 10 C2.01 9.34 1.02 8.68 0 8 C-0.40843923 5.28796348 -0.13336867 2.7562858 0 0 Z " fill="#E68637" transform="translate(173,261)"/>
<path d="M0 0 C0.33 0.99 0.66 1.98 1 3 C3.01508358 3.73323796 3.01508358 3.73323796 5 4 C4.34 4 3.68 4 3 4 C3.99 5.485 3.99 5.485 5 7 C4.67 7.99 4.34 8.98 4 10 C0.06153846 5.69230769 0.06153846 5.69230769 -0.25 2.1875 C-0.1675 1.465625 -0.085 0.74375 0 0 Z " fill="#E13339" transform="translate(361,213)"/>
<path d="M0 0 C1.34173403 0.92543709 2.67320159 1.86577405 4 2.8125 C5.11375 3.59560547 5.11375 3.59560547 6.25 4.39453125 C6.8275 4.92433594 7.405 5.45414062 8 6 C8 6.99 8 7.98 8 9 C7.1028125 8.2884375 7.1028125 8.2884375 6.1875 7.5625 C3.99617076 5.83534256 3.99617076 5.83534256 1 5 C0.67 3.35 0.34 1.7 0 0 Z " fill="#B9B9B9" transform="translate(146,110)"/>
<path d="M0 0 C0.66 0.33 1.32 0.66 2 1 C2 3 2 3 0.25 5.0625 C-1.9670446 6.97162174 -3.158832 7.59411886 -6 8 C-6 6 -6 6 -3.5625 3.4375 C-2.716875 2.633125 -1.87125 1.82875 -1 1 C-0.67 0.67 -0.34 0.34 0 0 Z " fill="#878787" transform="translate(41,347)"/>
<path d="M0 0 C0.99 0.33 1.98 0.66 3 1 C1.7934375 1.4021875 1.7934375 1.4021875 0.5625 1.8125 C-0.283125 2.204375 -1.12875 2.59625 -2 3 C-2.33 3.99 -2.66 4.98 -3 6 C-4.32 5.67 -5.64 5.34 -7 5 C-5.90554162 4.13342884 -4.79902219 3.28207276 -3.6875 2.4375 C-3.07261719 1.96183594 -2.45773437 1.48617188 -1.82421875 0.99609375 C-1.22222656 0.66738281 -0.62023437 0.33867187 0 0 Z " fill="#D1D1D1" transform="translate(405,342)"/>
<path d="M0 0 C0.33 0.66 0.66 1.32 1 2 C0.00390625 3.9453125 0.00390625 3.9453125 -1.4375 6.125 C-1.91058594 6.84945313 -2.38367188 7.57390625 -2.87109375 8.3203125 C-3.24363281 8.87460937 -3.61617188 9.42890625 -4 10 C-4 6.58238295 -3.24061454 4.17045938 -2 1 C-1.34 0.67 -0.68 0.34 0 0 Z " fill="#CECECE" transform="translate(501,319)"/>
<path d="M0 0 C1.32 0 2.64 0 4 0 C4 0.66 4 1.32 4 2 C4.66 2.33 5.32 2.66 6 3 C2.71023192 4.09658936 1.28696233 3.79953138 -2 3 C-1 1 -1 1 0 0 Z " fill="#E62236" transform="translate(375,272)"/>
<path d="M0 0 C0.6875 1.75 0.6875 1.75 1 4 C-0.4375 6.25 -0.4375 6.25 -2 8 C-2.99 7.67 -3.98 7.34 -5 7 C-4.0409375 6.1028125 -4.0409375 6.1028125 -3.0625 5.1875 C-0.79689611 3.09189663 -0.79689611 3.09189663 0 0 Z " fill="#D52E4A" transform="translate(385,268)"/>
<path d="M0 0 C0.66 0 1.32 0 2 0 C2 0.66 2 1.32 2 2 C2.66 2 3.32 2 4 2 C2.25 5.875 2.25 5.875 0 7 C0 4.69 0 2.38 0 0 Z " fill="#EFA05A" transform="translate(216,186)"/>
<path d="M0 0 C2.64 1.98 5.28 3.96 8 6 C7.67 6.66 7.34 7.32 7 8 C6.34 7.34 5.68 6.68 5 6 C2.93125966 5.3574765 2.93125966 5.3574765 1 5 C0.67 3.35 0.34 1.7 0 0 Z " fill="#F2B3B3" transform="translate(353,176)"/>
<path d="M0 0 C0.99 0.33 1.98 0.66 3 1 C2.67 2.98 2.34 4.96 2 7 C1.34 7 0.68 7 0 7 C0 6.34 0 5.68 0 5 C-0.66 5 -1.32 5 -2 5 C-1.34 3.35 -0.68 1.7 0 0 Z " fill="#EE442B" transform="translate(334,176)"/>
<path d="M0 0 C0.99 0.99 1.98 1.98 3 3 C1.35 4.32 -0.3 5.64 -2 7 C-1.125 2.25 -1.125 2.25 0 0 Z " fill="#9D9D9D" transform="translate(205,346)"/>
<path d="M0 0 C3.14958831 3.42346555 3.56179109 6.44262737 4 11 C-0.25 4.625 -0.25 4.625 0 0 Z " fill="#BCBCBC" transform="translate(147,271)"/>
<path d="M0 0 C1.9375 0.625 1.9375 0.625 4 2 C4.75 5.125 4.75 5.125 5 8 C4.34 8 3.68 8 3 8 C2.01 5.36 1.02 2.72 0 0 Z " fill="#DF3041" transform="translate(369,198)"/>
<path d="M0 0 C0.99 0.33 1.98 0.66 3 1 C2.67 2.65 2.34 4.3 2 6 C1.01 5.34 0.02 4.68 -1 4 C-0.67 2.68 -0.34 1.36 0 0 Z " fill="#FFFFFF" transform="translate(5,129)"/>
<path d="M0 0 C2 1 2 1 2 1 Z " fill="#757575" transform="translate(73,7)"/>
<path d="" fill="#FFFFFF" transform="translate(0,0)"/>
<path d="" fill="#FFFFFF" transform="translate(0,0)"/>
<path d="" fill="#FFFFFF" transform="translate(0,0)"/>
<path d="" fill="#FFFFFF" transform="translate(0,0)"/>
<path d="" fill="#FFFFFF" transform="translate(0,0)"/>
<path d="" fill="#FFFFFF" transform="translate(0,0)"/>
<path d="" fill="#FFFFFF" transform="translate(0,0)"/>
<path d="" fill="#FFFFFF" transform="translate(0,0)"/>
<path d="" fill="#FFFFFF" transform="translate(0,0)"/>
<path d="" fill="#FFFFFF" transform="translate(0,0)"/>
<path d="" fill="#FFFFFF" transform="translate(0,0)"/>
<path d="" fill="#FFFFFF" transform="translate(0,0)"/>
<path d="" fill="#FFFFFF" transform="translate(0,0)"/>
<path d="" fill="#FFFFFF" transform="translate(0,0)"/>
<path d="" fill="#FFFFFF" transform="translate(0,0)"/>
<path d="" fill="#FFFFFF" transform="translate(0,0)"/>
<path d="" fill="#FFFFFF" transform="translate(0,0)"/>
<path d="" fill="#FFFFFF" transform="translate(0,0)"/>
<path d="" fill="#FFFFFF" transform="translate(0,0)"/>
<path d="" fill="#FFFFFF" transform="translate(0,0)"/>
<path d="" fill="#FFFFFF" transform="translate(0,0)"/>
<path d="" fill="#FFFFFF" transform="translate(0,0)"/>
<path d="" fill="#FFFFFF" transform="translate(0,0)"/>
<path d="" fill="#FFFFFF" transform="translate(0,0)"/>
<path d="" fill="#FFFFFF" transform="translate(0,0)"/>
<path d="" fill="#FFFFFF" transform="translate(0,0)"/>
<path d="" fill="#FFFFFF" transform="translate(0,0)"/>
<path d="" fill="#FFFFFF" transform="translate(0,0)"/>
<path d="" fill="#FFFFFF" transform="translate(0,0)"/>
<path d="" fill="#FFFFFF" transform="translate(0,0)"/>
<path d="" fill="#FFFFFF" transform="translate(0,0)"/>
<path d="" fill="#FFFFFF" transform="translate(0,0)"/>
<path d="" fill="#FFFFFF" transform="translate(0,0)"/>
<path d="" fill="#FFFFFF" transform="translate(0,0)"/>
<path d="" fill="#FFFFFF" transform="translate(0,0)"/>
<path d="" fill="#FFFFFF" transform="translate(0,0)"/>
<path d="" fill="#FFFFFF" transform="translate(0,0)"/>
<path d="" fill="#FFFFFF" transform="translate(0,0)"/>
<path d="" fill="#FFFFFF" transform="translate(0,0)"/>
<path d="" fill="#FFFFFF" transform="translate(0,0)"/>
<path d="" fill="#FFFFFF" transform="translate(0,0)"/>
<path d="" fill="#FFFFFF" transform="translate(0,0)"/>
<path d="" fill="#FFFFFF" transform="translate(0,0)"/>
<path d="" fill="#FFFFFF" transform="translate(0,0)"/>
<path d="" fill="#FFFFFF" transform="translate(0,0)"/>
<path d="" fill="#FFFFFF" transform="translate(0,0)"/>
<path d="" fill="#FFFFFF" transform="translate(0,0)"/>
<path d="" fill="#FFFFFF" transform="translate(0,0)"/>
<path d="" fill="#FFFFFF" transform="translate(0,0)"/>
<path d="" fill="#FFFFFF" transform="translate(0,0)"/>
<path d="" fill="#FFFFFF" transform="translate(0,0)"/>
<path d="" fill="#000000" transform="translate(0,0)"/>
<path d="" fill="#FFFFFF" transform="translate(0,0)"/>
<path d="" fill="#FFFFFF" transform="translate(0,0)"/>
<path d="" fill="#FFFFFF" transform="translate(0,0)"/>
<path d="" fill="#FFFFFF" transform="translate(0,0)"/>
<path d="" fill="#FFFFFF" transform="translate(0,0)"/>
<path d="" fill="#FFFFFF" transform="translate(0,0)"/>
<path d="" fill="#FFFFFF" transform="translate(0,0)"/>
<path d="" fill="#FFFFFF" transform="translate(0,0)"/>
</svg>
