<?xml version="1.0" encoding="UTF-8"?>
<svg version="1.1" xmlns="http://www.w3.org/2000/svg" width="463" height="510">
<path d="M0 0 C9.94876745 7.83465437 15.38448218 17.87550039 18.25 30.09375 C20.52542229 38.82749855 26.14070236 44.06255157 33.5 48.96875 C38.67771713 48.43850186 42.18098197 44.68579341 45.5 40.96875 C49.46507293 34.80393964 51.83004834 28.1625953 54 21.21875 C57.57743737 9.86216796 64.73746003 1.86250143 75.25 -3.78125 C89.65997518 -10.43707695 104.54965025 -10.90029542 119.55273438 -5.75878906 C137.628536 0.99470753 153.64564536 13.37115473 165.96484375 28.13671875 C167.45391178 29.9587366 167.45391178 29.9587366 169.00390625 31.51953125 C172.83971963 35.57390949 173.58771405 38.53047921 173.5 43.96875 C171.65579697 46.4488851 170.23717673 47.60016163 167.5 48.96875 C165.4772111 48.94576376 163.45422758 48.91719451 161.43237305 48.8515625 C148.33262046 48.47288853 141.03776387 51.8983002 130 58.875 C113.41452754 69.05244901 95.77646235 74.51801571 76.38671875 70.12109375 C69.57834628 68.30160039 63.26321698 64.74663893 58.29296875 59.75 C56.69180586 57.75462586 56.69180586 57.75462586 54.5625 57.90625 C49.95135855 60.2816865 46.94917757 63.98249347 45.05859375 68.7890625 C43.87269982 73.4165367 43.72644877 78.2133259 43.5 82.96875 C44.78390625 83.12730469 46.0678125 83.28585938 47.390625 83.44921875 C93.9604851 89.47041726 139.5441147 109.45275043 168.90063477 147.39916992 C181.88427409 164.90723286 190.91105124 184.00609378 197.9375 204.53125 C198.29223389 205.55500732 198.64696777 206.57876465 199.01245117 207.63354492 C203.0571813 219.82194613 203.0571813 219.82194613 200.1875 225.62109375 C199.630625 226.37519531 199.07375 227.12929687 198.5 227.90625 C197.943125 228.67839844 197.38625 229.45054687 196.8125 230.24609375 C196.379375 230.81457031 195.94625 231.38304687 195.5 231.96875 C194.22065348 231.25462546 192.95183537 230.52162657 191.6875 229.78125 C190.97980469 229.37519531 190.27210938 228.96914062 189.54296875 228.55078125 C185.29696948 225.26277034 183.88035564 220.53327414 182.3359375 215.55078125 C181.94003418 214.30377441 181.54413086 213.05676758 181.13623047 211.77197266 C180.93044373 211.11932434 180.72465698 210.46667603 180.51263428 209.79425049 C176.54360662 197.26409817 171.94744177 185.46201577 165.5 173.96875 C162.94036123 176.2976288 161.34302606 178.72425032 159.64453125 181.73046875 C159.10836182 182.67720459 158.57219238 183.62394043 158.01977539 184.59936523 C157.45637451 185.60813721 156.89297363 186.61690918 156.3125 187.65625 C155.44129517 189.20324585 155.44129517 189.20324585 154.55249023 190.78149414 C151.21769896 196.74664782 148.04312268 202.75736073 145.0625 208.90625 C139.62770769 220.02432192 133.64268723 227.93141192 121.70932007 232.32072449 C118.21757447 233.34490395 114.88300819 233.39042506 111.265625 233.375 C110.50634705 233.38583618 109.74706909 233.39667236 108.96478271 233.40783691 C106.55976783 233.44177555 104.15522146 233.45761023 101.75 233.46875 C86.76447159 233.53877583 70.85426681 233.69012759 59 244.3203125 C50.03702877 254.17024442 46.20927951 267.04609133 43.2734375 279.76171875 C42.39236292 282.2758962 41.6730423 283.42804796 39.5 284.96875 C35.03541982 285.49496203 31.4325392 284.67925606 27.875 281.96875 C24.53534457 274.68222907 28.37509851 266.59221766 30.92553711 259.48925781 C36.72953194 244.05486807 45.30879246 228.93562674 60.64453125 221.4296875 C73.68180294 216.14054525 85.99638966 215.72852776 99.82885742 216.16064453 C112.4790473 216.60450029 112.4790473 216.60450029 123.10766602 210.51635742 C127.5329768 205.81336908 130.26567244 200.13800573 133.125 194.40625 C134.16330986 192.36614045 135.20373537 190.3271065 136.24609375 188.2890625 C136.77702637 187.24911133 137.30795898 186.20916016 137.85498047 185.13769531 C141.03191304 179.01769164 144.39175847 172.99584558 147.75439453 166.97631836 C148.23118652 166.11401611 148.70797852 165.25171387 149.19921875 164.36328125 C149.62033936 163.60893799 150.04145996 162.85459473 150.4753418 162.07739258 C151.47729202 160.01548071 152.15058013 158.23377735 152.5 155.96875 C151.32803827 154.22499216 151.32803827 154.22499216 149.5 152.71875 C146.24043494 149.68464892 143.30712175 146.53180985 140.40625 143.15625 C137.44873957 139.76238557 134.37917476 136.47050309 131.3203125 133.16796875 C129.5 130.96875 129.5 130.96875 128.5 127.96875 C124.91975935 129.75887032 122.38167026 132.00126899 119.625 134.84375 C111.29809312 143.31021398 102.66050241 148.11322585 90.5 148.40625 C84.98025766 148.25527236 80.20857593 147.25325189 74.94921875 145.65625 C68.2034648 143.76270503 63.34109156 145.0662375 57.26953125 148.33984375 C54.14173539 150.17946416 51.07199823 152.09997027 48 154.03125 C35.13019314 162.05222118 21.3780799 166.2915127 6.1640625 163.31640625 C-16.19938285 157.12794691 -28.48783141 139.09969387 -39.5 119.96875 C-43.3622381 121.64676121 -46.4868282 124.17209234 -49.75 126.78125 C-50.35191162 127.25828369 -50.95382324 127.73531738 -51.57397461 128.22680664 C-57.75740123 133.14171624 -63.88417571 138.12725066 -70.00390625 143.12109375 C-72.82240887 145.42077888 -75.65465125 147.70230138 -78.5 149.96875 C-73.05707911 155.01161094 -67.60145616 159.94799106 -61.8125 164.59375 C-51.25948969 173.19527903 -42.64932161 182.25731676 -39.5 195.96875 C-37.80733975 214.74546957 -44.90594181 235.973231 -56.5 250.96875 C-58.88671875 252.625 -58.88671875 252.625 -61.1875 253.46875 C-62.33798828 253.91734375 -62.33798828 253.91734375 -63.51171875 254.375 C-65.5 254.96875 -65.5 254.96875 -67.5 254.96875 C-70.06237342 249.22903355 -71.11130629 245.21103662 -69.5 238.96875 C-67.8877073 234.87013034 -65.99022894 230.92708541 -64.0625 226.96875 C-56.96890516 212.60875826 -56.96890516 212.60875826 -57.5 196.96875 C-63.22659042 183.65442727 -77.62423442 171.40663279 -90.5 164.96875 C-90.88091797 166.02449219 -90.88091797 166.02449219 -91.26953125 167.1015625 C-92.62727606 170.26532343 -94.31636227 172.95433103 -96.1875 175.84375 C-106.98042009 193.03803917 -113.43880059 211.94982726 -116.5 231.96875 C-116.68046875 233.07605469 -116.8609375 234.18335938 -117.046875 235.32421875 C-117.69982066 240.57592824 -117.84981189 245.83050529 -118.01757812 251.1171875 C-118.19984089 255.43647107 -118.40623943 259.07816217 -120.5 262.96875 C-122.82337829 264.71128372 -124.55560885 264.97703217 -127.4375 265.40625 C-131.63126309 264.80714099 -132.86335296 263.22267227 -135.5 259.96875 C-136.05859375 256.90234375 -136.05859375 256.90234375 -135.9375 253.40625 C-135.91647217 252.76059082 -135.89544434 252.11493164 -135.8737793 251.44970703 C-135.78525674 249.28587901 -135.64745089 247.12932824 -135.5 244.96875 C-135.45456055 244.20546387 -135.40912109 243.44217773 -135.36230469 242.65576172 C-132.50228765 197.71659072 -111.8118209 156.17276254 -78.5 125.96875 C-47.79866098 99.6232948 -13.16336541 87.96587629 26.5 82.96875 C26.27002126 80.59028567 26.01678509 78.21813734 25.75 75.84375 C25.688125 75.17859375 25.62625 74.5134375 25.5625 73.828125 C24.8240804 67.55155841 22.48665239 63.68449524 17.75 59.59375 C17.0075 59.0575 16.265 58.52125 15.5 57.96875 C12.60468124 59.33239343 10.09673253 60.91730752 7.5 62.78125 C-4.08661007 70.59503002 -16.42107941 73.63617943 -30.20703125 71.35546875 C-44.44263308 68.36744389 -56.66075291 61.22077388 -69.09765625 53.9387207 C-77.35430394 49.16132307 -83.42129611 48.75652099 -92.6875 49.22265625 C-96.44956958 49.32353193 -98.78649014 49.38478445 -102.0859375 47.4609375 C-104.09161606 43.92606755 -104.39447635 40.86499724 -103.5 36.96875 C-102.03743129 34.3068606 -100.14787439 32.22506511 -98.0625 30.03125 C-97.51263428 29.42571289 -96.96276855 28.82017578 -96.39624023 28.19628906 C-94.78370788 26.43426128 -93.14549424 24.69994706 -91.5 22.96875 C-90.33984375 21.70611328 -90.33984375 21.70611328 -89.15625 20.41796875 C-66.55868568 -3.31790571 -30.25283851 -20.75485432 0 0 Z M-74.5 29.96875 C-74.5 30.62875 -74.5 31.28875 -74.5 31.96875 C-63.15647673 37.98394798 -51.78171978 43.94594968 -40.25 49.59375 C-39.43120361 50.0067334 -38.61240723 50.4197168 -37.76879883 50.84521484 C-29.59286468 54.79027497 -21.32566658 57.34607115 -12.4375 54.34375 C-11.35339844 54.00085938 -10.26929688 53.65796875 -9.15234375 53.3046875 C-6.25057377 51.84311853 -5.52671037 50.99148735 -4.5 47.96875 C-5.38042969 47.59363281 -6.26085937 47.21851563 -7.16796875 46.83203125 C-8.32941406 46.32027344 -9.49085938 45.80851562 -10.6875 45.28125 C-11.83605469 44.78238281 -12.98460937 44.28351563 -14.16796875 43.76953125 C-20.94347796 40.10773788 -23.23779906 35.99347923 -25.5 28.96875 C-16.47626399 26.6380119 -10.94750271 27.25907365 -2.5 30.96875 C-1.17494096 31.33358889 0.15641281 31.67950554 1.5 31.96875 C-0.44067471 23.98425978 -3.87719528 18.13637619 -10.74609375 13.4296875 C-33.93304813 0.0571101 -57.08631208 13.34521196 -74.5 29.96875 Z M73.5 19.96875 C71.16122943 23.50527369 69.5 26.63596473 69.5 30.96875 C70.08007812 30.76378906 70.66015625 30.55882813 71.2578125 30.34765625 C80.23706225 27.25085229 85.44884488 26.80263447 94.5 29.96875 C93.67177298 33.92871046 92.85454 37.66293446 89.87109375 40.5390625 C84.8072779 43.79218056 79.13055988 45.90344218 73.5 47.96875 C74.16642153 51.02065112 74.16642153 51.02065112 76.28515625 52.1015625 C84.86745522 55.84067732 91.38645329 56.86715148 100.5 53.96875 C104.99894619 52.0606093 109.3849742 49.96009071 113.7644043 47.79370117 C115.79285853 46.79095952 117.82819815 45.80352985 119.86523438 44.81835938 C127.9637214 40.8737184 135.79184682 36.64011046 143.5 31.96875 C138.4783821 21.15165407 122.78356297 13.28947971 112.0625 8.96875 C97.26443288 4.74467487 83.57617701 8.62022477 73.5 19.96875 Z M-23.5 111.96875 C-21.96086372 116.32277724 -19.69394114 120.05751641 -17.1875 123.90625 C-16.61999023 124.79860352 -16.61999023 124.79860352 -16.04101562 125.70898438 C-9.41680371 135.96474394 -1.57729202 143.69167991 10.5 146.96875 C23.46930825 149.00559649 35.4704931 141.96300655 46.09375 135.35546875 C54.66825718 130.02286629 62.24032466 126.79535605 72.5 127.96875 C74.48798788 128.43243618 76.46737835 128.93422087 78.4375 129.46875 C86.67148278 131.65112444 93.32641407 132.62047612 100.9375 128.21875 C104.16541011 126.1128976 106.92955709 123.84951973 109.5 120.96875 C109.5 120.30875 109.5 119.64875 109.5 118.96875 C67.01743092 99.18372374 20.66126726 91.99810962 -23.5 111.96875 Z " fill="#F27823" transform="translate(231.5,22.03125)"/>
<path d="M0 0 C8.58347745 6.05967886 15.08351314 14.43893412 17 25 C17.81062761 34.68766434 17.30028758 43.65525922 11.01286316 51.46977234 C1.77765516 61.38173088 -7.8018606 70.9469165 -17.38671875 80.51953125 C-19.257699 82.3911865 -21.12853101 84.26298901 -22.9992218 86.13493347 C-26.89978921 90.03730756 -30.8024317 93.93759701 -34.70629883 97.83666992 C-39.19973928 102.32465533 -43.68954581 106.81625201 -48.17751282 111.30971032 C-52.52733855 115.66464197 -56.8799956 120.01673235 -61.23383522 124.36765099 C-63.07287685 126.20602842 -64.91118392 128.04514099 -66.74872398 129.8850193 C-69.31793779 132.45678667 -71.89035935 135.02530328 -74.46362305 137.59301758 C-75.21239212 138.34381088 -75.96116119 139.09460419 -76.73262024 139.8681488 C-94.15951217 157.22585797 -110.77325171 166.11440676 -135.68994141 166.17358398 C-136.86147766 166.180271 -138.03301392 166.18695801 -139.24005127 166.19384766 C-141.78052363 166.20787773 -144.32100844 166.21977825 -146.86149979 166.22979546 C-150.88951493 166.24624878 -154.91743847 166.26928382 -158.94540405 166.29469299 C-170.39698424 166.36566341 -181.84860834 166.42550344 -193.30029297 166.47680664 C-199.63122732 166.50524334 -205.96208543 166.54069655 -212.29293954 166.58346039 C-215.63555924 166.60569293 -218.97804076 166.6231165 -222.3207283 166.63390923 C-226.05849051 166.64614904 -229.79600822 166.67033603 -233.53369141 166.69702148 C-234.62191193 166.69761063 -235.71013245 166.69819977 -236.83132935 166.69880676 C-250.85712372 166.5808611 -250.85712372 166.5808611 -263.0625 172.375 C-263.75472656 172.96023438 -264.44695312 173.54546875 -265.16015625 174.1484375 C-267.03620129 176.03643187 -268.64677491 177.70173575 -270 180 C-269.8334831 183.59398974 -268.05132928 185.25142727 -265.5 187.625 C-262.50974518 190.43142768 -261.22914903 191.90008465 -260.375 196 C-260.45253895 199.90996431 -262.15913226 201.66914915 -264.76953125 204.46875 C-265.58679688 205.34660156 -266.4040625 206.22445312 -267.24609375 207.12890625 C-271.69135673 211.76332936 -276.1719302 216.3579319 -280.71313477 220.8984375 C-282.33313816 222.52066651 -283.94491686 224.1507994 -285.55664062 225.78125 C-286.59586607 226.82340362 -287.63556207 227.86508827 -288.67578125 228.90625 C-289.60302002 229.83759766 -290.53025879 230.76894531 -291.4855957 231.72851562 C-294.70576261 234.63757795 -296.32086041 236.06345977 -300.71882629 235.89724731 C-305.0196028 234.72118639 -307.45634524 232.32032951 -310.54101562 229.26318359 C-311.18171242 228.64655035 -311.82240921 228.02991711 -312.48252106 227.39459801 C-314.67012063 225.27798729 -316.83627443 223.14100029 -319 221 C-319.78325653 220.22946541 -320.56651306 219.45893082 -321.37350464 218.66504669 C-327.23435999 212.89486891 -333.05613644 207.08604176 -338.86786461 201.2664609 C-341.38276131 198.74898605 -343.9001495 196.23400429 -346.41711426 193.71859741 C-350.63110682 189.50640859 -354.84302152 185.29215077 -359.05371094 181.07666016 C-363.90132173 176.22358534 -368.75255745 171.37415639 -373.60564184 166.52655566 C-377.80574636 162.33100424 -382.00388049 158.1334887 -386.20040369 153.93435514 C-388.6926889 151.44052239 -391.18561759 148.94734295 -393.68034363 146.45595169 C-396.45579236 143.68395648 -399.22710257 140.90784591 -401.99804688 138.13134766 C-402.80958221 137.32183655 -403.62111755 136.51232544 -404.45724487 135.67828369 C-408.64434074 131.4756942 -412.66963708 127.198837 -416.51514435 122.68036461 C-419.30682322 119.52110911 -422.55998835 116.89858133 -425.765625 114.17578125 C-428.85479931 111.16761675 -430.71406211 108.42968944 -431.5625 104.1875 C-430.15782576 96.22767933 -423.14018876 91.10777883 -417.3984375 85.93969727 C-412.0187834 81.08872806 -406.92226183 75.98183433 -401.84985352 70.81225586 C-401.24584717 70.20003174 -400.64184082 69.58780762 -400.01953125 68.95703125 C-399.48432861 68.41022705 -398.94912598 67.86342285 -398.39770508 67.30004883 C-396.31546457 65.36329237 -395.0535388 65.00642167 -392.19921875 64.6640625 C-388.07407061 65.09722824 -386.73941941 66.49799704 -383.8125 69.375 C-381.24621014 71.85850632 -378.97718181 74.01521213 -376 76 C-372.70687173 72.7318517 -369.41724235 69.46023304 -366.13061523 66.18554688 C-365.0153271 65.07524416 -363.89913789 63.96584571 -362.78198242 62.85742188 C-355.24210062 55.41293476 -355.24210062 55.41293476 -348.1328125 47.5625 C-345.18613156 44.1159637 -342.02997816 41.2582307 -338.4375 38.5 C-337.83599121 38.0364209 -337.23448242 37.5728418 -336.61474609 37.09521484 C-316.34583271 21.80518624 -293.81395681 16.22770531 -268.52880859 19.30029297 C-250.4908756 22.43645629 -235.21087793 32.05365741 -221.62890625 43.86328125 C-216.63428051 47.92280618 -212.58461488 48.39529837 -206.2265625 48.62890625 C-204.86333359 48.68613609 -204.86333359 48.68613609 -203.4725647 48.74452209 C-188.38254977 49.29344961 -173.262808 49.02521941 -158.16552734 48.90405273 C-155.4005229 48.88231036 -152.63558368 48.866126 -149.87051392 48.85560608 C-147.3004577 48.84540736 -144.73041541 48.82709883 -142.16049194 48.79905701 C-129.63071968 48.76295575 -116.52868371 49.97791931 -106.91015625 58.94921875 C-105.25 60.875 -105.25 60.875 -103 64 C-96.51108233 58.6994597 -90.65519881 52.80716523 -84.74804688 46.87841797 C-83.00761581 45.13263921 -81.26191997 43.39225463 -79.515625 41.65234375 C-74.36938109 36.50899329 -69.31451764 31.35715502 -64.58837891 25.81982422 C-49.02410315 7.98765215 -25.27639576 -15.80845769 0 0 Z M-34.71020508 20.7878418 C-37.25308712 23.24450606 -39.86671587 25.61140349 -42.484375 27.98828125 C-51.12403946 35.91351282 -59.39765871 44.21159711 -67.68603516 52.50073242 C-70.38554137 55.19803276 -73.09298513 57.88719687 -75.80078125 60.57617188 C-77.54215556 62.31461458 -79.28305773 64.05353039 -81.0234375 65.79296875 C-81.82147797 66.5838237 -82.61951843 67.37467865 -83.44174194 68.1894989 C-90.53329247 75.30982021 -96.63187574 82.57676008 -101.0625 91.625 C-105.58654414 100.39959717 -109.53087203 106.4347008 -119 110 C-122.00261112 110.88543635 -124.68669691 111.12934189 -127.81321716 111.14044189 C-129.26206802 111.14900711 -129.26206802 111.14900711 -130.7401886 111.15774536 C-132.3198365 111.15942215 -132.3198365 111.15942215 -133.93139648 111.16113281 C-135.04560974 111.16609772 -136.159823 111.17106262 -137.30780029 111.17617798 C-140.99557104 111.19078966 -144.68329881 111.19759917 -148.37109375 111.203125 C-150.93172711 111.20887625 -153.49236045 111.21463399 -156.05299377 111.22039795 C-160.73598415 111.22956173 -165.41896162 111.23586389 -170.10195869 111.2388947 C-176.99000656 111.24337758 -183.87785621 111.26094059 -190.76584381 111.2898953 C-196.73737426 111.31412455 -202.70885537 111.32183931 -208.68043709 111.32357025 C-211.2189956 111.32660053 -213.75755319 111.3346416 -216.29607964 111.34775543 C-219.8439431 111.36477854 -223.39132144 111.3629448 -226.93920898 111.35644531 C-228.51582054 111.37026749 -228.51582054 111.37026749 -230.12428284 111.3843689 C-239.13010189 111.33259464 -239.13010189 111.33259464 -243 108 C-245.4294516 104.3558226 -245.16179575 102.28758728 -245 98 C-242.05048598 97.1524129 -239.42367614 96.87170709 -236.35882568 96.86196899 C-234.96696297 96.85378899 -234.96696297 96.85378899 -233.54698181 96.84544373 C-232.03050804 96.84388023 -232.03050804 96.84388023 -230.48339844 96.84228516 C-229.41301834 96.83720444 -228.34263824 96.83212372 -227.23982239 96.82688904 C-224.91484139 96.81618845 -222.58985012 96.80756705 -220.26485443 96.80076981 C-216.58254119 96.78897656 -212.900345 96.76952198 -209.21807861 96.74765015 C-198.74812728 96.68605141 -188.27818782 96.63200835 -177.80810547 96.59863281 C-171.40378074 96.57766795 -164.99966933 96.54234893 -158.59546661 96.49787521 C-156.15711226 96.48372885 -153.71872017 96.47499587 -151.28032684 96.47182083 C-147.86471802 96.46690292 -144.44967352 96.44372084 -141.03417969 96.41650391 C-140.0312941 96.41951004 -139.02840851 96.42251617 -137.99513245 96.4256134 C-130.70855238 96.33954974 -124.96945189 95.38847218 -119.125 90.6875 C-116.29507697 87.1084797 -114.86596334 84.44292615 -115.12109375 79.79296875 C-115.77308968 75.73983942 -116.63106496 72.83671064 -119.75 70.0625 C-125.81343834 66.21454875 -131.02195474 65.70979726 -137.99951172 65.74462891 C-138.88486603 65.74100845 -139.77022034 65.737388 -140.68240356 65.73365784 C-142.59755297 65.72678499 -144.51272188 65.72425443 -146.42788315 65.72560501 C-149.4635407 65.7265733 -152.49884713 65.71359208 -155.53445435 65.69662476 C-164.16275325 65.65044413 -172.79101528 65.62575034 -181.41943359 65.61914062 C-186.70440946 65.6141167 -191.98901745 65.58982364 -197.27386856 65.55381393 C-199.28239861 65.54403813 -201.2909794 65.54167183 -203.29952621 65.54698563 C-206.11398196 65.55408277 -208.92734649 65.53672 -211.74169922 65.51416016 C-212.97481842 65.52641884 -212.97481842 65.52641884 -214.23284912 65.53892517 C-221.37198996 65.43757506 -226.52274463 63.25613355 -231.80078125 58.44921875 C-232.62964844 57.53785156 -233.45851562 56.62648438 -234.3125 55.6875 C-247.11724165 42.21472386 -264.49425733 35.10163167 -283 34.625 C-293.5132815 34.92939345 -302.77077768 37.06331693 -312.1875 41.6875 C-313.11248291 42.14092773 -313.11248291 42.14092773 -314.05615234 42.60351562 C-327.56911925 49.64882856 -337.62667077 60.25765831 -348.1875 71 C-349.72650762 72.55408481 -351.26621589 74.10747609 -352.80664062 75.66015625 C-356.54587473 79.43214761 -360.27637312 83.21260397 -364 87 C-362.64680663 90.01947899 -361.13702023 92.11100877 -358.79830933 94.44219971 C-358.13925598 95.10400238 -357.48020264 95.76580505 -356.80117798 96.44766235 C-355.7179274 97.52012711 -355.7179274 97.52012711 -354.61279297 98.61425781 C-353.47118713 99.75630173 -353.47118713 99.75630173 -352.30651855 100.92141724 C-349.78978644 103.43675604 -347.26604416 105.94493661 -344.7421875 108.453125 C-342.99583128 110.19575111 -341.2499161 111.93881931 -339.50442505 113.68231201 C-334.90896304 118.27013748 -330.30752651 122.85192517 -325.70483398 127.43249512 C-321.00924536 132.10762586 -316.31931378 136.78842168 -311.62890625 141.46875 C-302.42480823 150.65139772 -293.21458132 159.8278727 -284 169 C-280.58871859 165.59848233 -280.58871859 165.59848233 -277.21875 162.15625 C-261.46664248 146.97694639 -236.08654258 149.85012032 -215.92026901 149.98596573 C-212.44543037 150.0083142 -208.97064876 150.02217946 -205.49575806 150.03366089 C-195.62795336 150.06695524 -185.76024389 150.10885868 -175.89257812 150.17138672 C-169.82463445 150.20923704 -163.75678411 150.23211445 -157.68873978 150.24569321 C-155.39484665 150.25368687 -153.10096522 150.26720818 -150.80714035 150.28662491 C-128.72671276 150.47041795 -109.71535794 148.55665843 -93.15795898 132.48266602 C-91.42973329 130.74728566 -89.70944686 129.00397201 -87.99609375 127.25390625 C-86.58587698 125.83357731 -85.17565773 124.41325081 -83.76529789 122.99306393 C-81.81057246 121.02092828 -79.8628977 119.04190079 -77.91516113 117.06286621 C-74.50544395 113.60075684 -71.08579177 110.14847276 -67.6643219 106.69798279 C-65.85010706 104.8669793 -64.03899882 103.03289056 -62.23155212 101.19520569 C-57.87683057 96.78936043 -53.470508 92.53427552 -48.75086975 88.51963806 C-44.5731688 84.89367252 -40.76871621 80.94399058 -37.21875 76.70703125 C-33.64631238 72.60296119 -29.83459203 68.77356673 -25.97265625 64.9453125 C-25.33529037 64.31344528 -24.6979245 63.68157806 -24.04124451 63.03056335 C-21.36652188 60.38367149 -18.68818042 57.74050615 -16.00561523 55.1015625 C-14.0319875 53.15794923 -12.06447271 51.2083145 -10.09765625 49.2578125 C-9.17908592 48.35943161 -9.17908592 48.35943161 -8.24195862 47.44290161 C-6.78970448 45.99944092 -5.38921987 44.50422372 -4 43 C-4 42.34 -4 41.68 -4 41 C-3.34 41 -2.68 41 -2 41 C0.80457732 36.17928076 0.73003417 31.43386262 0 26 C-2.19757685 20.39759379 -6.03343797 16.27793094 -11 13 C-19.73033412 10.08988863 -28.48319238 14.72153689 -34.71020508 20.7878418 Z M-395.60400391 89.37695312 C-396.22194824 90.00537109 -396.83989258 90.63378906 -397.4765625 91.28125 C-398.146875 91.95800781 -398.8171875 92.63476562 -399.5078125 93.33203125 C-400.55582031 94.40517578 -400.55582031 94.40517578 -401.625 95.5 C-402.33140625 96.21542969 -403.0378125 96.93085938 -403.765625 97.66796875 C-405.51496001 99.44094342 -407.25861122 101.2192302 -409 103 C-403.9550944 109.09568635 -398.46624706 114.6692048 -392.86376953 120.24975586 C-391.84790408 121.26533876 -390.83225973 122.28114286 -389.81681824 123.29714966 C-387.0777592 126.03649399 -384.33564198 128.77275796 -381.59293985 131.50845408 C-378.72038635 134.37472927 -375.85069044 137.24386263 -372.98068237 140.11268616 C-367.55362014 145.53664823 -362.12401527 150.95805752 -356.69347847 156.37854058 C-350.50767567 162.55314129 -344.32473376 168.73060339 -338.14202332 174.90830028 C-325.43118265 187.60870636 -312.71677706 200.3055381 -300 213 C-297.09380865 211.60403514 -295.02878234 210.26935799 -292.765625 207.9609375 C-292.19199219 207.38085938 -291.61835938 206.80078125 -291.02734375 206.203125 C-290.44082031 205.59984375 -289.85429687 204.9965625 -289.25 204.375 C-288.64800781 203.76398438 -288.04601562 203.15296875 -287.42578125 202.5234375 C-285.94594695 201.02011376 -284.47235324 199.51065144 -283 198 C-288.04174691 191.91323232 -293.51741944 186.33400171 -299.10449219 180.75024414 C-300.11709554 179.73464355 -301.12949533 178.71883994 -302.14170837 177.70285034 C-304.87245319 174.9633277 -307.60638039 172.22700311 -310.34119701 169.49154592 C-312.05006956 167.78196035 -313.75822722 166.07166383 -315.46613312 164.36111259 C-321.42460859 158.39341071 -327.38563617 152.42827206 -333.34912109 146.46557617 C-338.91034886 140.90495139 -344.46595015 135.33874828 -350.01899791 129.76995569 C-354.79092603 124.98497936 -359.56667369 120.20383839 -364.34545064 115.42570204 C-367.19821692 112.57319116 -370.0493962 109.71913631 -372.8967514 106.86122322 C-375.56817515 104.18016203 -378.24429884 101.50388543 -380.92419624 98.83129501 C-381.9087739 97.84776802 -382.89163082 96.86251511 -383.87267113 95.87545967 C-385.20703932 94.53343786 -386.54812235 93.19810235 -387.8895874 91.86317444 C-388.63950832 91.11270875 -389.38942924 90.36224306 -390.16207504 89.58903599 C-392.5016468 87.56628544 -393.23090843 87.33977527 -395.60400391 89.37695312 Z " fill="#636363" transform="translate(435,272)"/>
<path d="M0 0 C26.36319468 10.11271104 46.82510418 44.37115626 57.6875 68.6875 C60.61084609 75.51543042 63.03303234 82.53874219 65.4375 89.5625 C65.96960083 91.09813599 65.96960083 91.09813599 66.51245117 92.66479492 C70.5571813 104.85319613 70.5571813 104.85319613 67.6875 110.65234375 C67.130625 111.40644531 66.57375 112.16054687 66 112.9375 C65.443125 113.70964844 64.88625 114.48179687 64.3125 115.27734375 C63.879375 115.84582031 63.44625 116.41429687 63 117 C61.72065348 116.28587546 60.45183537 115.55287657 59.1875 114.8125 C58.12595703 114.20341797 58.12595703 114.20341797 57.04296875 113.58203125 C52.79696948 110.29402034 51.38035564 105.56452414 49.8359375 100.58203125 C49.44003418 99.33502441 49.04413086 98.08801758 48.63623047 96.80322266 C48.43044373 96.15057434 48.22465698 95.49792603 48.01263428 94.82550049 C44.04360662 82.29534817 39.44744177 70.49326577 33 59 C30.44036123 61.3288788 28.84302606 63.75550032 27.14453125 66.76171875 C26.3402771 68.18182251 26.3402771 68.18182251 25.51977539 69.63061523 C24.95637451 70.63938721 24.39297363 71.64815918 23.8125 72.6875 C23.23169678 73.71883057 22.65089355 74.75016113 22.05249023 75.81274414 C18.71769896 81.77789782 15.54312268 87.78861073 12.5625 93.9375 C7.12770769 105.05557192 1.14268723 112.96266192 -10.79067993 117.35197449 C-14.28242553 118.37615395 -17.61699181 118.42167506 -21.234375 118.40625 C-21.99365295 118.41708618 -22.75293091 118.42792236 -23.53521729 118.43908691 C-25.94023217 118.47302555 -28.34477854 118.48886023 -30.75 118.5 C-45.73552841 118.57002583 -61.64573319 118.72137759 -73.5 129.3515625 C-82.46297123 139.20149442 -86.29072049 152.07734133 -89.2265625 164.79296875 C-90.10763708 167.3071462 -90.8269577 168.45929796 -93 170 C-97.46458018 170.52621203 -101.0674608 169.71050606 -104.625 167 C-107.96465543 159.71347907 -104.12490149 151.62346766 -101.57446289 144.52050781 C-95.77046806 129.08611807 -87.19120754 113.96687674 -71.85546875 106.4609375 C-58.81819706 101.17179525 -46.50361034 100.75977776 -32.67114258 101.19189453 C-20.0209527 101.63575029 -20.0209527 101.63575029 -9.39233398 95.54760742 C-4.9670232 90.84461908 -2.23432756 85.16925573 0.625 79.4375 C1.66330986 77.39739045 2.70373537 75.3583565 3.74609375 73.3203125 C4.54249268 71.76038574 4.54249268 71.76038574 5.35498047 70.16894531 C8.53191304 64.04894164 11.89175847 58.02709558 15.25439453 52.00756836 C15.73118652 51.14526611 16.20797852 50.28296387 16.69921875 49.39453125 C17.12033936 48.64018799 17.54145996 47.88584473 17.9753418 47.10864258 C18.97729202 45.04673071 19.65058013 43.26502735 20 41 C18.82803827 39.25624216 18.82803827 39.25624216 17 37.75 C13.74043494 34.71589892 10.80712175 31.56305985 7.90625 28.1875 C4.94873957 24.79363557 1.87917476 21.50175309 -1.1796875 18.19921875 C-3 16 -3 16 -4 13 C-8.61322954 15.30661477 -11.7394721 18.65087384 -15.23046875 22.35546875 C-17 24 -17 24 -19 24 C-19 23.34 -19 22.68 -19 22 C-18.34 22 -17.68 22 -17 22 C-17.99 19.03 -17.99 19.03 -19 16 C-18.2575 16.04125 -17.515 16.0825 -16.75 16.125 C-13.91241048 15.99601866 -12.41226062 15.42948778 -10 14 C-10 13.34 -10 12.68 -10 12 C-10.66 12 -11.32 12 -12 12 C-11.875 10.125 -11.875 10.125 -11 8 C-8.125 6.8125 -8.125 6.8125 -5 6 C-4.01 5.67 -3.02 5.34 -2 5 C-2 3.68 -2 2.36 -2 1 C-1.34 0.67 -0.68 0.34 0 0 Z " fill="#F17F22" transform="translate(364,137)"/>
<path d="M0 0 C-1.75 6.75 -1.75 6.75 -4 9 C-4 8.34 -4 7.68 -4 7 C-5.98 7 -7.96 7 -10 7 C-10.33 7.66 -10.66 8.32 -11 9 C-12.98 9 -14.96 9 -17 9 C-17 11.31 -17 13.62 -17 16 C-17.68707031 16.06058594 -18.37414062 16.12117188 -19.08203125 16.18359375 C-20.43361328 16.30927734 -20.43361328 16.30927734 -21.8125 16.4375 C-23.15248047 16.55931641 -23.15248047 16.55931641 -24.51953125 16.68359375 C-27.12743559 16.93489767 -27.12743559 16.93489767 -30 18 C-31.26228842 19.60544582 -31.26228842 19.60544582 -32.375 21.5 C-34.66848372 24.92290319 -34.66848372 24.92290319 -37.6875 25.625 C-38.450625 25.74875 -39.21375 25.8725 -40 26 C-40.4640625 27.175625 -40.4640625 27.175625 -40.9375 28.375 C-42 31 -42 31 -44.9375 32.4375 C-48.7512707 34.38330138 -49.16393822 36.24804766 -51 40 C-52.64991582 40.70710678 -54.31562256 41.37943989 -56 42 C-56.14050781 42.61617187 -56.28101563 43.23234375 -56.42578125 43.8671875 C-57.32742992 47.21616828 -59.80733178 48.44084124 -62.50390625 50.4375 C-64.46106103 52.1209822 -64.46106103 52.1209822 -64 56 C-64.763125 56.103125 -65.52625 56.20625 -66.3125 56.3125 C-69.31090662 57.07953425 -70.07397722 57.65527661 -72 60 C-72.99373439 62.2603044 -72.99373439 62.2603044 -73.6875 64.6875 C-73.93886719 65.49574219 -74.19023438 66.30398437 -74.44921875 67.13671875 C-74.63097656 67.75160156 -74.81273438 68.36648437 -75 69 C-74.34 69 -73.68 69 -73 69 C-72.34 70.32 -71.68 71.64 -71 73 C-69.68 73 -68.36 73 -67 73 C-67 73.66 -67 74.32 -67 75 C-66.34 75 -65.68 75 -65 75 C-65 72.03 -65 69.06 -65 66 C-61.26513121 65.4254048 -57.78706732 65 -54 65 C-54 65.66 -54 66.32 -54 67 C-52.02 66.505 -52.02 66.505 -50 66 C-49.4465236 68.07553648 -49 69.84365964 -49 72 C-46.28450846 74.30671915 -46.28450846 74.30671915 -43.8125 73.625 C-43.214375 73.41875 -42.61625 73.2125 -42 73 C-42 73.66 -42 74.32 -42 75 C-41.01 75 -40.02 75 -39 75 C-39.66 73.68 -40.32 72.36 -41 71 C-40.34 70.67 -39.68 70.34 -39 70 C-39 69.34 -39 68.68 -39 68 C-39.66 67.67 -40.32 67.34 -41 67 C-41 66.01 -41 65.02 -41 64 C-42.134375 64.185625 -43.26875 64.37125 -44.4375 64.5625 C-46.2009375 64.7790625 -46.2009375 64.7790625 -48 65 C-49 64 -49 64 -49.0625 61.4375 C-49.041875 60.633125 -49.02125 59.82875 -49 59 C-48.34 59 -47.68 59 -47 59 C-47 58.34 -47 57.68 -47 57 C-48.32 56.67 -49.64 56.34 -51 56 C-49.87096774 49.87096774 -49.87096774 49.87096774 -48 48 C-48.185625 47.360625 -48.37125 46.72125 -48.5625 46.0625 C-48.706875 45.381875 -48.85125 44.70125 -49 44 C-48.34 43.34 -47.68 42.68 -47 42 C-46.34 42 -45.68 42 -45 42 C-43.66216607 41.68521554 -42.32796291 41.35412344 -41 41 C-41 41.66 -41 42.32 -41 43 C-40.34 43 -39.68 43 -39 43 C-39 41.68 -39 40.36 -39 39 C-34.77777778 35 -34.77777778 35 -32 35 C-32 34.34 -32 33.68 -32 33 C-29.69 32.34 -27.38 31.68 -25 31 C-25 29.35 -25 27.7 -25 26 C-22.03 25.67 -19.06 25.34 -16 25 C-15.505 23.515 -15.505 23.515 -15 22 C-14.34 22 -13.68 22 -13 22 C-12.01 19.525 -12.01 19.525 -11 17 C-9.68 17.66 -8.36 18.32 -7 19 C-7 20.65 -7 22.3 -7 24 C-6.34 24 -5.68 24 -5 24 C-3.375 25.125 -3.375 25.125 -2 27 C-1.8125 30.1875 -1.8125 30.1875 -2 33 C-4.6486859 29.80331012 -6.93992341 26.60513403 -9 23 C-12.8622381 24.67801121 -15.9868282 27.20334234 -19.25 29.8125 C-20.15286743 30.52805054 -20.15286743 30.52805054 -21.07397461 31.25805664 C-27.25740123 36.17296624 -33.38417571 41.15850066 -39.50390625 46.15234375 C-42.32240887 48.45202888 -45.15465125 50.73355138 -48 53 C-42.55707911 58.04286094 -37.10145616 62.97924106 -31.3125 67.625 C-20.75948969 76.22652903 -12.14932161 85.28856676 -9 99 C-7.30733975 117.77671957 -14.40594181 139.004481 -26 154 C-28.38671875 155.65625 -28.38671875 155.65625 -30.6875 156.5 C-31.45449219 156.7990625 -32.22148437 157.098125 -33.01171875 157.40625 C-35 158 -35 158 -37 158 C-39.56237342 152.26028355 -40.61130629 148.24228662 -39 142 C-37.3877073 137.90138034 -35.49022894 133.95833541 -33.5625 130 C-26.46890516 115.64000826 -26.46890516 115.64000826 -27 100 C-32.72659042 86.68567727 -47.12423442 74.43788279 -60 68 C-60.38091797 69.05574219 -60.38091797 69.05574219 -60.76953125 70.1328125 C-62.12727606 73.29657343 -63.81636227 75.98558103 -65.6875 78.875 C-76.48042009 96.06928917 -82.93880059 114.98107726 -86 135 C-86.18046875 136.10730469 -86.3609375 137.21460938 -86.546875 138.35546875 C-87.19982066 143.60717824 -87.34981189 148.86175529 -87.51757812 154.1484375 C-87.69984089 158.46772107 -87.90623943 162.10941217 -90 166 C-92.32337829 167.74253372 -94.05560885 168.00828217 -96.9375 168.4375 C-101.13126309 167.83839099 -102.36335296 166.25392227 -105 163 C-105.55859375 159.93359375 -105.55859375 159.93359375 -105.4375 156.4375 C-105.41647217 155.79184082 -105.39544434 155.14618164 -105.3737793 154.48095703 C-105.28525674 152.31712901 -105.14745089 150.16057824 -105 148 C-104.95456055 147.23671387 -104.90912109 146.47342773 -104.86230469 145.68701172 C-102.00228765 100.74784072 -81.3118209 59.20401254 -48 29 C-34.52314683 17.43523303 -19.98069348 8.63955103 -4 1 C-2 0 -2 0 0 0 Z " fill="#EB502D" transform="translate(201,119)"/>
<path d="M0 0 C-1.75 6.75 -1.75 6.75 -4 9 C-4 8.34 -4 7.68 -4 7 C-5.98 7 -7.96 7 -10 7 C-10.33 7.66 -10.66 8.32 -11 9 C-12.98 9 -14.96 9 -17 9 C-17 11.31 -17 13.62 -17 16 C-17.68707031 16.06058594 -18.37414062 16.12117188 -19.08203125 16.18359375 C-20.43361328 16.30927734 -20.43361328 16.30927734 -21.8125 16.4375 C-23.15248047 16.55931641 -23.15248047 16.55931641 -24.51953125 16.68359375 C-27.12743559 16.93489767 -27.12743559 16.93489767 -30 18 C-31.26228842 19.60544582 -31.26228842 19.60544582 -32.375 21.5 C-34.66848372 24.92290319 -34.66848372 24.92290319 -37.6875 25.625 C-38.450625 25.74875 -39.21375 25.8725 -40 26 C-40.4640625 27.175625 -40.4640625 27.175625 -40.9375 28.375 C-42 31 -42 31 -44.9375 32.4375 C-48.7512707 34.38330138 -49.16393822 36.24804766 -51 40 C-52.64991582 40.70710678 -54.31562256 41.37943989 -56 42 C-56.14050781 42.61617187 -56.28101563 43.23234375 -56.42578125 43.8671875 C-57.32742992 47.21616828 -59.80733178 48.44084124 -62.50390625 50.4375 C-64.46106103 52.1209822 -64.46106103 52.1209822 -64 56 C-64.763125 56.103125 -65.52625 56.20625 -66.3125 56.3125 C-69.31090662 57.07953425 -70.07397722 57.65527661 -72 60 C-72.99373439 62.2603044 -72.99373439 62.2603044 -73.6875 64.6875 C-73.93886719 65.49574219 -74.19023438 66.30398437 -74.44921875 67.13671875 C-74.63097656 67.75160156 -74.81273438 68.36648437 -75 69 C-74.34 69 -73.68 69 -73 69 C-71.53600103 72.7891738 -70.66025891 75.11475084 -72 79 C-72 81.21357307 -71.90953055 83.4275773 -71.76953125 85.63671875 C-71.77520853 90.61796797 -73.58977528 94.37457413 -75.6875 98.8125 C-83.63471536 116.64540452 -87.00600037 135.04996489 -87.57128906 154.51757812 C-87.72496194 158.73210097 -87.97277335 162.19527753 -90 166 C-92.32337829 167.74253372 -94.05560885 168.00828217 -96.9375 168.4375 C-101.13126309 167.83839099 -102.36335296 166.25392227 -105 163 C-105.55859375 159.93359375 -105.55859375 159.93359375 -105.4375 156.4375 C-105.41647217 155.79184082 -105.39544434 155.14618164 -105.3737793 154.48095703 C-105.28525674 152.31712901 -105.14745089 150.16057824 -105 148 C-104.95456055 147.23671387 -104.90912109 146.47342773 -104.86230469 145.68701172 C-102.00228765 100.74784072 -81.3118209 59.20401254 -48 29 C-34.52314683 17.43523303 -19.98069348 8.63955103 -4 1 C-2 0 -2 0 0 0 Z " fill="#EB3733" transform="translate(201,119)"/>
<path d="M0 0 C-0.9590625 0.433125 -0.9590625 0.433125 -1.9375 0.875 C-4.15206079 1.82823451 -4.15206079 1.82823451 -5 4 C-5.99 4.33 -6.98 4.66 -8 5 C-6.68 5.66 -5.36 6.32 -4 7 C-4 7.66 -4 8.32 -4 9 C-2.68 9.66 -1.36 10.32 0 11 C-0.66 12.32 -1.32 13.64 -2 15 C-1.34 15 -0.68 15 0 15 C0.33 13.35 0.66 11.7 1 10 C2.9375 10.8125 2.9375 10.8125 5 12 C5.495 13.485 5.495 13.485 6 15 C5.11699219 15.27972656 4.23398438 15.55945313 3.32421875 15.84765625 C-8.08591284 19.65920397 -25.35770879 26.71541758 -31 38 C-30.29335205 38.27183105 -29.5867041 38.54366211 -28.85864258 38.82373047 C-25.91707542 40.03412167 -23.10350564 41.3918207 -20.26171875 42.8203125 C-19.19501953 43.35527344 -18.12832031 43.89023437 -17.02929688 44.44140625 C-15.92650391 44.99699219 -14.82371094 45.55257812 -13.6875 46.125 C-12.56537109 46.68832031 -11.44324219 47.25164063 -10.28710938 47.83203125 C-7.52382738 49.21955157 -4.76149818 50.60893378 -2 52 C-2 52.33 -2 52.66 -2 53 C-3.65 53 -5.3 53 -7 53 C-7 52.34 -7 51.68 -7 51 C-7.515625 50.896875 -8.03125 50.79375 -8.5625 50.6875 C-11 50 -11 50 -14.4375 48.4375 C-17.69863656 47.12160279 -19.56357041 46.68759731 -23 47 C-22.67 46.01 -22.34 45.02 -22 44 C-22.66 44 -23.32 44 -24 44 C-24 44.66 -24 45.32 -24 46 C-24.66 46 -25.32 46 -26 46 C-26.66 49.3 -27.32 52.6 -28 56 C-26.6078125 55.9690625 -26.6078125 55.9690625 -25.1875 55.9375 C-22 56 -22 56 -19 57 C-16.85744207 56.61067144 -16.85744207 56.61067144 -15 56 C-13.875 57.75 -13.875 57.75 -13 60 C-13.9453125 62.140625 -13.9453125 62.140625 -15 64 C-13.95199219 64.12955078 -13.95199219 64.12955078 -12.8828125 64.26171875 C-10.16031137 64.68204824 -7.61803791 65.13743453 -5 66 C-3.375 68.625 -3.375 68.625 -3 71 C-9.207207 69.59192217 -14.02851981 66.85772463 -19.4375 63.5625 C-29.97202641 57.16443568 -36.92392467 54.50987789 -49.28515625 55.20507812 C-55.31070995 55.40208586 -55.31070995 55.40208586 -58.578125 53.49609375 C-60.59207161 49.96062154 -60.89543597 46.90042725 -60 43 C-58.53743129 40.3381106 -56.64787439 38.25631511 -54.5625 36.0625 C-54.01263428 35.45696289 -53.46276855 34.85142578 -52.89624023 34.22753906 C-51.28370788 32.46551128 -49.64549424 30.73119706 -48 29 C-46.83984375 27.73736328 -46.83984375 27.73736328 -45.65625 26.44921875 C-38.36851399 18.79437664 -11.6551057 -5.82755285 0 0 Z " fill="#F06528" transform="translate(188,16)"/>
<path d="M0 0 C-0.99 0.33 -1.98 0.66 -3 1 C-4.20882096 3.00016466 -4.20882096 3.00016466 -5 5 C-5.495 4.01 -5.495 4.01 -6 3 C-6.763125 3.165 -7.52625 3.33 -8.3125 3.5 C-11 4 -11 4 -14 4 C-14.33 4.99 -14.66 5.98 -15 7 C-15.99 7.66 -16.98 8.32 -18 9 C-17.67 9.5775 -17.34 10.155 -17 10.75 C-16 13 -16 13 -16 17 C-11.93274061 18.16031596 -11.93274061 18.16031596 -8 17 C-7.34 17.66 -6.68 18.32 -6 19 C-6.96099609 19.58394531 -6.96099609 19.58394531 -7.94140625 20.1796875 C-22.45028348 29.56396875 -27.6063682 44.62556759 -31.26171875 60.86328125 C-32.12009859 63.34758692 -32.85835889 64.47519101 -35 66 C-39.46458018 66.52621203 -43.0674608 65.71050606 -46.625 63 C-49.96465543 55.71347907 -46.12490149 47.62346766 -43.57446289 40.52050781 C-37.72333374 24.96077516 -29.08747457 9.86270368 -13.609375 2.35546875 C-4.02381894 -1.54537974 -4.02381894 -1.54537974 0 0 Z " fill="#EE6A27" transform="translate(306,241)"/>
<path d="M0 0 C-1.75 6.75 -1.75 6.75 -4 9 C-4 8.34 -4 7.68 -4 7 C-5.98 7 -7.96 7 -10 7 C-10.33 7.66 -10.66 8.32 -11 9 C-12.98 9 -14.96 9 -17 9 C-17 11.31 -17 13.62 -17 16 C-17.68707031 16.06058594 -18.37414062 16.12117188 -19.08203125 16.18359375 C-20.43361328 16.30927734 -20.43361328 16.30927734 -21.8125 16.4375 C-23.15248047 16.55931641 -23.15248047 16.55931641 -24.51953125 16.68359375 C-27.12743559 16.93489767 -27.12743559 16.93489767 -30 18 C-31.26228842 19.60544582 -31.26228842 19.60544582 -32.375 21.5 C-34.66848372 24.92290319 -34.66848372 24.92290319 -37.6875 25.625 C-38.450625 25.74875 -39.21375 25.8725 -40 26 C-40.309375 26.78375 -40.61875 27.5675 -40.9375 28.375 C-42 31 -42 31 -44.9375 32.4375 C-48.7512707 34.38330138 -49.16393822 36.24804766 -51 40 C-52.64991582 40.70710678 -54.31562256 41.37943989 -56 42 C-56.14050781 42.61617187 -56.28101563 43.23234375 -56.42578125 43.8671875 C-57.32742992 47.21616828 -59.80733178 48.44084124 -62.50390625 50.4375 C-64.46106103 52.1209822 -64.46106103 52.1209822 -64 56 C-65.1446875 56.1546875 -65.1446875 56.1546875 -66.3125 56.3125 C-69.33339821 57.08528791 -70.09508663 57.5981527 -72 60 C-73.00503551 62.72023023 -73.00503551 62.72023023 -73.6875 65.6875 C-73.93886719 66.68136719 -74.19023438 67.67523438 -74.44921875 68.69921875 C-74.63097656 69.45847656 -74.81273438 70.21773438 -75 71 C-76.65 70.67 -78.3 70.34 -80 70 C-80 70.99 -80 71.98 -80 73 C-80.66 73 -81.32 73 -82 73 C-80.65462091 68.19714131 -78.55172089 64.48207274 -75.625 60.5 C-75.18800781 59.89833008 -74.75101562 59.29666016 -74.30078125 58.67675781 C-55.44381276 33.11361391 -32.52692002 14.63725933 -4 1 C-2 0 -2 0 0 0 Z " fill="#E94B2D" transform="translate(201,119)"/>
<path d="M0 0 C1.22589844 0.01353516 1.22589844 0.01353516 2.4765625 0.02734375 C3.41628906 0.04474609 3.41628906 0.04474609 4.375 0.0625 C4.375 0.7225 4.375 1.3825 4.375 2.0625 C5.695 1.7325 7.015 1.4025 8.375 1.0625 C8.9284764 3.13803648 9.375 4.90615964 9.375 7.0625 C12.09049154 9.36921915 12.09049154 9.36921915 14.5625 8.6875 C15.160625 8.48125 15.75875 8.275 16.375 8.0625 C17.5 12.8125 17.5 12.8125 16.375 15.0625 C12.61242169 13.39933133 9.48856346 10.99393026 6.25 8.5 C2.47938856 5.52482182 2.47938856 5.52482182 -1.625 3.0625 C-1.8725 3.74957031 -2.12 4.43664062 -2.375 5.14453125 C-3.83175251 8.5451379 -5.66956731 11.62201619 -7.625 14.75 C-7.98078125 15.33072266 -8.3365625 15.91144531 -8.703125 16.50976562 C-10.20163208 18.9280653 -11.60624569 21.04374569 -13.625 23.0625 C-14.625 22.0625 -14.625 22.0625 -14.6875 19.75 C-14.666875 18.863125 -14.64625 17.97625 -14.625 17.0625 C-14.625 15.7425 -14.625 14.4225 -14.625 13.0625 C-14.295 12.0725 -13.965 11.0825 -13.625 10.0625 C-11.0625 8.875 -11.0625 8.875 -8.625 8.0625 C-8.625 8.7225 -8.625 9.3825 -8.625 10.0625 C-7.965 10.0625 -7.305 10.0625 -6.625 10.0625 C-6.625 7.0925 -6.625 4.1225 -6.625 1.0625 C-4.21954362 -0.14022819 -2.67503047 -0.03821472 0 0 Z " fill="#E24C30" transform="translate(142.625,183.9375)"/>
<path d="M0 0 C-1.75 6.75 -1.75 6.75 -4 9 C-4 8.34 -4 7.68 -4 7 C-5.98 7 -7.96 7 -10 7 C-10.33 7.66 -10.66 8.32 -11 9 C-12.98 9 -14.96 9 -17 9 C-17 11.31 -17 13.62 -17 16 C-17.68707031 16.06058594 -18.37414062 16.12117188 -19.08203125 16.18359375 C-20.43361328 16.30927734 -20.43361328 16.30927734 -21.8125 16.4375 C-23.15248047 16.55931641 -23.15248047 16.55931641 -24.51953125 16.68359375 C-27.45860624 17.05849938 -29.41670082 17.31482885 -31.38671875 19.62890625 C-31.81597656 20.26699219 -32.24523437 20.90507812 -32.6875 21.5625 C-33.12449219 22.20316406 -33.56148437 22.84382813 -34.01171875 23.50390625 C-34.33785156 23.99761719 -34.66398438 24.49132812 -35 25 C-35.99 24.67 -36.98 24.34 -38 24 C-34.11969009 17.62862694 -29.8037356 14.52912816 -23.375 10.875 C-22.48506348 10.35583008 -21.59512695 9.83666016 -20.67822266 9.30175781 C-4.54282051 0 -4.54282051 0 0 0 Z " fill="#E26130" transform="translate(201,119)"/>
<path d="M0 0 C2.88509855 2.60647532 4.82650453 5.6254446 6.9375 8.875 C12.92678247 18.08395455 18.86722589 24.44025165 29 29 C29 29.33 29 29.66 29 30 C17 30 17 30 15 29 C14.855625 27.88625 14.71125 26.7725 14.5625 25.625 C14.30264387 22.09367822 14.30264387 22.09367822 12.5625 20.0625 C11.03927901 18.81256333 11.03927901 18.81256333 9 19 C9 19.66 9 20.32 9 21 C8.34 20.67 7.68 20.34 7 20 C6.59270772 17.67843403 6.25561323 15.3431213 6 13 C4.68 13.33 3.36 13.66 2 14 C1.37542727 10.56484998 1 7.50935186 1 4 C0.34 4 -0.32 4 -1 4 C-0.67 2.68 -0.34 1.36 0 0 Z " fill="#E36A2E" transform="translate(209,138)"/>
<path d="M0 0 C1.67542976 0.28604898 3.34385343 0.61781233 5 1 C4.67 3.31 4.34 5.62 4 8 C8.16434334 10.47954966 8.16434334 10.47954966 12.875 10.6875 C13.57625 10.460625 14.2775 10.23375 15 10 C15.33 12.64 15.66 15.28 16 18 C16.99 18.33 17.98 18.66 19 19 C18.67 19.66 18.34 20.32 18 21 C18.66 21.33 19.32 21.66 20 22 C19.67 22.99 19.34 23.98 19 25 C9.69522891 20.95535851 3.53991999 11.07590516 -2 3 C-1 1 -1 1 0 0 Z " fill="#F16526" transform="translate(201,151)"/>
<path d="M0 0 C0.33 0 0.66 0 1 0 C1.05428973 2.22889496 1.09292338 4.45817471 1.125 6.6875 C1.14820312 7.92886719 1.17140625 9.17023438 1.1953125 10.44921875 C1.00885703 13.83897913 0.55041236 16.0091336 -1 19 C-3.32337829 20.74253372 -5.05560885 21.00828217 -7.9375 21.4375 C-12.16823362 20.83310948 -13.38204049 19.32955253 -16 16 C-16.36771245 13.1612599 -16.48630804 10.98179849 -16.3125 8.1875 C-16.28994141 7.49462891 -16.26738281 6.80175781 -16.24414062 6.08789062 C-16.18562661 4.39098427 -16.0959548 2.69520139 -16 1 C-15.67 1 -15.34 1 -15 1 C-15 5.62 -15 10.24 -15 15 C-14.34 15 -13.68 15 -13 15 C-12.67 14.01 -12.34 13.02 -12 12 C-9.125 12.3125 -9.125 12.3125 -6 13 C-5.01 14.485 -5.01 14.485 -4 16 C-3.34 16 -2.68 16 -2 16 C-1.93941406 14.92878906 -1.87882812 13.85757812 -1.81640625 12.75390625 C-1.73201463 11.35675609 -1.64736594 9.95962143 -1.5625 8.5625 C-1.50352539 7.50192383 -1.50352539 7.50192383 -1.44335938 6.41992188 C-1.11328125 1.11328125 -1.11328125 1.11328125 0 0 Z " fill="#E12E35" transform="translate(112,266)"/>
<path d="M0 0 C0.66 0.33 1.32 0.66 2 1 C1.4946875 1.55429688 0.989375 2.10859375 0.46875 2.6796875 C-0.1809375 3.40414062 -0.830625 4.12859375 -1.5 4.875 C-2.1496875 5.59429687 -2.799375 6.31359375 -3.46875 7.0546875 C-5.20617272 8.84931098 -5.20617272 8.84931098 -5 11 C-5.928125 11.37125 -6.85625 11.7425 -7.8125 12.125 C-11.55392971 14.325841 -12.30443579 16.10020232 -14 20 C-16 21 -16 21 -18.375 21.4375 C-20.9016082 21.97891604 -22.7302165 22.80715633 -25 24 C-17.45425372 14.94510447 -9.23320424 7.33225043 0 0 Z " fill="#DD5331" transform="translate(164,139)"/>
<path d="M0 0 C0.68707555 2.49064888 1 4.37886292 1 7 C0.01 8.485 0.01 8.485 -1 10 C-0.67 10.99 -0.34 11.98 0 13 C-0.66 13.66 -1.32 14.32 -2 15 C-2.804375 15.86625 -3.60875 16.7325 -4.4375 17.625 C-7 20 -7 20 -10 20 C-9.67 20.99 -9.34 21.98 -9 23 C-13.62197306 25.21854707 -16.76824163 26.38281159 -22 26 C-22.33 24.35 -22.66 22.7 -23 21 C-22.13375 21.5259375 -22.13375 21.5259375 -21.25 22.0625 C-18.529483 23.19604875 -17.73607145 22.95609932 -15 22 C-6.90371038 16.93572168 -2.94405877 8.83217631 0 0 Z " fill="#E8822C" transform="translate(284,48)"/>
<path d="M0 0 C0.66 0.33 1.32 0.66 2 1 C1.53860337 6.5864484 0.08603426 10.115907 -2.9375 14.8125 C-3.29779297 15.38419922 -3.65808594 15.95589844 -4.02929688 16.54492188 C-5.54297506 18.91718732 -7.00492085 21.00492085 -9 23 C-10 22 -10 22 -10.0625 19.6875 C-10.041875 18.800625 -10.02125 17.91375 -10 17 C-10 15.68 -10 14.36 -10 13 C-9.67 12.01 -9.34 11.02 -9 10 C-6.4375 8.8125 -6.4375 8.8125 -4 8 C-4 8.66 -4 9.32 -4 10 C-3.34 10 -2.68 10 -2 10 C-2 7.03 -2 4.06 -2 1 C-1.34 0.67 -0.68 0.34 0 0 Z " fill="#E7442F" transform="translate(138,184)"/>
<path d="M0 0 C2 1.0625 2 1.0625 4 3 C4.33543224 6.75684104 4.19334591 9.41996227 3 13 C3.33 13.66 3.66 14.32 4 15 C5.89533342 15.46523063 5.89533342 15.46523063 8.0625 15.625 C9.361875 15.74875 10.66125 15.8725 12 16 C11.67 16.66 11.34 17.32 11 18 C6.46372955 17.89337826 3.06030619 17.80785234 -0.625 15 C-2.94990585 9.92747815 -1.71738757 5.1521627 0 0 Z " fill="#EB622B" transform="translate(260,289)"/>
<path d="M0 0 C0.66 0.33 1.32 0.66 2 1 C2 1.66 2 2.32 2 3 C5.54558268 3.97415762 9.11614542 4.51742181 12.75 5.0625 C14.50570313 5.32740234 14.50570313 5.32740234 16.296875 5.59765625 C17.63492187 5.79681641 17.63492187 5.79681641 19 6 C16.13579763 6.83276368 14.46216716 6.96290808 11.375 6.75 C5.88385417 6.63646127 1.65673868 9.36002733 -3 12 C-3.99 12.495 -3.99 12.495 -5 13 C-5 11.68 -5 10.36 -5 9 C-4.34 9 -3.68 9 -3 9 C-3 8.01 -3 7.02 -3 6 C-2.34 6 -1.68 6 -1 6 C-0.67 4.02 -0.34 2.04 0 0 Z " fill="#ED8127" transform="translate(289,160)"/>
<path d="M0 0 C0.928125 0.165 1.85625 0.33 2.8125 0.5 C9.08895731 1.39663676 15.87186359 1.80830255 22 0 C21.67 0.66 21.34 1.32 21 2 C20.34 2 19.68 2 19 2 C18.34 3.98 17.68 5.96 17 8 C15.68 7.34 14.36 6.68 13 6 C13.33 5.34 13.66 4.68 14 4 C13.01 4.33 12.02 4.66 11 5 C11 5.66 11 6.32 11 7 C9.35 7 7.7 7 6 7 C6 6.34 6 5.68 6 5 C5.34 5 4.68 5 4 5 C3.67 4.34 3.34 3.68 3 3 C2.01 2.67 1.02 2.34 0 2 C0 1.34 0 0.68 0 0 Z " fill="#EB8128" transform="translate(309,151)"/>
<path d="M0 0 C0.78375 0.185625 1.5675 0.37125 2.375 0.5625 C4.97089775 1.25962266 4.97089775 1.25962266 7 0 C8.02104551 0.97850195 9.0206121 1.97980427 10 3 C10 3.33 10 3.66 10 4 C6.79199093 4.64745092 3.58353661 5.29266893 0.375 5.9375 C-0.52863281 6.11990234 -1.43226563 6.30230469 -2.36328125 6.49023438 C-6.89899238 7.40068734 -11.42937647 8.2787222 -16 9 C-16 8.34 -16 7.68 -16 7 C-15.01 6.34 -14.02 5.68 -13 5 C-12.67 4.01 -12.34 3.02 -12 2 C-10.948125 2.495 -10.948125 2.495 -9.875 3 C-6.73996884 4.09044562 -4.29436818 4.15322643 -1 4 C-0.67 2.68 -0.34 1.36 0 0 Z " fill="#E6742E" transform="translate(238,120)"/>
<path d="M0 0 C3.4375 0.8125 3.4375 0.8125 7 2 C8 5 8 5 7.36328125 6.97265625 C7.01652344 7.66230469 6.66976563 8.35195313 6.3125 9.0625 C5.97863281 9.75472656 5.64476562 10.44695313 5.30078125 11.16015625 C3.77706755 13.31531887 2.41756599 14.01770477 0 15 C0.33 12.69 0.66 10.38 1 8 C0.34 7.67 -0.32 7.34 -1 7 C-0.67 4.69 -0.34 2.38 0 0 Z " fill="#EB8229" transform="translate(319,49)"/>
<path d="M0 0 C0 3 0 3 -1.8984375 5.05078125 C-3.54274995 6.5524483 -5.1885725 8.05246356 -6.8359375 9.55078125 C-9.26163178 12.29610673 -10.0711079 14.48657391 -11 18 C-11.6875 20.3125 -11.6875 20.3125 -13 22 C-16.625 22.75 -16.625 22.75 -20 23 C-17.41476236 18.07664303 -13.80223902 14.36423439 -10 10.375 C-9.3709375 9.70726562 -8.741875 9.03953125 -8.09375 8.3515625 C-5.43089507 5.5307416 -2.75293774 2.73324428 0 0 Z " fill="#DE5F34" transform="translate(149,36)"/>
<path d="M0 0 C0 3 0 3 -1 6 C-2.31053056 7.02970259 -3.64886795 8.02418241 -5 9 C-5.78375 9.78375 -6.5675 10.5675 -7.375 11.375 C-10.11396576 14.11396576 -13.02557265 16.52131054 -16 19 C-17.68615782 20.64694485 -19.35570171 22.31126121 -21 24 C-22 25 -23 26 -24 27 C-24.66 26.67 -25.32 26.34 -26 26 C-17.42 17.42 -8.84 8.84 0 0 Z " fill="#525252" transform="translate(424,321)"/>
<path d="M0 0 C3.32527174 3.32527174 3.86950873 8.23920947 5.05664062 12.703125 C6.16793569 16.70517202 7.12392852 19.86399203 10 23 C7.69 22.67 5.38 22.34 3 22 C3.01160156 21.43152344 3.02320313 20.86304687 3.03515625 20.27734375 C3.09223194 15.39329516 2.81956772 10.81496035 2 6 C-1.0745356 6.7763932 -1.0745356 6.7763932 -3 9 C-3 6.36 -3 3.72 -3 1 C-2.01 0.67 -1.02 0.34 0 0 Z " fill="#EB812A" transform="translate(245,40)"/>
<path d="M0 0 C0 3 0 3 -1.3125 5 C-3.78800302 9.40089426 -4.79527004 14.12127087 -6 19 C-7.65 18.67 -9.3 18.34 -11 18 C-11 18.99 -11 19.98 -11 21 C-11.66 21 -12.32 21 -13 21 C-11.58041326 15.71913732 -9.1463513 12.00379079 -5.9375 7.6875 C-5.47794922 7.05521484 -5.01839844 6.42292969 -4.54492188 5.77148438 C-1.23028274 1.23028274 -1.23028274 1.23028274 0 0 Z " fill="#DD4632" transform="translate(132,171)"/>
<path d="M0 0 C1.45880109 0.14107747 2.91703551 0.28802415 4.375 0.4375 C5.59316406 0.55931641 5.59316406 0.55931641 6.8359375 0.68359375 C9 1 9 1 11 2 C11 2.66 11 3.32 11 4 C11.91523438 3.90460938 12.83046875 3.80921875 13.7734375 3.7109375 C15.55621094 3.54464844 15.55621094 3.54464844 17.375 3.375 C18.55835938 3.25898437 19.74171875 3.14296875 20.9609375 3.0234375 C21.96382812 3.01570313 22.96671875 3.00796875 24 3 C24.66 3.66 25.32 4.32 26 5 C28.57061311 5.64767793 28.57061311 5.64767793 31 6 C31 6.33 31 6.66 31 7 C24.23292696 7.51613269 18.11106642 6.80668393 11.5625 5.1875 C10.87671875 5.02217773 10.1909375 4.85685547 9.484375 4.68652344 C5.73360783 3.70444387 2.90588497 2.59374387 0 0 Z " fill="#E96E2E" transform="translate(185,87)"/>
<path d="M0 0 C-7.88262066 7.02429086 -7.88262066 7.02429086 -11.875 6.9375 C-13.421875 6.4734375 -13.421875 6.4734375 -15 6 C-16.95735703 5.93475477 -18.91665781 5.91751692 -20.875 5.9375 C-21.84179688 5.94652344 -22.80859375 5.95554687 -23.8046875 5.96484375 C-24.89136719 5.98224609 -24.89136719 5.98224609 -26 6 C-26.33 5.34 -26.66 4.68 -27 4 C-25.865625 4.04125 -24.73125 4.0825 -23.5625 4.125 C-17.52424015 4.11431281 -12.07908119 3.05915457 -6.6875 0.3125 C-3.66515879 -1.1635271 -3.05186339 -0.96956854 0 0 Z " fill="#E8822B" transform="translate(342,73)"/>
<path d="M0 0 C0 2.31 0 4.62 0 7 C-1.32 6.67 -2.64 6.34 -4 6 C-3.505 6.78375 -3.01 7.5675 -2.5 8.375 C-1 11 -1 11 -1 13 C-0.01 13 0.98 13 2 13 C2.33 13.66 2.66 14.32 3 15 C5.01669827 16.13350534 5.01669827 16.13350534 7 17 C6.34 17.33 5.68 17.66 5 18 C-0.95875379 15.41412571 -4.44074245 12.03843256 -7 6 C-7 4.68 -7 3.36 -7 2 C-2.25 0 -2.25 0 0 0 Z " fill="#E5782C" transform="translate(213,49)"/>
<path d="M0 0 C4.56454251 0.54339792 7.9728176 1.79463821 12 4 C12 4.66 12 5.32 12 6 C12.99 6 13.98 6 15 6 C15 6.66 15 7.32 15 8 C15.639375 8.12375 16.27875 8.2475 16.9375 8.375 C17.618125 8.58125 18.29875 8.7875 19 9 C20.28446919 11.56893838 20.32977144 13.76576337 20.5625 16.625 C20.68818359 18.12933594 20.68818359 18.12933594 20.81640625 19.6640625 C20.87699219 20.43492188 20.93757813 21.20578125 21 22 C20.71640625 21.42121094 20.4328125 20.84242187 20.140625 20.24609375 C15.31328344 10.74019856 9.69770551 5.51444912 0 1 C0 0.67 0 0.34 0 0 Z " fill="#DD8035" transform="translate(212,31)"/>
<path d="M0 0 C0.33 0 0.66 0 1 0 C1.05428973 2.22889496 1.09292338 4.45817471 1.125 6.6875 C1.14820312 7.92886719 1.17140625 9.17023438 1.1953125 10.44921875 C1.00885703 13.83897913 0.55041236 16.0091336 -1 19 C-4.14708679 21.3603151 -7.15920615 21.40859509 -11 21 C-11.99 20.01 -12.98 19.02 -14 18 C-10.7 18.33 -7.4 18.66 -4 19 C-4 18.01 -4 17.02 -4 16 C-3.34 16 -2.68 16 -2 16 C-1.93941406 14.92878906 -1.87882812 13.85757812 -1.81640625 12.75390625 C-1.73201463 11.35675609 -1.64736594 9.95962143 -1.5625 8.5625 C-1.50352539 7.50192383 -1.50352539 7.50192383 -1.44335938 6.41992188 C-1.11328125 1.11328125 -1.11328125 1.11328125 0 0 Z " fill="#C7393D" transform="translate(112,266)"/>
<path d="M0 0 C-0.33 0.99 -0.66 1.98 -1 3 C-2.65 3 -4.3 3 -6 3 C-6.33 3.99 -6.66 4.98 -7 6 C-12.28 5.34 -17.56 4.68 -23 4 C-23 3.67 -23 3.34 -23 3 C-19.72971069 2.49639777 -16.45868619 1.99774046 -13.1875 1.5 C-12.25873047 1.35691406 -11.32996094 1.21382813 -10.37304688 1.06640625 C-9.48037109 0.93105469 -8.58769531 0.79570313 -7.66796875 0.65625 C-6.84578857 0.53056641 -6.0236084 0.40488281 -5.17651367 0.27539062 C-3 0 -3 0 0 0 Z " fill="#E87D2A" transform="translate(259,105)"/>
<path d="M0 0 C0.33 0 0.66 0 1 0 C1.33 1.65 1.66 3.3 2 5 C2.66 5 3.32 5 4 5 C4.66 4.34 5.32 3.68 6 3 C6.12375 3.639375 6.2475 4.27875 6.375 4.9375 C6.684375 5.9584375 6.684375 5.9584375 7 7 C7.66 7.33 8.32 7.66 9 8 C9 8.99 9 9.98 9 11 C9.99 11.33 10.98 11.66 12 12 C4.8 12.48 4.8 12.48 1.5 10.5 C-0.68405234 6.85991277 -0.28023018 4.20345267 0 0 Z " fill="#E35A31" transform="translate(128,59)"/>
<path d="M0 0 C0.33 0 0.66 0 1 0 C1 1.65 1 3.3 1 5 C1.66 5 2.32 5 3 5 C3 6.32 3 7.64 3 9 C2.34 9.66 1.68 10.32 1 11 C1.33 11.99 1.66 12.98 2 14 C1.01 14.495 1.01 14.495 0 15 C-0.38995102 16.86492402 -0.38995102 16.86492402 -0.5 19 C-0.65625 21.1875 -0.65625 21.1875 -1 23 C-1.66 23.33 -2.32 23.66 -3 24 C-2.55348122 15.84515697 -1.88849677 7.95735532 0 0 Z " fill="#D93638" transform="translate(100,237)"/>
<path d="M0 0 C1.078125 1.76953125 1.078125 1.76953125 2 4 C-0.24489796 10.62244898 -0.24489796 10.62244898 -3 12 C-3 12.66 -3 13.32 -3 14 C-3.66 14 -4.32 14 -5 14 C-5 17.3 -5 20.6 -5 24 C-7.18921739 20.71617392 -7.25548763 19.35196699 -6.69140625 15.5390625 C-5.20528159 10.08154257 -2.51512364 5.0456303 0 0 Z " fill="#D54838" transform="translate(168,248)"/>
<path d="M0 0 C5.92863717 1.16651426 11.38798394 2.75519358 17 5 C14.74985042 5.72326236 13.36678115 6.09316241 11.046875 5.50390625 C8.47675133 4.87118497 6.80270869 5.29932283 4.25 5.9375 C3.45078125 6.13214844 2.6515625 6.32679687 1.828125 6.52734375 C1.22484375 6.68332031 0.6215625 6.83929688 0 7 C0 4.69 0 2.38 0 0 Z " fill="#EA8229" transform="translate(313,113)"/>
<path d="M0 0 C0.99 0.66 1.98 1.32 3 2 C3 2.66 3 3.32 3 4 C5.83772682 5.2519383 8.07669937 6.00751955 11.1875 6.3125 C12.115625 6.539375 13.04375 6.76625 14 7 C15.375 9.5625 15.375 9.5625 16 12 C10.68751655 10.71417598 6.62992815 8.84304171 2.0625 5.875 C1.47404297 5.50246094 0.88558594 5.12992187 0.27929688 4.74609375 C-1.15203964 3.83841694 -2.57674646 2.92029928 -4 2 C-2.68 1.34 -1.36 0.68 0 0 Z " fill="#DF6832" transform="translate(169,75)"/>
<path d="M0 0 C-0.99 0.33 -1.98 0.66 -3 1 C-4.20882096 3.00016466 -4.20882096 3.00016466 -5 5 C-5.33 4.34 -5.66 3.68 -6 3 C-6.763125 3.165 -7.52625 3.33 -8.3125 3.5 C-11 4 -11 4 -14 4 C-14.33 4.99 -14.66 5.98 -15 7 C-18.5625 8.1875 -18.5625 8.1875 -22 9 C-17.53284561 3.20924431 -7.32893633 -2.90290387 0 0 Z " fill="#E97929" transform="translate(306,241)"/>
<path d="M0 0 C0 0.99 0 1.98 0 3 C-0.66 3 -1.32 3 -2 3 C-2.08636719 3.62261719 -2.17273438 4.24523437 -2.26171875 4.88671875 C-3 7 -3 7 -4.70703125 8.08203125 C-5.40183594 8.32308594 -6.09664063 8.56414062 -6.8125 8.8125 C-7.49957031 9.06644531 -8.18664062 9.32039062 -8.89453125 9.58203125 C-11.26868457 10.05333812 -12.72314894 9.75212833 -15 9 C-13.25156882 7.87256334 -11.5011906 6.7481458 -9.75 5.625 C-8.77546875 4.99851563 -7.8009375 4.37203125 -6.796875 3.7265625 C-4.56478385 2.34865148 -2.36912578 1.11687358 0 0 Z " fill="#E77F29" transform="translate(287,151)"/>
<path d="M0 0 C-0.33 0.99 -0.66 1.98 -1 3 C-2.98 3 -4.96 3 -7 3 C-7 3.66 -7 4.32 -7 5 C-6.34 5 -5.68 5 -5 5 C-5 5.66 -5 6.32 -5 7 C-6.65 7 -8.3 7 -10 7 C-10 6.01 -10 5.02 -10 4 C-11.32 4.33 -12.64 4.66 -14 5 C-14 4.34 -14 3.68 -14 3 C-12.23358317 2.3012307 -10.46167336 1.61633417 -8.6875 0.9375 C-7.20830078 0.36322266 -7.20830078 0.36322266 -5.69921875 -0.22265625 C-3 -1 -3 -1 0 0 Z " fill="#EC8428" transform="translate(317,49)"/>
<path d="M0 0 C3.58806317 3.38872633 6.45684799 6.76141332 9 11 C9 11.66 9 12.32 9 13 C8.34 13 7.68 13 7 13 C6.34 12.34 5.68 11.68 5 11 C4.01 11 3.02 11 2 11 C2 9.68 2 8.36 2 7 C1.01 6.67 0.02 6.34 -1 6 C-0.67 4.02 -0.34 2.04 0 0 Z " fill="#E88029" transform="translate(236,27)"/>
<path d="M0 0 C6.75 2.875 6.75 2.875 9 4 C8.34 5.98 7.68 7.96 7 10 C5.68 9.34 4.36 8.68 3 8 C3 7.01 3 6.02 3 5 C2.01 4.67 1.02 4.34 0 4 C0 2.68 0 1.36 0 0 Z " fill="#F87F1C" transform="translate(369,40)"/>
<path d="M0 0 C2.60895459 2.60895459 3.10973264 4.98266538 4.1875 8.5 C4.55230469 9.6653125 4.91710937 10.830625 5.29296875 12.03125 C6 15 6 15 5 17 C4.34 16.01 3.68 15.02 3 14 C1.68 14.33 0.36 14.66 -1 15 C-1 13.35 -1 11.7 -1 10 C-0.34 9.67 0.32 9.34 1 9 C0.67 6.03 0.34 3.06 0 0 Z " fill="#E67F2B" transform="translate(425,217)"/>
<path d="M0 0 C0.33 0.66 0.66 1.32 1 2 C1.804375 2.144375 2.60875 2.28875 3.4375 2.4375 C6 3 6 3 8 6 C8 6.99 8 7.98 8 9 C7.34 9 6.68 9 6 9 C6 8.01 6 7.02 6 6 C4.2984375 6.2784375 4.2984375 6.2784375 2.5625 6.5625 C0.7990625 6.7790625 0.7990625 6.7790625 -1 7 C-2 6 -2 6 -2.0625 3.4375 C-2.041875 2.633125 -2.02125 1.82875 -2 1 C-1.34 0.67 -0.68 0.34 0 0 Z " fill="#F14E2B" transform="translate(154,177)"/>
<path d="M0 0 C3.66938148 1.01927263 4.82530638 1.72950665 6.9375 5 C9.35496101 8.51630692 10.92270824 9.07334278 15 10 C14.67 11.32 14.34 12.64 14 14 C10.39713494 12.47475964 8.05700017 10.32514563 5.3125 7.5625 C4.52488281 6.78003906 3.73726562 5.99757812 2.92578125 5.19140625 C1 3 1 3 0 0 Z " fill="#DF6836" transform="translate(206,162)"/>
<path d="M0 0 C5.45454545 0.45454545 5.45454545 0.45454545 8 3 C6.21289414 3.86366822 4.4201535 4.71568594 2.625 5.5625 C1.62726563 6.03816406 0.62953125 6.51382813 -0.3984375 7.00390625 C-1.25695312 7.33261719 -2.11546875 7.66132812 -3 8 C-3.66 7.67 -4.32 7.34 -5 7 C-4.01 6.34 -3.02 5.68 -2 5 C-2 4.01 -2 3.02 -2 2 C-1.34 1.34 -0.68 0.68 0 0 Z " fill="#EE8226" transform="translate(348,81)"/>
<path d="M0 0 C3.63 0 7.26 0 11 0 C12 4 12 4 12 7 C7.39104317 5.68315519 3.85859765 3.84801255 0 1 C0 0.67 0 0.34 0 0 Z " fill="#E8802C" transform="translate(292,83)"/>
<path d="M0 0 C5.44567686 1.02862785 10.11817117 2.24614784 15 5 C14.67 5.66 14.34 6.32 14 7 C11.2303041 7.72886734 8.87137415 8 6 8 C5.9071875 6.824375 5.9071875 6.824375 5.8125 5.625 C5.544375 4.75875 5.27625 3.8925 5 3 C2.52363988 1.62533375 2.52363988 1.62533375 0 1 C0 0.67 0 0.34 0 0 Z " fill="#EB7E2A" transform="translate(216,48)"/>
<path d="M0 0 C3.12830756 1.45131349 6.25203426 2.91223157 9.375 4.375 C10.70917969 4.99375 10.70917969 4.99375 12.0703125 5.625 C12.92109375 6.02460937 13.771875 6.42421875 14.6484375 6.8359375 C15.43395996 7.20251465 16.21948242 7.5690918 17.02880859 7.94677734 C19 9 19 9 21 11 C19.35 11 17.7 11 16 11 C16 10.34 16 9.68 16 9 C15.2265625 8.8453125 15.2265625 8.8453125 14.4375 8.6875 C12 8 12 8 8.5625 6.4375 C5.30136344 5.12160279 3.43642959 4.68759731 0 5 C0 3.35 0 1.7 0 0 Z " fill="#DA6B33" transform="translate(165,58)"/>
<path d="M0 0 C0.88300781 0.17660156 1.76601563 0.35320312 2.67578125 0.53515625 C4.44661458 0.88932292 6.21744792 1.24348958 7.98828125 1.59765625 C8.98408203 1.79681641 8.98408203 1.79681641 10 2 C10 2.33 10 2.66 10 3 C-4.78132118 3.3690205 -4.78132118 3.3690205 -11 1 C-11 0.67 -11 0.34 -11 0 C-6.90493691 -0.85710623 -4.04983871 -0.91603495 0 0 Z " fill="#E4832E" transform="translate(319,167)"/>
<path d="M0 0 C2.125 0.375 2.125 0.375 4 1 C2.54782324 2.50596108 1.08807139 4.00462104 -0.375 5.5 C-1.18710937 6.3353125 -1.99921875 7.170625 -2.8359375 8.03125 C-5 10 -5 10 -7 10 C-7 9.34 -7 8.68 -7 8 C-6.34 8 -5.68 8 -5 8 C-5.66 6.02 -6.32 4.04 -7 2 C-6.21625 2.04125 -5.4325 2.0825 -4.625 2.125 C-1.83883881 2.28728734 -1.83883881 2.28728734 0 0 Z " fill="#E8822E" transform="translate(352,151)"/>
<path d="M0 0 C0.33 1.32 0.66 2.64 1 4 C2.32 3.67 3.64 3.34 5 3 C5.33 4.65 5.66 6.3 6 8 C8.64 8.33 11.28 8.66 14 9 C13.67 9.66 13.34 10.32 13 11 C4.92266878 10.8101482 4.92266878 10.8101482 1.4375 7.75 C-0.08307027 4.84108295 -0.36878807 3.22689561 0 0 Z " fill="#DB6333" transform="translate(258,296)"/>
<path d="M0 0 C6.6 0.99 13.2 1.98 20 3 C20 3.33 20 3.66 20 4 C18.25360243 4.39143394 16.50264082 4.76254287 14.75 5.125 C13.77546875 5.33382812 12.8009375 5.54265625 11.796875 5.7578125 C8.71623226 6.02457207 7.56952248 5.61512841 5 4 C4.278125 3.67 3.55625 3.34 2.8125 3 C1 2 1 2 0 0 Z " fill="#E9832E" transform="translate(276,105)"/>
<path d="M0 0 C0.66 0 1.32 0 2 0 C1.5625 2.25 1.5625 2.25 0 5 C-3.3380787 6.97508248 -7.06212362 9 -11 9 C-11.33 7.35 -11.66 5.7 -12 4 C-11.236875 4.20625 -10.47375 4.4125 -9.6875 4.625 C-6.78114056 5.33391203 -6.78114056 5.33391203 -4 3 C-2.68 3 -1.36 3 0 3 C0 2.01 0 1.02 0 0 Z " fill="#D4493D" transform="translate(175,268)"/>
<path d="M0 0 C3.875 1.875 3.875 1.875 5 3 C4.71269945 5.33944736 4.38063221 7.6739143 4 10 C3.01 10 2.02 10 1 10 C0 2.25 0 2.25 0 0 Z " fill="#ED8128" transform="translate(400,58)"/>
<path d="M0 0 C1.32 0 2.64 0 4 0 C2.50104329 3.81552617 0.2013144 5.53745046 -3 8 C-3.33 8.66 -3.66 9.32 -4 10 C-2.824375 10.433125 -2.824375 10.433125 -1.625 10.875 C1 12 1 12 3 14 C-0.37462715 13.45276317 -2.08235 12.9451 -5 11 C-4.625 8.5625 -4.625 8.5625 -4 6 C-3.34 5.67 -2.68 5.34 -2 5 C-1.27840576 3.35636866 -0.60648579 1.68949614 0 0 Z " fill="#DB6634" transform="translate(161,44)"/>
<path d="M0 0 C0 3 0 3 -1.9375 5 C-2.618125 5.66 -3.29875 6.32 -4 7 C-4.33 7.99 -4.66 8.98 -5 10 C-6.84765625 11.60546875 -6.84765625 11.60546875 -9.0625 13.1875 C-9.79597656 13.71730469 -10.52945312 14.24710937 -11.28515625 14.79296875 C-11.85105469 15.19128906 -12.41695313 15.58960938 -13 16 C-13.66 15.67 -14.32 15.34 -15 15 C-10.05 10.05 -5.1 5.1 0 0 Z " fill="#525252" transform="translate(373,372)"/>
<path d="M0 0 C1.67542976 0.28604898 3.34385343 0.61781233 5 1 C4.835 2.093125 4.67 3.18625 4.5 4.3125 C3.93281816 7.87525873 3.93281816 7.87525873 4 11 C2.02 8.36 0.04 5.72 -2 3 C-1 1 -1 1 0 0 Z " fill="#EB642A" transform="translate(201,151)"/>
<path d="M0 0 C3.3 0 6.6 0 10 0 C10.8125 2.6875 10.8125 2.6875 11 6 C8.5625 8.875 8.5625 8.875 6 11 C5.34 10.67 4.68 10.34 4 10 C5.65 8.02 7.3 6.04 9 4 C6.03 3.01 3.06 2.02 0 1 C0 0.67 0 0.34 0 0 Z " fill="#E28233" transform="translate(332,137)"/>
<path d="M0 0 C4.18111718 3.43448911 6.39544192 7.90085222 8 13 C7.67 13.66 7.34 14.32 7 15 C2.06708042 10.17267808 0.24351128 6.94007154 0 0 Z " fill="#DD5634" transform="translate(183,201)"/>
<path d="M0 0 C1.32 0.66 2.64 1.32 4 2 C3.34 2.66 2.68 3.32 2 4 C2 4.99 2 5.98 2 7 C-3.94 6.67 -9.88 6.34 -16 6 C-16 5.67 -16 5.34 -16 5 C-11.05 4.67 -6.1 4.34 -1 4 C-0.67 2.68 -0.34 1.36 0 0 Z " fill="#E57A2E" transform="translate(210,24)"/>
<path d="M0 0 C1.18771723 3.42943519 0.80226223 5.37784675 -0.4375 8.75 C-0.72496094 9.54921875 -1.01242188 10.3484375 -1.30859375 11.171875 C-1.53675781 11.77515625 -1.76492187 12.3784375 -2 13 C-2.33 13 -2.66 13 -3 13 C-3.66 9.7 -4.32 6.4 -5 3 C-3.35 2.67 -1.7 2.34 0 2 C0 1.34 0 0.68 0 0 Z " fill="#DE5231" transform="translate(190,234)"/>
<path d="M0 0 C2.45925493 2.45925493 3.34371127 4.79646927 4.6875 8 C5.14511719 9.0725 5.60273438 10.145 6.07421875 11.25 C6.37972656 12.1575 6.68523437 13.065 7 14 C6.67 14.66 6.34 15.32 6 16 C5.71125 15.360625 5.4225 14.72125 5.125 14.0625 C4.17176549 11.84793921 4.17176549 11.84793921 2 11 C2 10.34 2 9.68 2 9 C1.34 8.67 0.68 8.34 0 8 C0.33 6.68 0.66 5.36 1 4 C0.34 4 -0.32 4 -1 4 C-0.67 2.68 -0.34 1.36 0 0 Z " fill="#E37F2D" transform="translate(418,200)"/>
<path d="M0 0 C3.80984844 2.77079887 4.06840752 6.62868145 5 11 C4.34 11 3.68 11 3 11 C2.67 11.99 2.34 12.98 2 14 C1.37542727 10.56484998 1 7.50935186 1 4 C0.34 4 -0.32 4 -1 4 C-0.67 2.68 -0.34 1.36 0 0 Z " fill="#E7692B" transform="translate(209,138)"/>
<path d="M0 0 C1.27609323 0.90933009 2.54565553 1.82782853 3.8125 2.75 C4.87404297 3.51570312 4.87404297 3.51570312 5.95703125 4.296875 C8.02977691 6.02482358 9.47375854 7.78526476 11 10 C8.03 9.505 8.03 9.505 5 9 C5 8.01 5 7.02 5 6 C3.02 5.34 1.04 4.68 -1 4 C-0.67 2.68 -0.34 1.36 0 0 Z " fill="#E18032" transform="translate(373,143)"/>
<path d="M0 0 C0.66 0.33 1.32 0.66 2 1 C1.34 6.28 0.68 11.56 0 17 C-0.33 17 -0.66 17 -1 17 C-3.43326039 7.1619256 -3.43326039 7.1619256 -1.625 2.3125 C-1.08875 1.549375 -0.5525 0.78625 0 0 Z " fill="#E68532" transform="translate(275,87)"/>
<path d="M0 0 C2 3 2 3 1.625 5.1875 C1.41875 5.785625 1.2125 6.38375 1 7 C-0.98 7.33 -2.96 7.66 -5 8 C-5.33 7.01 -5.66 6.02 -6 5 C-4.02 3.35 -2.04 1.7 0 0 Z " fill="#F67F1E" transform="translate(342,143)"/>
<path d="M0 0 C1.65 0.33 3.3 0.66 5 1 C3.51218185 4.78717347 1.38011591 6.77407001 -2 9 C-2.99 8.67 -3.98 8.34 -5 8 C-3.68 6.68 -2.36 5.36 -1 4 C-1.66 3.67 -2.32 3.34 -3 3 C-2.01 3 -1.02 3 0 3 C0 2.01 0 1.02 0 0 Z " fill="#E97C2D" transform="translate(228,66)"/>
<path d="M0 0 C-1.98 1.98 -3.96 3.96 -6 6 C-6.66 5.67 -7.32 5.34 -8 5 C-8 3.68 -8 2.36 -8 1 C-4.59449725 -1.06762667 -4.18836538 -1.04709135 0 0 Z " fill="#E6822E" transform="translate(370,243)"/>
<path d="M0 0 C2.97 0.495 2.97 0.495 6 1 C6 1.66 6 2.32 6 3 C6.99 3 7.98 3 9 3 C9.33 5.64 9.66 8.28 10 11 C9.46375 10.278125 8.9275 9.55625 8.375 8.8125 C6.53443943 6.6328888 4.9291455 5.0212012 2.75 3.25 C1.8425 2.5075 0.935 1.765 0 1 C0 0.67 0 0.34 0 0 Z " fill="#E48130" transform="translate(247,79)"/>
<path d="M0 0 C4.95 1.98 4.95 1.98 10 4 C6.00889681 5.9955516 4.30013434 6.19546065 0 6 C0 4.02 0 2.04 0 0 Z " fill="#E98228" transform="translate(305,72)"/>
<path d="M0 0 C1.45880109 0.14107747 2.91703551 0.28802415 4.375 0.4375 C5.59316406 0.55931641 5.59316406 0.55931641 6.8359375 0.68359375 C9 1 9 1 11 2 C11 2.66 11 3.32 11 4 C13.31 4.33 15.62 4.66 18 5 C14.16905403 6.45279835 11.65799654 5.5027187 7.875 4.1875 C6.82054687 3.83042969 5.76609375 3.47335938 4.6796875 3.10546875 C2 2 2 2 0 0 Z " fill="#E16D37" transform="translate(185,87)"/>
<path d="M0 0 C0.33 0.66 0.66 1.32 1 2 C-0.01553817 5.0466145 -1.20762558 7.31143836 -3 10 C-3.70164642 11.98799818 -4.37372872 13.98698517 -5 16 C-5.8852947 13.52455813 -6.09093521 12.28988738 -5.29296875 9.74609375 C-4.92816406 8.98425781 -4.56335938 8.22242188 -4.1875 7.4375 C-3.83042969 6.67308594 -3.47335937 5.90867187 -3.10546875 5.12109375 C-2 3 -2 3 0 0 Z " fill="#E5802D" transform="translate(291,32)"/>
<path d="M0 0 C1.32 0.66 2.64 1.32 4 2 C2.42466914 2.86883706 0.83935491 3.71959068 -0.75 4.5625 C-1.63171875 5.03816406 -2.5134375 5.51382813 -3.421875 6.00390625 C-6.20701188 7.07998186 -7.26980214 7.06528748 -10 6 C-9.67 5.34 -9.34 4.68 -9 4 C-6.95756472 3.36614078 -4.90867481 2.98173496 -2.8125 2.5625 C-2.214375 2.376875 -1.61625 2.19125 -1 2 C-0.67 1.34 -0.34 0.68 0 0 Z " fill="#E58230" transform="translate(339,162)"/>
<path d="M0 0 C0 0.99 0 1.98 0 3 C-0.99 3.33 -1.98 3.66 -3 4 C-3.33 4.66 -3.66 5.32 -4 6 C-5.65 6 -7.3 6 -9 6 C-8.00269864 3.5067466 -7.34925469 2.22532561 -5.0625 0.75 C-3 0 -3 0 0 0 Z " fill="#F87E1B" transform="translate(288,74)"/>
<path d="M0 0 C-0.639375 0.28875 -1.27875 0.5775 -1.9375 0.875 C-4.15206079 1.82823451 -4.15206079 1.82823451 -5 4 C-5.99 4.66 -6.98 5.32 -8 6 C-8 6.66 -8 7.32 -8 8 C-8.66 8 -9.32 8 -10 8 C-11 5 -11 5 -11 2 C-9.54494642 1.47007308 -8.08581873 0.9513211 -6.625 0.4375 C-5.81289062 0.14746094 -5.00078125 -0.14257812 -4.1640625 -0.44140625 C-2 -1 -2 -1 0 0 Z " fill="#E8732C" transform="translate(188,16)"/>
<path d="M0 0 C0.33 1.32 0.66 2.64 1 4 C0.34 4 -0.32 4 -1 4 C-0.67 5.98 -0.34 7.96 0 10 C-1.65 10.33 -3.3 10.66 -5 11 C-3.77472971 6.94718288 -2.30119506 3.55639236 0 0 Z " fill="#E1802C" transform="translate(372,203)"/>
<path d="M0 0 C0.99 0.99 1.98 1.98 3 3 C2.01 5.97 1.02 8.94 0 12 C-0.33 10.68 -0.66 9.36 -1 8 C-1.226875 7.34 -1.45375 6.68 -1.6875 6 C-2.09205762 3.41083122 -1.33413341 2.19739621 0 0 Z " fill="#E24037" transform="translate(124,208)"/>
<path d="M0 0 C-0.33 0.66 -0.66 1.32 -1 2 C-3.33157492 2.34541851 -5.66508361 2.67794257 -8 3 C-8.99 3.66 -9.98 4.32 -11 5 C-14.1875 4.625 -14.1875 4.625 -17 4 C-11.88643979 1.01708988 -5.89517358 -0.36844835 0 0 Z " fill="#E17732" transform="translate(235,109)"/>
<path d="M0 0 C0.78375 0.33 1.5675 0.66 2.375 1 C4.84332497 2.11866511 4.84332497 2.11866511 7 2 C8.92152816 4.88229224 10.46387819 7.90127153 12 11 C7.36279281 7.72469104 3.31457218 4.69564393 0 0 Z " fill="#E27C30" transform="translate(365,43)"/>
<path d="M0 0 C2.58445773 -0.1081866 5.16437352 -0.18737237 7.75 -0.25 C8.47960937 -0.28351562 9.20921875 -0.31703125 9.9609375 -0.3515625 C13.67144375 -0.41902625 15.57156961 -0.34327652 18.515625 2.015625 C19.00546875 2.67046875 19.4953125 3.3253125 20 4 C18.9275 3.690625 17.855 3.38125 16.75 3.0625 C11.24206217 1.66570282 5.65440039 1.35811202 0 1 C0 0.67 0 0.34 0 0 Z " fill="#DB8234" transform="translate(327,29)"/>
<path d="M0 0 C10.55808656 3.07517084 10.55808656 3.07517084 15 5 C11.71023192 6.09658936 10.28696233 5.79953138 7 5 C7 4.34 7 3.68 7 3 C4.69 3 2.38 3 0 3 C0 2.01 0 1.02 0 0 Z " fill="#DF8233" transform="translate(345,15)"/>
<path d="M0 0 C0 3.41321235 -0.66867466 4.39472885 -2.5 7.1875 C-2.9640625 7.90292969 -3.428125 8.61835938 -3.90625 9.35546875 C-4.2671875 9.89816406 -4.628125 10.44085938 -5 11 C-5.144375 10.401875 -5.28875 9.80375 -5.4375 9.1875 C-5.8872439 7.43849596 -6.42892341 5.71322977 -7 4 C-5.68 4 -4.36 4 -3 4 C-2.67 3.01 -2.34 2.02 -2 1 C-1.34 0.67 -0.68 0.34 0 0 Z " fill="#E16F32" transform="translate(287,268)"/>
<path d="M0 0 C-1.75 6.75 -1.75 6.75 -4 9 C-4 8.34 -4 7.68 -4 7 C-5.32 6.34 -6.64 5.68 -8 5 C-7.01 4.34 -6.02 3.68 -5 3 C-4.2265625 2.195625 -4.2265625 2.195625 -3.4375 1.375 C-2 0 -2 0 0 0 Z " fill="#ED6728" transform="translate(201,119)"/>
<path d="M0 0 C1.32 0.33 2.64 0.66 4 1 C-0.455 4.465 -0.455 4.465 -5 8 C-5.33 6.68 -5.66 5.36 -6 4 C-4.7934375 3.566875 -4.7934375 3.566875 -3.5625 3.125 C-0.8673532 2.26737432 -0.8673532 2.26737432 0 0 Z " fill="#E38532" transform="translate(241,79)"/>
<path d="M0 0 C3.3 0.99 6.6 1.98 10 3 C10 3.33 10 3.66 10 4 C6.75 5.1875 6.75 5.1875 3 6 C0.5625 4.625 0.5625 4.625 -1 3 C-0.34 2.67 0.32 2.34 1 2 C0.67 1.34 0.34 0.68 0 0 Z " fill="#E46F2C" transform="translate(194,73)"/>
<path d="M0 0 C1.9375 0.8125 1.9375 0.8125 4 2 C4.33 2.99 4.66 3.98 5 5 C2.03 5.66 -0.94 6.32 -4 7 C-3.67 6.34 -3.34 5.68 -3 5 C-2.34 5 -1.68 5 -1 5 C-0.67 3.35 -0.34 1.7 0 0 Z " fill="#E5752E" transform="translate(189,26)"/>
<path d="M0 0 C0.66 0 1.32 0 2 0 C2.99 2.97 3.98 5.94 5 9 C1 7 1 7 -1 5 C-0.625 2.375 -0.625 2.375 0 0 Z " fill="#E6802A" transform="translate(418,242)"/>
<path d="M0 0 C0.33 0 0.66 0 1 0 C1.19622241 4.21878192 0.80230168 7.17010894 -1 11 C-1.66 11 -2.32 11 -3 11 C-3 11.99 -3 12.98 -3 14 C-3.66 14 -4.32 14 -5 14 C-3.46527032 9.27775484 -1.76054874 4.64144669 0 0 Z " fill="#D84B32" transform="translate(174,234)"/>
<path d="M0 0 C2.475 0.495 2.475 0.495 5 1 C4.67 2.65 4.34 4.3 4 6 C2.68 6 1.36 6 0 6 C0 4.02 0 2.04 0 0 Z " fill="#F26727" transform="translate(176,66)"/>
<path d="M0 0 C0 1.98 0 3.96 0 6 C-0.66 6 -1.32 6 -2 6 C-2.33 6.66 -2.66 7.32 -3 8 C-3.33 6.68 -3.66 5.36 -4 4 C-4.99 4.495 -4.99 4.495 -6 5 C-3.74193548 0 -3.74193548 0 0 0 Z " fill="#F57F1D" transform="translate(301,45)"/>
<path d="M0 0 C-6.07841789 2.84964058 -10.37579029 4.72805471 -17 3 C-17 2.67 -17 2.34 -17 2 C-14.73139163 1.4695592 -12.46001511 0.95094566 -10.1875 0.4375 C-8.29064453 0.00244141 -8.29064453 0.00244141 -6.35546875 -0.44140625 C-3 -1 -3 -1 0 0 Z " fill="#535353" transform="translate(322,419)"/>
<path d="M0 0 C4.75 -0.125 4.75 -0.125 7 1 C8.32 1 9.64 1 11 1 C11 2.32 11 3.64 11 5 C7.27566618 3.7874262 3.62197194 2.49140021 0 1 C0 0.67 0 0.34 0 0 Z " fill="#DE6335" transform="translate(154,71)"/>
<path d="M0 0 C6.57142857 4 6.57142857 4 8 8 C6.68 7.67 5.36 7.34 4 7 C4 6.01 4 5.02 4 4 C2.68 3.67 1.36 3.34 0 3 C0 2.01 0 1.02 0 0 Z M1 7 C4 8 4 8 4 8 Z " fill="#E88230" transform="translate(385,39)"/>
<path d="M0 0 C0.33 0.66 0.66 1.32 1 2 C0.67 2.99 0.34 3.98 0 5 C-3.26202163 6.30480865 -6.57956185 7.21066812 -10 8 C-6.97727468 4.74475735 -3.74281699 2.38179263 0 0 Z " fill="#DD6A2F" transform="translate(164,25)"/>
<path d="M0 0 C0 2.33333333 0 4.66666667 0 7 C-2.31 7.33 -4.62 7.66 -7 8 C-6.02133662 6.85373678 -5.04205413 5.70800212 -4.0625 4.5625 C-3.51722656 3.92441406 -2.97195313 3.28632813 -2.41015625 2.62890625 C-1.63204305 1.73008851 -0.84063472 0.84063472 0 0 Z " fill="#5B5B5B" transform="translate(375,293)"/>
<path d="M0 0 C0 2.33333333 0 4.66666667 0 7 C-2.31 7.33 -4.62 7.66 -7 8 C-6.02133662 6.85373678 -5.04205413 5.70800212 -4.0625 4.5625 C-3.51722656 3.92441406 -2.97195313 3.28632813 -2.41015625 2.62890625 C-1.63204305 1.73008851 -0.84063472 0.84063472 0 0 Z " fill="#5B5B5B" transform="translate(383,285)"/>
<path d="M0 0 C1.423125 0.495 1.423125 0.495 2.875 1 C6.56974095 2.25891911 6.56974095 2.25891911 10 1 C10.66 1.66 11.32 2.32 12 3 C10.02 3.99 8.04 4.98 6 6 C5.67 5.34 5.34 4.68 5 4 C3.34051852 2.98812105 1.67419438 1.9873454 0 1 C0 0.67 0 0.34 0 0 Z " fill="#E47328" transform="translate(288,257)"/>
<path d="M0 0 C0 0.66 0 1.32 0 2 C-0.99 2 -1.98 2 -3 2 C-3.33 2.99 -3.66 3.98 -4 5 C-7.5625 6.1875 -7.5625 6.1875 -11 7 C-4.36842105 0 -4.36842105 0 0 0 Z " fill="#DE712F" transform="translate(295,243)"/>
<path d="M0 0 C4.455 1.98 4.455 1.98 9 4 C9 4.33 9 4.66 9 5 C2.9453125 5.1953125 2.9453125 5.1953125 1 5 C0.34 4.34 -0.32 3.68 -1 3 C-0.67 2.01 -0.34 1.02 0 0 Z " fill="#DE6D32" transform="translate(229,163)"/>
<path d="M0 0 C1.32 0 2.64 0 4 0 C4 1.98 4 3.96 4 6 C2.02 5.34 0.04 4.68 -2 4 C-1.34 3.67 -0.68 3.34 0 3 C0 2.01 0 1.02 0 0 Z " fill="#F15E27" transform="translate(180,129)"/>
<path d="M0 0 C0.33 0.66 0.66 1.32 1 2 C1.66 2 2.32 2 3 2 C3 3.32 3 4.64 3 6 C0.03 5.505 0.03 5.505 -3 5 C-2.625 3.0625 -2.625 3.0625 -2 1 C-1.34 0.67 -0.68 0.34 0 0 Z " fill="#F5811E" transform="translate(309,161)"/>
<path d="M0 0 C1.65 0 3.3 0 5 0 C5 1.32 5 2.64 5 4 C3.35 4 1.7 4 0 4 C-0.33 3.34 -0.66 2.68 -1 2 C-0.67 1.34 -0.34 0.68 0 0 Z " fill="#E9802A" transform="translate(320,90)"/>
<path d="M0 0 C1.65 0.99 3.3 1.98 5 3 C5.33 2.01 5.66 1.02 6 0 C6.99 0 7.98 0 9 0 C8.67 0.99 8.34 1.98 8 3 C5.1875 3.625 5.1875 3.625 2 4 C1.01 3.34 0.02 2.68 -1 2 C-0.67 1.34 -0.34 0.68 0 0 Z " fill="#F7801D" transform="translate(295,80)"/>
<path d="M0 0 C0.66 0.33 1.32 0.66 2 1 C-1.32307692 4.93846154 -1.32307692 4.93846154 -4.75 5.25 C-5.4925 5.1675 -6.235 5.085 -7 5 C-4.88437775 2.67281553 -2.94982021 1.14186589 0 0 Z " fill="#E3802E" transform="translate(370,56)"/>
<path d="M0 0 C0 0.66 0 1.32 0 2 C-4.455 2.495 -4.455 2.495 -9 3 C-9 2.34 -9 1.68 -9 1 C-5.8035914 -0.06546953 -3.34252724 -0.07427838 0 0 Z " fill="#E2822F" transform="translate(355,252)"/>
<path d="M0 0 C0 3.51716303 -0.82445585 4.37121748 -3 7 C-3.99 6.67 -4.98 6.34 -6 6 C-3.375 1.125 -3.375 1.125 0 0 Z " fill="#EE592D" transform="translate(169,137)"/>
<path d="M0 0 C2.31 0.66 4.62 1.32 7 2 C4.06171403 4.50298434 1.82097239 5.46930939 -2 6 C-1.01 5.01 -0.02 4.02 1 3 C0.67 2.01 0.34 1.02 0 0 Z " fill="#E7832F" transform="translate(345,83)"/>
<path d="M0 0 C3.875 1.75 3.875 1.75 5 4 C3.02 4.33 1.04 4.66 -1 5 C-0.67 3.35 -0.34 1.7 0 0 Z " fill="#E4802F" transform="translate(231,23)"/>
<path d="M0 0 C2.78211944 0.37596209 4.5879284 0.67318459 6.8125 2.4375 C8 4 8 4 8 6 C4.63408134 4.55746343 2.48952921 2.66735273 0 0 Z " fill="#D74B38" transform="translate(146,189)"/>
<path d="M0 0 C0.99 0.33 1.98 0.66 3 1 C0.06171403 3.50298434 -2.17902761 4.46930939 -6 5 C-6 4.01 -6 3.02 -6 2 C-4.02 2 -2.04 2 0 2 C0 1.34 0 0.68 0 0 Z " fill="#DC7938" transform="translate(272,177)"/>
<path d="M0 0 C2.13562754 2.13562754 2.63318342 3.06546739 3 6 C2.34 6.66 1.68 7.32 1 8 C0.34 7.67 -0.32 7.34 -1 7 C-1.75 4.5625 -1.75 4.5625 -2 2 C-1.34 1.34 -0.68 0.68 0 0 Z " fill="#EF6725" transform="translate(221,169)"/>
<path d="M0 0 C1.65 0 3.3 0 5 0 C2.11964908 2.24027294 -0.84866512 4.16172132 -4 6 C-4 4.68 -4 3.36 -4 2 C-2.68 2 -1.36 2 0 2 C0 1.34 0 0.68 0 0 Z " fill="#DC7F32" transform="translate(288,167)"/>
<path d="M0 0 C2.475 0.495 2.475 0.495 5 1 C5.66 2.98 6.32 4.96 7 7 C5.83040013 6.02433888 4.66438823 5.044375 3.5 4.0625 C2.8503125 3.51722656 2.200625 2.97195312 1.53125 2.41015625 C1.0259375 1.94480469 0.520625 1.47945312 0 1 C0 0.67 0 0.34 0 0 Z " fill="#DD8338" transform="translate(369,161)"/>
<path d="M0 0 C-5.75 5 -5.75 5 -8 5 C-8.33 4.01 -8.66 3.02 -9 2 C-3.375 -1.125 -3.375 -1.125 0 0 Z " fill="#D75E37" transform="translate(179,151)"/>
<path d="M0 0 C0.99 0.66 1.98 1.32 3 2 C2.67 2.66 2.34 3.32 2 4 C-1.63 3.67 -5.26 3.34 -9 3 C-9 2.67 -9 2.34 -9 2 C-6.03 2 -3.06 2 0 2 C0 1.34 0 0.68 0 0 Z " fill="#E9822B" transform="translate(294,121)"/>
<path d="M0 0 C0.33 0.99 0.66 1.98 1 3 C1.66 3 2.32 3 3 3 C3 2.34 3 1.68 3 1 C3.99 1.33 4.98 1.66 6 2 C4.68 3.65 3.36 5.3 2 7 C2 6.01 2 5.02 2 4 C1.01 3.67 0.02 3.34 -1 3 C-0.67 2.01 -0.34 1.02 0 0 Z " fill="#E5802A" transform="translate(275,81)"/>
<path d="M0 0 C0.33 0.66 0.66 1.32 1 2 C2.65 1.67 4.3 1.34 6 1 C3.06171403 3.50298434 0.82097239 4.46930939 -3 5 C-3 4.01 -3 3.02 -3 2 C-2.01 1.34 -1.02 0.68 0 0 Z " fill="#E9852E" transform="translate(311,64)"/>
<path d="M0 0 C3.96 1.98 3.96 1.98 8 4 C5.07175348 4.97608217 3.04386724 5.08226668 0 5 C0 3.35 0 1.7 0 0 Z " fill="#E4672E" transform="translate(165,58)"/>
<path d="M0 0 C1.134375 0.020625 2.26875 0.04125 3.4375 0.0625 C0.52346738 2.00518841 -2.42058576 3.52645304 -5.5625 5.0625 C-4.43693182 0.07784091 -4.43693182 0.07784091 0 0 Z " fill="#E26F34" transform="translate(181.5625,32.9375)"/>
<path d="M0 0 C0.66 0.66 1.32 1.32 2 2 C-1.465 4.97 -1.465 4.97 -5 8 C-5.66 7.67 -6.32 7.34 -7 7 C-4.69 4.69 -2.38 2.38 0 0 Z " fill="#595959" transform="translate(391,355)"/>
<path d="M0 0 C0.66 0 1.32 0 2 0 C2.33 1.32 2.66 2.64 3 4 C0.69 4.33 -1.62 4.66 -4 5 C-2.71937515 3.2925002 -1.38232443 1.62626404 0 0 Z " fill="#5B5B5B" transform="translate(388,280)"/>
<path d="M0 0 C1.5 1.375 1.5 1.375 3 3 C3 3.66 3 4.32 3 5 C1.02 5.33 -0.96 5.66 -3 6 C-2.01 4.02 -1.02 2.04 0 0 Z " fill="#E6812F" transform="translate(361,224)"/>
<path d="M0 0 C1.32 0.33 2.64 0.66 4 1 C4.625 2.875 4.625 2.875 5 5 C4.34 5.66 3.68 6.32 3 7 C0 2.25 0 2.25 0 0 Z " fill="#DA4F33" transform="translate(170,210)"/>
<path d="M0 0 C1.0625 1.875 1.0625 1.875 2 4 C1.67 4.66 1.34 5.32 1 6 C0.34 6 -0.32 6 -1 6 C-1.33 6.99 -1.66 7.98 -2 9 C-3 6 -3 6 -1.5625 2.8125 C-1.046875 1.884375 -0.53125 0.95625 0 0 Z " fill="#DB4034" transform="translate(114,199)"/>
<path d="M0 0 C0.66 0 1.32 0 2 0 C1.67 1.65 1.34 3.3 1 5 C0.34 4.67 -0.32 4.34 -1 4 C-1.33 4.33 -1.66 4.66 -2 5 C-2.66 4.67 -3.32 4.34 -4 4 C-3.67 3.01 -3.34 2.02 -3 1 C-2.01 1.33 -1.02 1.66 0 2 C0 1.34 0 0.68 0 0 Z " fill="#F77C19" transform="translate(388,199)"/>
<path d="M0 0 C2.97 1.65 5.94 3.3 9 5 C6 6 6 6 2.8125 4.5625 C1.884375 4.046875 0.95625 3.53125 0 3 C0 2.01 0 1.02 0 0 Z " fill="#E38031" transform="translate(352,129)"/>
<path d="M0 0 C0.66 0.33 1.32 0.66 2 1 C0.515 4.465 0.515 4.465 -1 8 C-3 4.25 -3 4.25 -3 2 C-2.01 2 -1.02 2 0 2 C0 1.34 0 0.68 0 0 Z " fill="#D94F35" transform="translate(185,248)"/>
<path d="M0 0 C1.65 1.65 3.3 3.3 5 5 C3.0625 5.5625 3.0625 5.5625 1 6 C0 5 0 5 -0.0625 2.4375 C-0.041875 1.633125 -0.02125 0.82875 0 0 Z " fill="#E5802E" transform="translate(396,166)"/>
<path d="M0 0 C1.65 0 3.3 0 5 0 C4.835 0.598125 4.67 1.19625 4.5 1.8125 C3.8885876 4.11344336 3.8885876 4.11344336 4 7 C0 2.25 0 2.25 0 0 Z " fill="#DA6933" transform="translate(201,155)"/>
<path d="M0 0 C3.53600465 1.91135386 5.78972846 3.62642766 8 7 C6.68 7 5.36 7 4 7 C3.566875 6.0409375 3.566875 6.0409375 3.125 5.0625 C2.17176549 2.84793921 2.17176549 2.84793921 0 2 C0 1.34 0 0.68 0 0 Z " fill="#DC8134" transform="translate(377,32)"/>
<path d="" fill="#FFFFFF" transform="translate(0,0)"/>
<path d="" fill="#FFFFFF" transform="translate(0,0)"/>
<path d="" fill="#FFFFFF" transform="translate(0,0)"/>
<path d="" fill="#FFFFFF" transform="translate(0,0)"/>
<path d="" fill="#FFFFFF" transform="translate(0,0)"/>
<path d="" fill="#FFFFFF" transform="translate(0,0)"/>
<path d="" fill="#FFFFFF" transform="translate(0,0)"/>
<path d="" fill="#FFFFFF" transform="translate(0,0)"/>
<path d="" fill="#FFFFFF" transform="translate(0,0)"/>
<path d="" fill="#FFFFFF" transform="translate(0,0)"/>
<path d="" fill="#FFFFFF" transform="translate(0,0)"/>
<path d="" fill="#FFFFFF" transform="translate(0,0)"/>
<path d="" fill="#FFFFFF" transform="translate(0,0)"/>
<path d="" fill="#FFFFFF" transform="translate(0,0)"/>
<path d="" fill="#FFFFFF" transform="translate(0,0)"/>
<path d="" fill="#FFFFFF" transform="translate(0,0)"/>
<path d="" fill="#FFFFFF" transform="translate(0,0)"/>
<path d="" fill="#FFFFFF" transform="translate(0,0)"/>
<path d="" fill="#FFFFFF" transform="translate(0,0)"/>
<path d="" fill="#FFFFFF" transform="translate(0,0)"/>
<path d="" fill="#FFFFFF" transform="translate(0,0)"/>
<path d="" fill="#FFFFFF" transform="translate(0,0)"/>
<path d="" fill="#FFFFFF" transform="translate(0,0)"/>
<path d="" fill="#FFFFFF" transform="translate(0,0)"/>
<path d="" fill="#FFFFFF" transform="translate(0,0)"/>
<path d="" fill="#FFFFFF" transform="translate(0,0)"/>
<path d="" fill="#FFFFFF" transform="translate(0,0)"/>
<path d="" fill="#FFFFFF" transform="translate(0,0)"/>
<path d="" fill="#FFFFFF" transform="translate(0,0)"/>
<path d="" fill="#FFFFFF" transform="translate(0,0)"/>
<path d="" fill="#FFFFFF" transform="translate(0,0)"/>
<path d="" fill="#FFFFFF" transform="translate(0,0)"/>
<path d="" fill="#FFFFFF" transform="translate(0,0)"/>
<path d="" fill="#FFFFFF" transform="translate(0,0)"/>
<path d="" fill="#FFFFFF" transform="translate(0,0)"/>
<path d="" fill="#FFFFFF" transform="translate(0,0)"/>
<path d="" fill="#FFFFFF" transform="translate(0,0)"/>
<path d="" fill="#FFFFFF" transform="translate(0,0)"/>
<path d="" fill="#FFFFFF" transform="translate(0,0)"/>
<path d="" fill="#FFFFFF" transform="translate(0,0)"/>
<path d="" fill="#FFFFFF" transform="translate(0,0)"/>
<path d="" fill="#FFFFFF" transform="translate(0,0)"/>
<path d="" fill="#FFFFFF" transform="translate(0,0)"/>
<path d="" fill="#FFFFFF" transform="translate(0,0)"/>
<path d="" fill="#FFFFFF" transform="translate(0,0)"/>
<path d="" fill="#FFFFFF" transform="translate(0,0)"/>
<path d="" fill="#FFFFFF" transform="translate(0,0)"/>
<path d="" fill="#FFFFFF" transform="translate(0,0)"/>
<path d="" fill="#FFFFFF" transform="translate(0,0)"/>
<path d="" fill="#FFFFFF" transform="translate(0,0)"/>
<path d="" fill="#FFFFFF" transform="translate(0,0)"/>
<path d="" fill="#FFFFFF" transform="translate(0,0)"/>
<path d="" fill="#FFFFFF" transform="translate(0,0)"/>
<path d="" fill="#FFFFFF" transform="translate(0,0)"/>
<path d="" fill="#FFFFFF" transform="translate(0,0)"/>
<path d="" fill="#FFFFFF" transform="translate(0,0)"/>
<path d="" fill="#FFFFFF" transform="translate(0,0)"/>
<path d="" fill="#FFFFFF" transform="translate(0,0)"/>
<path d="" fill="#FFFFFF" transform="translate(0,0)"/>
<path d="" fill="#FFFFFF" transform="translate(0,0)"/>
<path d="" fill="#FFFFFF" transform="translate(0,0)"/>
<path d="" fill="#FFFFFF" transform="translate(0,0)"/>
<path d="" fill="#FFFFFF" transform="translate(0,0)"/>
<path d="" fill="#FFFFFF" transform="translate(0,0)"/>
<path d="" fill="#FFFFFF" transform="translate(0,0)"/>
<path d="" fill="#FFFFFF" transform="translate(0,0)"/>
<path d="" fill="#FFFFFF" transform="translate(0,0)"/>
<path d="" fill="#FFFFFF" transform="translate(0,0)"/>
<path d="" fill="#FFFFFF" transform="translate(0,0)"/>
<path d="" fill="#FFFFFF" transform="translate(0,0)"/>
<path d="" fill="#FFFFFF" transform="translate(0,0)"/>
<path d="" fill="#FFFFFF" transform="translate(0,0)"/>
<path d="" fill="#FFFFFF" transform="translate(0,0)"/>
<path d="" fill="#FFFFFF" transform="translate(0,0)"/>
<path d="" fill="#FFFFFF" transform="translate(0,0)"/>
</svg>
